<svg aria-roledescription="class" role="graphics-document document" viewBox="0 0 746.95703125 834" style="max-width: 746.95703125px;" class="classDiagram" xmlns:xlink="http://www.w3.org/1999/xlink" xmlns="http://www.w3.org/2000/svg" width="100%" id="mermaid-diagram-mermaid-i2grbr4"><style>#mermaid-diagram-mermaid-i2grbr4{font-family:"trebuchet ms",verdana,arial,sans-serif;font-size:16px;fill:#000000;}@keyframes edge-animation-frame{from{stroke-dashoffset:0;}}@keyframes dash{to{stroke-dashoffset:0;}}#mermaid-diagram-mermaid-i2grbr4 .edge-animation-slow{stroke-dasharray:9,5!important;stroke-dashoffset:900;animation:dash 50s linear infinite;stroke-linecap:round;}#mermaid-diagram-mermaid-i2grbr4 .edge-animation-fast{stroke-dasharray:9,5!important;stroke-dashoffset:900;animation:dash 20s linear infinite;stroke-linecap:round;}#mermaid-diagram-mermaid-i2grbr4 .error-icon{fill:#552222;}#mermaid-diagram-mermaid-i2grbr4 .error-text{fill:#552222;stroke:#552222;}#mermaid-diagram-mermaid-i2grbr4 .edge-thickness-normal{stroke-width:1px;}#mermaid-diagram-mermaid-i2grbr4 .edge-thickness-thick{stroke-width:3.5px;}#mermaid-diagram-mermaid-i2grbr4 .edge-pattern-solid{stroke-dasharray:0;}#mermaid-diagram-mermaid-i2grbr4 .edge-thickness-invisible{stroke-width:0;fill:none;}#mermaid-diagram-mermaid-i2grbr4 .edge-pattern-dashed{stroke-dasharray:3;}#mermaid-diagram-mermaid-i2grbr4 .edge-pattern-dotted{stroke-dasharray:2;}#mermaid-diagram-mermaid-i2grbr4 .marker{fill:#666;stroke:#666;}#mermaid-diagram-mermaid-i2grbr4 .marker.cross{stroke:#666;}#mermaid-diagram-mermaid-i2grbr4 svg{font-family:"trebuchet ms",verdana,arial,sans-serif;font-size:16px;}#mermaid-diagram-mermaid-i2grbr4 p{margin:0;}#mermaid-diagram-mermaid-i2grbr4 g.classGroup text{fill:#999;stroke:none;font-family:"trebuchet ms",verdana,arial,sans-serif;font-size:10px;}#mermaid-diagram-mermaid-i2grbr4 g.classGroup text .title{font-weight:bolder;}#mermaid-diagram-mermaid-i2grbr4 .nodeLabel,#mermaid-diagram-mermaid-i2grbr4 .edgeLabel{color:#111111;}#mermaid-diagram-mermaid-i2grbr4 .edgeLabel .label rect{fill:#eee;}#mermaid-diagram-mermaid-i2grbr4 .label text{fill:#111111;}#mermaid-diagram-mermaid-i2grbr4 .labelBkg{background:#eee;}#mermaid-diagram-mermaid-i2grbr4 .edgeLabel .label span{background:#eee;}#mermaid-diagram-mermaid-i2grbr4 .classTitle{font-weight:bolder;}#mermaid-diagram-mermaid-i2grbr4 .node rect,#mermaid-diagram-mermaid-i2grbr4 .node circle,#mermaid-diagram-mermaid-i2grbr4 .node ellipse,#mermaid-diagram-mermaid-i2grbr4 .node polygon,#mermaid-diagram-mermaid-i2grbr4 .node path{fill:#eee;stroke:#999;stroke-width:1px;}#mermaid-diagram-mermaid-i2grbr4 .divider{stroke:#999;stroke-width:1;}#mermaid-diagram-mermaid-i2grbr4 g.clickable{cursor:pointer;}#mermaid-diagram-mermaid-i2grbr4 g.classGroup rect{fill:#eee;stroke:#999;}#mermaid-diagram-mermaid-i2grbr4 g.classGroup line{stroke:#999;stroke-width:1;}#mermaid-diagram-mermaid-i2grbr4 .classLabel .box{stroke:none;stroke-width:0;fill:#eee;opacity:0.5;}#mermaid-diagram-mermaid-i2grbr4 .classLabel .label{fill:#999;font-size:10px;}#mermaid-diagram-mermaid-i2grbr4 .relation{stroke:#666;stroke-width:1;fill:none;}#mermaid-diagram-mermaid-i2grbr4 .dashed-line{stroke-dasharray:3;}#mermaid-diagram-mermaid-i2grbr4 .dotted-line{stroke-dasharray:1 2;}#mermaid-diagram-mermaid-i2grbr4 #compositionStart,#mermaid-diagram-mermaid-i2grbr4 .composition{fill:#666!important;stroke:#666!important;stroke-width:1;}#mermaid-diagram-mermaid-i2grbr4 #compositionEnd,#mermaid-diagram-mermaid-i2grbr4 .composition{fill:#666!important;stroke:#666!important;stroke-width:1;}#mermaid-diagram-mermaid-i2grbr4 #dependencyStart,#mermaid-diagram-mermaid-i2grbr4 .dependency{fill:#666!important;stroke:#666!important;stroke-width:1;}#mermaid-diagram-mermaid-i2grbr4 #dependencyStart,#mermaid-diagram-mermaid-i2grbr4 .dependency{fill:#666!important;stroke:#666!important;stroke-width:1;}#mermaid-diagram-mermaid-i2grbr4 #extensionStart,#mermaid-diagram-mermaid-i2grbr4 .extension{fill:transparent!important;stroke:#666!important;stroke-width:1;}#mermaid-diagram-mermaid-i2grbr4 #extensionEnd,#mermaid-diagram-mermaid-i2grbr4 .extension{fill:transparent!important;stroke:#666!important;stroke-width:1;}#mermaid-diagram-mermaid-i2grbr4 #aggregationStart,#mermaid-diagram-mermaid-i2grbr4 .aggregation{fill:transparent!important;stroke:#666!important;stroke-width:1;}#mermaid-diagram-mermaid-i2grbr4 #aggregationEnd,#mermaid-diagram-mermaid-i2grbr4 .aggregation{fill:transparent!important;stroke:#666!important;stroke-width:1;}#mermaid-diagram-mermaid-i2grbr4 #lollipopStart,#mermaid-diagram-mermaid-i2grbr4 .lollipop{fill:#eee!important;stroke:#666!important;stroke-width:1;}#mermaid-diagram-mermaid-i2grbr4 #lollipopEnd,#mermaid-diagram-mermaid-i2grbr4 .lollipop{fill:#eee!important;stroke:#666!important;stroke-width:1;}#mermaid-diagram-mermaid-i2grbr4 .edgeTerminals{font-size:11px;line-height:initial;}#mermaid-diagram-mermaid-i2grbr4 .classTitleText{text-anchor:middle;font-size:18px;fill:#000000;}#mermaid-diagram-mermaid-i2grbr4 :root{--mermaid-font-family:"trebuchet ms",verdana,arial,sans-serif;}</style><g><defs><marker orient="auto" markerHeight="240" markerWidth="190" refY="7" refX="18" class="marker aggregation class" id="mermaid-diagram-mermaid-i2grbr4_class-aggregationStart"><path d="M 18,7 L9,13 L1,7 L9,1 Z"></path></marker></defs><defs><marker orient="auto" markerHeight="28" markerWidth="20" refY="7" refX="1" class="marker aggregation class" id="mermaid-diagram-mermaid-i2grbr4_class-aggregationEnd"><path d="M 18,7 L9,13 L1,7 L9,1 Z"></path></marker></defs><defs><marker orient="auto" markerHeight="240" markerWidth="190" refY="7" refX="18" class="marker extension class" id="mermaid-diagram-mermaid-i2grbr4_class-extensionStart"><path d="M 1,7 L18,13 V 1 Z"></path></marker></defs><defs><marker orient="auto" markerHeight="28" markerWidth="20" refY="7" refX="1" class="marker extension class" id="mermaid-diagram-mermaid-i2grbr4_class-extensionEnd"><path d="M 1,1 V 13 L18,7 Z"></path></marker></defs><defs><marker orient="auto" markerHeight="240" markerWidth="190" refY="7" refX="18" class="marker composition class" id="mermaid-diagram-mermaid-i2grbr4_class-compositionStart"><path d="M 18,7 L9,13 L1,7 L9,1 Z"></path></marker></defs><defs><marker orient="auto" markerHeight="28" markerWidth="20" refY="7" refX="1" class="marker composition class" id="mermaid-diagram-mermaid-i2grbr4_class-compositionEnd"><path d="M 18,7 L9,13 L1,7 L9,1 Z"></path></marker></defs><defs><marker orient="auto" markerHeight="240" markerWidth="190" refY="7" refX="6" class="marker dependency class" id="mermaid-diagram-mermaid-i2grbr4_class-dependencyStart"><path d="M 5,7 L9,13 L1,7 L9,1 Z"></path></marker></defs><defs><marker orient="auto" markerHeight="28" markerWidth="20" refY="7" refX="13" class="marker dependency class" id="mermaid-diagram-mermaid-i2grbr4_class-dependencyEnd"><path d="M 18,7 L9,13 L14,7 L9,1 Z"></path></marker></defs><defs><marker orient="auto" markerHeight="240" markerWidth="190" refY="7" refX="13" class="marker lollipop class" id="mermaid-diagram-mermaid-i2grbr4_class-lollipopStart"><circle r="6" cy="7" cx="7" fill="transparent" stroke="black"></circle></marker></defs><defs><marker orient="auto" markerHeight="240" markerWidth="190" refY="7" refX="1" class="marker lollipop class" id="mermaid-diagram-mermaid-i2grbr4_class-lollipopEnd"><circle r="6" cy="7" cx="7" fill="transparent" stroke="black"></circle></marker></defs><g class="root"><g class="clusters"></g><g class="edgePaths"><path style="fill: none;" class="edge-thickness-normal edge-pattern-dotted relation" id="edgeNote1" d="M190.117,44L190.117,48.167C190.117,52.333,190.117,60.667,190.117,69C190.117,77.333,190.117,85.667,190.117,89.833L190.117,94"></path><path style="fill: none;" class="edge-thickness-normal edge-pattern-dotted relation" id="edgeNote2" d="M604.543,187L604.543,202.667C604.543,218.333,604.543,249.667,602.455,271.5C600.368,293.333,596.193,305.667,594.105,311.833L592.018,318"></path><path style="fill: none;" class="edge-thickness-normal edge-pattern-dotted relation" id="edgeNote3" d="M356.273,399L356.273,412.667C356.273,426.333,356.273,453.667,356.273,473.5C356.273,493.333,356.273,505.667,356.273,511.833L356.273,518"></path><path marker-start="url(#mermaid-diagram-mermaid-i2grbr4_class-compositionStart)" style=";" class="edge-thickness-normal edge-pattern-solid relation" id="id_WorkerPool_Worker_1" d="M309.831,233.706L324.414,241.588C338.997,249.471,368.164,265.235,403.788,285.255C439.413,305.275,481.495,329.549,502.537,341.686L523.578,353.824"></path><path marker-end="url(#mermaid-diagram-mermaid-i2grbr4_class-dependencyEnd)" style=";" class="edge-thickness-normal edge-pattern-solid relation" id="id_WorkerPool_TaskQueue_2" d="M167.449,244L165.585,250.167C163.721,256.333,159.993,268.667,158.129,291.5C156.266,314.333,156.266,347.667,156.266,381C156.266,414.333,156.266,447.667,173.629,474.056C190.992,500.446,225.718,519.892,243.081,529.615L260.445,539.338"></path><path marker-end="url(#mermaid-diagram-mermaid-i2grbr4_class-dependencyEnd)" style=";" class="edge-thickness-normal edge-pattern-solid relation" id="id_Worker_TaskQueue_3" d="M570.691,444L570.691,450.167C570.691,456.333,570.691,468.667,550.94,485.15C531.189,501.634,491.687,522.267,471.936,532.584L452.185,542.901"></path><path marker-start="url(#mermaid-diagram-mermaid-i2grbr4_class-compositionStart)" style=";" class="edge-thickness-normal edge-pattern-solid relation" id="id_TaskQueue_Task_4" d="M356.273,686L356.273,689.167C356.273,692.333,356.273,698.667,356.273,708C356.273,717.333,356.273,729.667,356.273,735.833L356.273,742"></path></g><g class="edgeLabels"><g class="edgeLabel"><g transform="translate(0, 0)" class="label"><foreignObject height="0" width="0"><div class="labelBkg" xmlns="http://www.w3.org/1999/xhtml" style="display: table-cell; white-space: nowrap; line-height: 1.5; max-width: 200px; text-align: center;"><span class="edgeLabel" style=";"></span></div></foreignObject></g></g><g class="edgeLabel"><g transform="translate(0, 0)" class="label"><foreignObject height="0" width="0"><div class="labelBkg" xmlns="http://www.w3.org/1999/xhtml" style="display: table-cell; white-space: nowrap; line-height: 1.5; max-width: 200px; text-align: center;"><span class="edgeLabel" style=";"></span></div></foreignObject></g></g><g class="edgeLabel"><g transform="translate(0, 0)" class="label"><foreignObject height="0" width="0"><div class="labelBkg" xmlns="http://www.w3.org/1999/xhtml" style="display: table-cell; white-space: nowrap; line-height: 1.5; max-width: 200px; text-align: center;"><span class="edgeLabel" style=";"></span></div></foreignObject></g></g><g transform="translate(397.330078125, 281)" class="edgeLabel"><g transform="translate(-47.703125, -12)" class="label"><foreignObject height="24" width="95.40625"><div class="labelBkg" xmlns="http://www.w3.org/1999/xhtml" style="display: table-cell; white-space: nowrap; line-height: 1.5; max-width: 200px; text-align: center;"><span class="edgeLabel" style=";display: inline-block"><p>管理（组合）</p></span></div></foreignObject></g></g><g transform="translate(156.265625, 381)" class="edgeLabel"><g transform="translate(-47.703125, -12)" class="label"><foreignObject height="24" width="95.40625"><div class="labelBkg" xmlns="http://www.w3.org/1999/xhtml" style="display: table-cell; white-space: nowrap; line-height: 1.5; max-width: 200px; text-align: center;"><span class="edgeLabel" style=";display: inline-block"><p>使用（关联）</p></span></div></foreignObject></g></g><g transform="translate(570.69140625, 481)" class="edgeLabel"><g transform="translate(-47.703125, -12)" class="label"><foreignObject height="24" width="95.40625"><div class="labelBkg" xmlns="http://www.w3.org/1999/xhtml" style="display: table-cell; white-space: nowrap; line-height: 1.5; max-width: 200px; text-align: center;"><span class="edgeLabel" style=";display: inline-block"><p>消费（关联）</p></span></div></foreignObject></g></g><g transform="translate(356.2734375, 705)" class="edgeLabel"><g transform="translate(-47.703125, -12)" class="label"><foreignObject height="24" width="95.40625"><div class="labelBkg" xmlns="http://www.w3.org/1999/xhtml" style="display: table-cell; white-space: nowrap; line-height: 1.5; max-width: 200px; text-align: center;"><span class="edgeLabel" style=";display: inline-block"><p>缓冲（组合）</p></span></div></foreignObject></g></g><g transform="translate(302.2587595427904, 246.6641967125692)" class="edgeTerminals"><g transform="translate(0, 0)" class="inner"><foreignObject style="width: 9px; height: 12px;"><div xmlns="http://www.w3.org/1999/xhtml" style="display: inline-block; padding-right: 1px; white-space: nowrap;"><span style=";display: inline-block" class="edgeLabel">1</span></div></foreignObject></g></g><g transform="translate(148.02714738537765, 256.4117743031734)" class="edgeTerminals"><g transform="translate(0, 0)" class="inner"><foreignObject style="width: 9px; height: 12px;"><div xmlns="http://www.w3.org/1999/xhtml" style="display: inline-block; padding-right: 1px; white-space: nowrap;"><span style=";display: inline-block" class="edgeLabel">1</span></div></foreignObject></g></g><g transform="translate(555.6914081250001, 461.50000160714285)" class="edgeTerminals"><g transform="translate(0, 0)" class="inner"><foreignObject style="width: 9px; height: 12px;"><div xmlns="http://www.w3.org/1999/xhtml" style="display: inline-block; padding-right: 1px; white-space: nowrap;"><span style=";display: inline-block" class="edgeLabel">1</span></div></foreignObject></g></g><g transform="translate(341.27343875, 685.5000010714285)" class="edgeTerminals"><g transform="translate(0, 0)" class="inner"><foreignObject style="width: 9px; height: 12px;"><div xmlns="http://www.w3.org/1999/xhtml" style="display: inline-block; padding-right: 1px; white-space: nowrap;"><span style=";display: inline-block" class="edgeLabel">1</span></div></foreignObject></g></g><g transform="translate(510.91419771418043, 327.0862582330311)" class="edgeTerminals"><g transform="translate(0, 0)" class="inner"></g><foreignObject style="width: 45px; height: 12px;"><div xmlns="http://www.w3.org/1999/xhtml" style="display: inline-block; padding-right: 1px; white-space: nowrap;"><span style=";display: inline-block" class="edgeLabel">fixed</span></div></foreignObject></g><g transform="translate(252.73952168930606, 515.6314637405505)" class="edgeTerminals"><g transform="translate(0, 0)" class="inner"></g><foreignObject style="width: 9px; height: 12px;"><div xmlns="http://www.w3.org/1999/xhtml" style="display: inline-block; padding-right: 1px; white-space: nowrap;"><span style=";display: inline-block" class="edgeLabel">1</span></div></foreignObject></g><g transform="translate(464.3233823323472, 545.872062908889)" class="edgeTerminals"><g transform="translate(0, 0)" class="inner"></g><foreignObject style="width: 9px; height: 12px;"><div xmlns="http://www.w3.org/1999/xhtml" style="display: inline-block; padding-right: 1px; white-space: nowrap;"><span style=";display: inline-block" class="edgeLabel">1</span></div></foreignObject></g><g transform="translate(366.2734387499999, 719.5000010714285)" class="edgeTerminals"><g transform="translate(0, 0)" class="inner"></g><foreignObject style="width: 36px; height: 12px;"><div xmlns="http://www.w3.org/1999/xhtml" style="display: inline-block; padding-right: 1px; white-space: nowrap;"><span style=";display: inline-block" class="edgeLabel">0..*</span></div></foreignObject></g></g><g class="nodes"><g transform="translate(190.1171875, 169)" id="classId-WorkerPool-180" class="node default"><g class="basic label-container"><path style="" fill="#eee" stroke-width="0" stroke="none" d="M-103.87890625 -75 L103.87890625 -75 L103.87890625 75 L-103.87890625 75"></path><path style="" fill="none" stroke-width="1.3" stroke="#999" d="M-103.87890625 -75 C-30.112506175103377 -75, 43.653893899793246 -75, 103.87890625 -75 M-103.87890625 -75 C-39.59824687368673 -75, 24.682412502626534 -75, 103.87890625 -75 M103.87890625 -75 C103.87890625 -39.82957123774655, 103.87890625 -4.659142475493098, 103.87890625 75 M103.87890625 -75 C103.87890625 -30.821617774758998, 103.87890625 13.356764450482004, 103.87890625 75 M103.87890625 75 C56.044069696535495 75, 8.209233143070989 75, -103.87890625 75 M103.87890625 75 C29.432002074619305 75, -45.01490210076139 75, -103.87890625 75 M-103.87890625 75 C-103.87890625 42.27164313567035, -103.87890625 9.543286271340705, -103.87890625 -75 M-103.87890625 75 C-103.87890625 26.075940783926477, -103.87890625 -22.848118432147047, -103.87890625 -75"></path></g><g transform="translate(0, -51)" class="annotation-group text"></g><g transform="translate(-42.5078125, -51)" class="label-group text"><g transform="translate(0,-12)" style="font-weight: bolder" class="label"><foreignObject height="24" width="85.015625"><div xmlns="http://www.w3.org/1999/xhtml" style="display: table-cell; white-space: nowrap; line-height: 1.5; max-width: 137px; text-align: center;"><span style="" class="nodeLabel markdown-node-label"><p>WorkerPool</p></span></div></foreignObject></g></g><g transform="translate(-91.87890625, -3)" class="members-group text"></g><g transform="translate(-91.87890625, 27)" class="methods-group text"><g transform="translate(0,-12)" style="" class="label"><foreignObject height="24" width="141.25"><div xmlns="http://www.w3.org/1999/xhtml" style="display: table-cell; white-space: nowrap; line-height: 1.5; max-width: 205px; text-align: center;"><span style="" class="nodeLabel markdown-node-label"><p>+submit(task : Task)</p></span></div></foreignObject></g><g transform="translate(0,12)" style="" class="label"><foreignObject height="24" width="87.5"><div xmlns="http://www.w3.org/1999/xhtml" style="display: table-cell; white-space: nowrap; line-height: 1.5; max-width: 151px; text-align: center;"><span style="" class="nodeLabel markdown-node-label"><p>+shutdown()</p></span></div></foreignObject></g></g><g style="" class="divider"><path style="" fill="none" stroke-width="1.3" stroke="#999" d="M-103.87890625 -27 C-48.32037862570863 -27, 7.238148998582744 -27, 103.87890625 -27 M-103.87890625 -27 C-60.469531439269986 -27, -17.06015662853997 -27, 103.87890625 -27"></path></g><g style="" class="divider"><path style="" fill="none" stroke-width="1.3" stroke="#999" d="M-103.87890625 -3 C-24.517313279624204 -3, 54.84427969075159 -3, 103.87890625 -3 M-103.87890625 -3 C-55.491377724682906 -3, -7.103849199365811 -3, 103.87890625 -3"></path></g></g><g transform="translate(570.69140625, 381)" id="classId-Worker-181" class="node default"><g class="basic label-container"><path style="" fill="#eee" stroke-width="0" stroke="none" d="M-47.11328125 -63 L47.11328125 -63 L47.11328125 63 L-47.11328125 63"></path><path style="" fill="none" stroke-width="1.3" stroke="#999" d="M-47.11328125 -63 C-25.879959259192336 -63, -4.646637268384673 -63, 47.11328125 -63 M-47.11328125 -63 C-22.971977311038273 -63, 1.1693266279234535 -63, 47.11328125 -63 M47.11328125 -63 C47.11328125 -26.694436821317225, 47.11328125 9.61112635736555, 47.11328125 63 M47.11328125 -63 C47.11328125 -32.88680491353125, 47.11328125 -2.7736098270625007, 47.11328125 63 M47.11328125 63 C23.390682251348288 63, -0.33191674730342413 63, -47.11328125 63 M47.11328125 63 C12.70720505376218 63, -21.69887114247564 63, -47.11328125 63 M-47.11328125 63 C-47.11328125 12.7123358217382, -47.11328125 -37.5753283565236, -47.11328125 -63 M-47.11328125 63 C-47.11328125 31.81867173296683, -47.11328125 0.637343465933661, -47.11328125 -63"></path></g><g transform="translate(0, -39)" class="annotation-group text"></g><g transform="translate(-26.9765625, -39)" class="label-group text"><g transform="translate(0,-12)" style="font-weight: bolder" class="label"><foreignObject height="24" width="53.953125"><div xmlns="http://www.w3.org/1999/xhtml" style="display: table-cell; white-space: nowrap; line-height: 1.5; max-width: 104px; text-align: center;"><span style="" class="nodeLabel markdown-node-label"><p>Worker</p></span></div></foreignObject></g></g><g transform="translate(-35.11328125, 9)" class="members-group text"></g><g transform="translate(-35.11328125, 39)" class="methods-group text"><g transform="translate(0,-12)" style="" class="label"><foreignObject height="24" width="43.25"><div xmlns="http://www.w3.org/1999/xhtml" style="display: table-cell; white-space: nowrap; line-height: 1.5; max-width: 102px; text-align: center;"><span style="" class="nodeLabel markdown-node-label"><p>+run()</p></span></div></foreignObject></g></g><g style="" class="divider"><path style="" fill="none" stroke-width="1.3" stroke="#999" d="M-47.11328125 -15 C-23.8211581704963 -15, -0.5290350909926005 -15, 47.11328125 -15 M-47.11328125 -15 C-24.166578231987835 -15, -1.2198752139756692 -15, 47.11328125 -15"></path></g><g style="" class="divider"><path style="" fill="none" stroke-width="1.3" stroke="#999" d="M-47.11328125 9 C-12.6159972111232 9, 21.8812868277536 9, 47.11328125 9 M-47.11328125 9 C-15.030117506302524 9, 17.053046237394952 9, 47.11328125 9"></path></g></g><g transform="translate(356.2734375, 593)" id="classId-TaskQueue-182" class="node default"><g class="basic label-container"><path style="" fill="#eee" stroke-width="0" stroke="none" d="M-90.59375 -75 L90.59375 -75 L90.59375 75 L-90.59375 75"></path><path style="" fill="none" stroke-width="1.3" stroke="#999" d="M-90.59375 -75 C-39.061602251188326 -75, 12.470545497623348 -75, 90.59375 -75 M-90.59375 -75 C-31.422984965942476 -75, 27.74778006811505 -75, 90.59375 -75 M90.59375 -75 C90.59375 -39.480331695356426, 90.59375 -3.9606633907128526, 90.59375 75 M90.59375 -75 C90.59375 -40.69352848492777, 90.59375 -6.387056969855536, 90.59375 75 M90.59375 75 C40.81795008770597 75, -8.957849824588067 75, -90.59375 75 M90.59375 75 C23.41846068609314 75, -43.75682862781372 75, -90.59375 75 M-90.59375 75 C-90.59375 39.78378630149176, -90.59375 4.5675726029835175, -90.59375 -75 M-90.59375 75 C-90.59375 29.550494828597337, -90.59375 -15.899010342805326, -90.59375 -75"></path></g><g transform="translate(0, -51)" class="annotation-group text"></g><g transform="translate(-39.96875, -51)" class="label-group text"><g transform="translate(0,-12)" style="font-weight: bolder" class="label"><foreignObject height="24" width="79.9375"><div xmlns="http://www.w3.org/1999/xhtml" style="display: table-cell; white-space: nowrap; line-height: 1.5; max-width: 132px; text-align: center;"><span style="" class="nodeLabel markdown-node-label"><p>TaskQueue</p></span></div></foreignObject></g></g><g transform="translate(-78.59375, -3)" class="members-group text"></g><g transform="translate(-78.59375, 27)" class="methods-group text"><g transform="translate(0,-12)" style="" class="label"><foreignObject height="24" width="117.21875"><div xmlns="http://www.w3.org/1999/xhtml" style="display: table-cell; white-space: nowrap; line-height: 1.5; max-width: 179px; text-align: center;"><span style="" class="nodeLabel markdown-node-label"><p>+put(task : Task)</p></span></div></foreignObject></g><g transform="translate(0,12)" style="" class="label"><foreignObject height="24" width="106.265625"><div xmlns="http://www.w3.org/1999/xhtml" style="display: table-cell; white-space: nowrap; line-height: 1.5; max-width: 164px; text-align: center;"><span style="" class="nodeLabel markdown-node-label"><p>+take() : : Task</p></span></div></foreignObject></g></g><g style="" class="divider"><path style="" fill="none" stroke-width="1.3" stroke="#999" d="M-90.59375 -27 C-49.39704653053081 -27, -8.200343061061616 -27, 90.59375 -27 M-90.59375 -27 C-21.349390840639956 -27, 47.89496831872009 -27, 90.59375 -27"></path></g><g style="" class="divider"><path style="" fill="none" stroke-width="1.3" stroke="#999" d="M-90.59375 -3 C-28.00759422372984 -3, 34.57856155254032 -3, 90.59375 -3 M-90.59375 -3 C-32.82392902562748 -3, 24.945891948745043 -3, 90.59375 -3"></path></g></g><g transform="translate(356.2734375, 784)" id="classId-Task-183" class="node default"><g class="basic label-container"><path style="" fill="#eee" stroke-width="0" stroke="none" d="M-27.8984375 -42 L27.8984375 -42 L27.8984375 42 L-27.8984375 42"></path><path style="" fill="none" stroke-width="1.3" stroke="#999" d="M-27.8984375 -42 C-12.473646533594101 -42, 2.951144432811798 -42, 27.8984375 -42 M-27.8984375 -42 C-10.463102820234973 -42, 6.972231859530055 -42, 27.8984375 -42 M27.8984375 -42 C27.8984375 -24.56165145603001, 27.8984375 -7.123302912060019, 27.8984375 42 M27.8984375 -42 C27.8984375 -10.824869343342407, 27.8984375 20.350261313315187, 27.8984375 42 M27.8984375 42 C10.208225051521744 42, -7.481987396956512 42, -27.8984375 42 M27.8984375 42 C8.09415508742254 42, -11.710127325154922 42, -27.8984375 42 M-27.8984375 42 C-27.8984375 8.56016134255654, -27.8984375 -24.87967731488692, -27.8984375 -42 M-27.8984375 42 C-27.8984375 20.790642881539245, -27.8984375 -0.41871423692150955, -27.8984375 -42"></path></g><g transform="translate(0, -18)" class="annotation-group text"></g><g transform="translate(-15.8984375, -18)" class="label-group text"><g transform="translate(0,-12)" style="font-weight: bolder" class="label"><foreignObject height="24" width="31.796875"><div xmlns="http://www.w3.org/1999/xhtml" style="display: table-cell; white-space: nowrap; line-height: 1.5; max-width: 84px; text-align: center;"><span style="" class="nodeLabel markdown-node-label"><p>Task</p></span></div></foreignObject></g></g><g transform="translate(-15.8984375, 30)" class="members-group text"></g><g transform="translate(-15.8984375, 60)" class="methods-group text"></g><g style="" class="divider"><path style="" fill="none" stroke-width="1.3" stroke="#999" d="M-27.8984375 6 C-12.909629117769637 6, 2.079179264460727 6, 27.8984375 6 M-27.8984375 6 C-7.708483464611241 6, 12.481470570777518 6, 27.8984375 6"></path></g><g style="" class="divider"><path style="" fill="none" stroke-width="1.3" stroke="#999" d="M-27.8984375 24 C-6.636413459899909 24, 14.625610580200181 24, 27.8984375 24 M-27.8984375 24 C-13.987923807904359 24, -0.0774101158087177 24, 27.8984375 24"></path></g></g><g transform="translate(190.1171875, 26)" id="note0" class="node undefined"><g class="basic label-container"><path style="fill:#666 !important;stroke:#999 !important" fill="#666" stroke-width="0" stroke="none" d="M-182.1171875 -18 L182.1171875 -18 L182.1171875 18 L-182.1171875 18"></path><path style="fill:#666 !important;stroke:#999 !important" fill="none" stroke-width="1.3" stroke="#999" d="M-182.1171875 -18 C-104.424067369691 -18, -26.730947239382004 -18, 182.1171875 -18 M-182.1171875 -18 C-56.10907516906258 -18, 69.89903716187484 -18, 182.1171875 -18 M182.1171875 -18 C182.1171875 -9.216678246495823, 182.1171875 -0.4333564929916456, 182.1171875 18 M182.1171875 -18 C182.1171875 -5.297226726914127, 182.1171875 7.405546546171745, 182.1171875 18 M182.1171875 18 C61.84219160940289 18, -58.43280428119422 18, -182.1171875 18 M182.1171875 18 C86.06947215197799 18, -9.97824319604402 18, -182.1171875 18 M-182.1171875 18 C-182.1171875 7.166827895180054, -182.1171875 -3.6663442096398917, -182.1171875 -18 M-182.1171875 18 C-182.1171875 7.507567225934606, -182.1171875 -2.984865548130788, -182.1171875 -18"></path></g><g transform="translate(-176.1171875, -12)" style="text-align:left !important;white-space:nowrap !important" class="label"><rect></rect><foreignObject height="24" width="352.234375"><div xmlns="http://www.w3.org/1999/xhtml" style="text-align: center; white-space: break-spaces; display: table; line-height: 1.5; max-width: 200px; width: 200px;"><span class="nodeLabel" style="text-align:left !important;white-space:nowrap !important"><p>工作池负责创建固定数量的Worker并管理任务提交</p></span></div></foreignObject></g></g><g transform="translate(604.54296875, 169)" id="note1" class="node undefined"><g class="basic label-container"><path style="fill:#666 !important;stroke:#999 !important" fill="#666" stroke-width="0" stroke="none" d="M-134.4140625 -18 L134.4140625 -18 L134.4140625 18 L-134.4140625 18"></path><path style="fill:#666 !important;stroke:#999 !important" fill="none" stroke-width="1.3" stroke="#999" d="M-134.4140625 -18 C-65.78550922419845 -18, 2.8430440516031013 -18, 134.4140625 -18 M-134.4140625 -18 C-36.923749091547066 -18, 60.56656431690587 -18, 134.4140625 -18 M134.4140625 -18 C134.4140625 -4.6017206475909145, 134.4140625 8.796558704818171, 134.4140625 18 M134.4140625 -18 C134.4140625 -5.1886661525504, 134.4140625 7.622667694899199, 134.4140625 18 M134.4140625 18 C43.32656860070473 18, -47.760925298590536 18, -134.4140625 18 M134.4140625 18 C74.60849426054409 18, 14.802926021088183 18, -134.4140625 18 M-134.4140625 18 C-134.4140625 4.315271653239506, -134.4140625 -9.369456693520988, -134.4140625 -18 M-134.4140625 18 C-134.4140625 8.961517903760846, -134.4140625 -0.07696419247830733, -134.4140625 -18"></path></g><g transform="translate(-128.4140625, -12)" style="text-align:left !important;white-space:nowrap !important" class="label"><rect></rect><foreignObject height="24" width="256.828125"><div xmlns="http://www.w3.org/1999/xhtml" style="text-align: center; white-space: break-spaces; display: table; line-height: 1.5; max-width: 200px; width: 200px;"><span class="nodeLabel" style="text-align:left !important;white-space:nowrap !important"><p>每个Worker从队列中获取任务并执行</p></span></div></foreignObject></g></g><g transform="translate(356.2734375, 381)" id="note2" class="node undefined"><g class="basic label-container"><path style="fill:#666 !important;stroke:#999 !important" fill="#666" stroke-width="0" stroke="none" d="M-117.3046875 -18 L117.3046875 -18 L117.3046875 18 L-117.3046875 18"></path><path style="fill:#666 !important;stroke:#999 !important" fill="none" stroke-width="1.3" stroke="#999" d="M-117.3046875 -18 C-66.85754135828918 -18, -16.410395216578365 -18, 117.3046875 -18 M-117.3046875 -18 C-59.85463955893573 -18, -2.4045916178714606 -18, 117.3046875 -18 M117.3046875 -18 C117.3046875 -5.066346605019772, 117.3046875 7.867306789960455, 117.3046875 18 M117.3046875 -18 C117.3046875 -8.637352341754278, 117.3046875 0.7252953164914437, 117.3046875 18 M117.3046875 18 C50.37478034020637 18, -16.555126819587258 18, -117.3046875 18 M117.3046875 18 C32.871756919161285 18, -51.56117366167743 18, -117.3046875 18 M-117.3046875 18 C-117.3046875 10.41750217731066, -117.3046875 2.835004354621317, -117.3046875 -18 M-117.3046875 18 C-117.3046875 10.594328561449826, -117.3046875 3.1886571228996523, -117.3046875 -18"></path></g><g transform="translate(-111.3046875, -12)" style="text-align:left !important;white-space:nowrap !important" class="label"><rect></rect><foreignObject height="24" width="222.609375"><div xmlns="http://www.w3.org/1999/xhtml" style="text-align: center; white-space: break-spaces; display: table; line-height: 1.5; max-width: 200px; width: 200px;"><span class="nodeLabel" style="text-align:left !important;white-space:nowrap !important"><p>共享任务队列，提供缓冲与同步</p></span></div></foreignObject></g></g></g></g></g></svg>