<svg aria-roledescription="class" role="graphics-document document" viewBox="0 0 871.52734375 658" style="max-width: 871.52734375px;" class="classDiagram" xmlns:xlink="http://www.w3.org/1999/xlink" xmlns="http://www.w3.org/2000/svg" width="100%" id="mermaid-diagram-mermaid-ezsqyr6"><style>#mermaid-diagram-mermaid-ezsqyr6{font-family:"trebuchet ms",verdana,arial,sans-serif;font-size:16px;fill:#000000;}@keyframes edge-animation-frame{from{stroke-dashoffset:0;}}@keyframes dash{to{stroke-dashoffset:0;}}#mermaid-diagram-mermaid-ezsqyr6 .edge-animation-slow{stroke-dasharray:9,5!important;stroke-dashoffset:900;animation:dash 50s linear infinite;stroke-linecap:round;}#mermaid-diagram-mermaid-ezsqyr6 .edge-animation-fast{stroke-dasharray:9,5!important;stroke-dashoffset:900;animation:dash 20s linear infinite;stroke-linecap:round;}#mermaid-diagram-mermaid-ezsqyr6 .error-icon{fill:#552222;}#mermaid-diagram-mermaid-ezsqyr6 .error-text{fill:#552222;stroke:#552222;}#mermaid-diagram-mermaid-ezsqyr6 .edge-thickness-normal{stroke-width:1px;}#mermaid-diagram-mermaid-ezsqyr6 .edge-thickness-thick{stroke-width:3.5px;}#mermaid-diagram-mermaid-ezsqyr6 .edge-pattern-solid{stroke-dasharray:0;}#mermaid-diagram-mermaid-ezsqyr6 .edge-thickness-invisible{stroke-width:0;fill:none;}#mermaid-diagram-mermaid-ezsqyr6 .edge-pattern-dashed{stroke-dasharray:3;}#mermaid-diagram-mermaid-ezsqyr6 .edge-pattern-dotted{stroke-dasharray:2;}#mermaid-diagram-mermaid-ezsqyr6 .marker{fill:#666;stroke:#666;}#mermaid-diagram-mermaid-ezsqyr6 .marker.cross{stroke:#666;}#mermaid-diagram-mermaid-ezsqyr6 svg{font-family:"trebuchet ms",verdana,arial,sans-serif;font-size:16px;}#mermaid-diagram-mermaid-ezsqyr6 p{margin:0;}#mermaid-diagram-mermaid-ezsqyr6 g.classGroup text{fill:#999;stroke:none;font-family:"trebuchet ms",verdana,arial,sans-serif;font-size:10px;}#mermaid-diagram-mermaid-ezsqyr6 g.classGroup text .title{font-weight:bolder;}#mermaid-diagram-mermaid-ezsqyr6 .nodeLabel,#mermaid-diagram-mermaid-ezsqyr6 .edgeLabel{color:#111111;}#mermaid-diagram-mermaid-ezsqyr6 .edgeLabel .label rect{fill:#eee;}#mermaid-diagram-mermaid-ezsqyr6 .label text{fill:#111111;}#mermaid-diagram-mermaid-ezsqyr6 .labelBkg{background:#eee;}#mermaid-diagram-mermaid-ezsqyr6 .edgeLabel .label span{background:#eee;}#mermaid-diagram-mermaid-ezsqyr6 .classTitle{font-weight:bolder;}#mermaid-diagram-mermaid-ezsqyr6 .node rect,#mermaid-diagram-mermaid-ezsqyr6 .node circle,#mermaid-diagram-mermaid-ezsqyr6 .node ellipse,#mermaid-diagram-mermaid-ezsqyr6 .node polygon,#mermaid-diagram-mermaid-ezsqyr6 .node path{fill:#eee;stroke:#999;stroke-width:1px;}#mermaid-diagram-mermaid-ezsqyr6 .divider{stroke:#999;stroke-width:1;}#mermaid-diagram-mermaid-ezsqyr6 g.clickable{cursor:pointer;}#mermaid-diagram-mermaid-ezsqyr6 g.classGroup rect{fill:#eee;stroke:#999;}#mermaid-diagram-mermaid-ezsqyr6 g.classGroup line{stroke:#999;stroke-width:1;}#mermaid-diagram-mermaid-ezsqyr6 .classLabel .box{stroke:none;stroke-width:0;fill:#eee;opacity:0.5;}#mermaid-diagram-mermaid-ezsqyr6 .classLabel .label{fill:#999;font-size:10px;}#mermaid-diagram-mermaid-ezsqyr6 .relation{stroke:#666;stroke-width:1;fill:none;}#mermaid-diagram-mermaid-ezsqyr6 .dashed-line{stroke-dasharray:3;}#mermaid-diagram-mermaid-ezsqyr6 .dotted-line{stroke-dasharray:1 2;}#mermaid-diagram-mermaid-ezsqyr6 #compositionStart,#mermaid-diagram-mermaid-ezsqyr6 .composition{fill:#666!important;stroke:#666!important;stroke-width:1;}#mermaid-diagram-mermaid-ezsqyr6 #compositionEnd,#mermaid-diagram-mermaid-ezsqyr6 .composition{fill:#666!important;stroke:#666!important;stroke-width:1;}#mermaid-diagram-mermaid-ezsqyr6 #dependencyStart,#mermaid-diagram-mermaid-ezsqyr6 .dependency{fill:#666!important;stroke:#666!important;stroke-width:1;}#mermaid-diagram-mermaid-ezsqyr6 #dependencyStart,#mermaid-diagram-mermaid-ezsqyr6 .dependency{fill:#666!important;stroke:#666!important;stroke-width:1;}#mermaid-diagram-mermaid-ezsqyr6 #extensionStart,#mermaid-diagram-mermaid-ezsqyr6 .extension{fill:transparent!important;stroke:#666!important;stroke-width:1;}#mermaid-diagram-mermaid-ezsqyr6 #extensionEnd,#mermaid-diagram-mermaid-ezsqyr6 .extension{fill:transparent!important;stroke:#666!important;stroke-width:1;}#mermaid-diagram-mermaid-ezsqyr6 #aggregationStart,#mermaid-diagram-mermaid-ezsqyr6 .aggregation{fill:transparent!important;stroke:#666!important;stroke-width:1;}#mermaid-diagram-mermaid-ezsqyr6 #aggregationEnd,#mermaid-diagram-mermaid-ezsqyr6 .aggregation{fill:transparent!important;stroke:#666!important;stroke-width:1;}#mermaid-diagram-mermaid-ezsqyr6 #lollipopStart,#mermaid-diagram-mermaid-ezsqyr6 .lollipop{fill:#eee!important;stroke:#666!important;stroke-width:1;}#mermaid-diagram-mermaid-ezsqyr6 #lollipopEnd,#mermaid-diagram-mermaid-ezsqyr6 .lollipop{fill:#eee!important;stroke:#666!important;stroke-width:1;}#mermaid-diagram-mermaid-ezsqyr6 .edgeTerminals{font-size:11px;line-height:initial;}#mermaid-diagram-mermaid-ezsqyr6 .classTitleText{text-anchor:middle;font-size:18px;fill:#000000;}#mermaid-diagram-mermaid-ezsqyr6 :root{--mermaid-font-family:"trebuchet ms",verdana,arial,sans-serif;}</style><g><defs><marker orient="auto" markerHeight="240" markerWidth="190" refY="7" refX="18" class="marker aggregation class" id="mermaid-diagram-mermaid-ezsqyr6_class-aggregationStart"><path d="M 18,7 L9,13 L1,7 L9,1 Z"></path></marker></defs><defs><marker orient="auto" markerHeight="28" markerWidth="20" refY="7" refX="1" class="marker aggregation class" id="mermaid-diagram-mermaid-ezsqyr6_class-aggregationEnd"><path d="M 18,7 L9,13 L1,7 L9,1 Z"></path></marker></defs><defs><marker orient="auto" markerHeight="240" markerWidth="190" refY="7" refX="18" class="marker extension class" id="mermaid-diagram-mermaid-ezsqyr6_class-extensionStart"><path d="M 1,7 L18,13 V 1 Z"></path></marker></defs><defs><marker orient="auto" markerHeight="28" markerWidth="20" refY="7" refX="1" class="marker extension class" id="mermaid-diagram-mermaid-ezsqyr6_class-extensionEnd"><path d="M 1,1 V 13 L18,7 Z"></path></marker></defs><defs><marker orient="auto" markerHeight="240" markerWidth="190" refY="7" refX="18" class="marker composition class" id="mermaid-diagram-mermaid-ezsqyr6_class-compositionStart"><path d="M 18,7 L9,13 L1,7 L9,1 Z"></path></marker></defs><defs><marker orient="auto" markerHeight="28" markerWidth="20" refY="7" refX="1" class="marker composition class" id="mermaid-diagram-mermaid-ezsqyr6_class-compositionEnd"><path d="M 18,7 L9,13 L1,7 L9,1 Z"></path></marker></defs><defs><marker orient="auto" markerHeight="240" markerWidth="190" refY="7" refX="6" class="marker dependency class" id="mermaid-diagram-mermaid-ezsqyr6_class-dependencyStart"><path d="M 5,7 L9,13 L1,7 L9,1 Z"></path></marker></defs><defs><marker orient="auto" markerHeight="28" markerWidth="20" refY="7" refX="13" class="marker dependency class" id="mermaid-diagram-mermaid-ezsqyr6_class-dependencyEnd"><path d="M 18,7 L9,13 L14,7 L9,1 Z"></path></marker></defs><defs><marker orient="auto" markerHeight="240" markerWidth="190" refY="7" refX="13" class="marker lollipop class" id="mermaid-diagram-mermaid-ezsqyr6_class-lollipopStart"><circle r="6" cy="7" cx="7" fill="transparent" stroke="black"></circle></marker></defs><defs><marker orient="auto" markerHeight="240" markerWidth="190" refY="7" refX="1" class="marker lollipop class" id="mermaid-diagram-mermaid-ezsqyr6_class-lollipopEnd"><circle r="6" cy="7" cx="7" fill="transparent" stroke="black"></circle></marker></defs><g class="root"><g class="clusters"></g><g class="edgePaths"><path style="fill: none;" class="edge-thickness-normal edge-pattern-dotted relation" id="edgeNote1" d="M425.625,68L425.625,76.167C425.625,84.333,425.625,100.667,425.625,113C425.625,125.333,425.625,133.667,425.625,137.833L425.625,142"></path><path style="fill: none;" class="edge-thickness-normal edge-pattern-dotted relation" id="edgeNote2" d="M102.205,223L102.205,236.667C102.205,250.333,102.205,277.667,103.547,297.5C104.89,317.333,107.575,329.667,108.917,335.833L110.259,342"></path><path style="fill: none;" class="edge-thickness-normal edge-pattern-dotted relation" id="edgeNote3" d="M696.424,223L693.092,236.667C689.76,250.333,683.096,277.667,681.541,299.5C679.987,321.333,683.543,337.667,685.32,345.833L687.098,354"></path><path marker-end="url(#mermaid-diagram-mermaid-ezsqyr6_class-dependencyEnd)" style=";" class="edge-thickness-normal edge-pattern-solid relation" id="id_Controller_Model_1" d="M410.265,268L408.762,274.167C407.258,280.333,404.251,292.667,376.964,309.348C349.676,326.028,298.108,347.057,272.324,357.571L246.54,368.085"></path><path marker-end="url(#mermaid-diagram-mermaid-ezsqyr6_class-dependencyEnd)" style=";" class="edge-thickness-normal edge-pattern-solid relation" id="id_Controller_View_2" d="M581.211,253.848L608.365,262.373C635.519,270.899,689.827,287.949,714.183,303.709C738.538,319.468,732.942,333.936,730.144,341.17L727.346,348.404"></path><path marker-start="url(#mermaid-diagram-mermaid-ezsqyr6_class-compositionStart)" style=";" class="edge-thickness-normal edge-pattern-solid relation" id="id_Model_Data_3" d="M126.586,510L126.586,513.167C126.586,516.333,126.586,522.667,148.311,536.628C170.036,550.59,213.486,572.179,235.211,582.974L256.936,593.769"></path><path marker-end="url(#mermaid-diagram-mermaid-ezsqyr6_class-dependencyEnd)" style=";" class="edge-thickness-normal edge-pattern-solid relation" id="id_View_Data_4" d="M700.813,480L700.813,488.167C700.813,496.333,700.813,512.667,637.362,532.905C573.912,553.143,447.012,577.286,383.561,589.358L320.111,601.43"></path></g><g class="edgeLabels"><g class="edgeLabel"><g transform="translate(0, 0)" class="label"><foreignObject height="0" width="0"><div class="labelBkg" xmlns="http://www.w3.org/1999/xhtml" style="display: table-cell; white-space: nowrap; line-height: 1.5; max-width: 200px; text-align: center;"><span class="edgeLabel" style=";"></span></div></foreignObject></g></g><g class="edgeLabel"><g transform="translate(0, 0)" class="label"><foreignObject height="0" width="0"><div class="labelBkg" xmlns="http://www.w3.org/1999/xhtml" style="display: table-cell; white-space: nowrap; line-height: 1.5; max-width: 200px; text-align: center;"><span class="edgeLabel" style=";"></span></div></foreignObject></g></g><g class="edgeLabel"><g transform="translate(0, 0)" class="label"><foreignObject height="0" width="0"><div class="labelBkg" xmlns="http://www.w3.org/1999/xhtml" style="display: table-cell; white-space: nowrap; line-height: 1.5; max-width: 200px; text-align: center;"><span class="edgeLabel" style=";"></span></div></foreignObject></g></g><g transform="translate(401.244140625, 305)" class="edgeLabel"><g transform="translate(-47.703125, -12)" class="label"><foreignObject height="24" width="95.40625"><div class="labelBkg" xmlns="http://www.w3.org/1999/xhtml" style="display: table-cell; white-space: nowrap; line-height: 1.5; max-width: 200px; text-align: center;"><span class="edgeLabel" style=";display: inline-block"><p>操作（关联）</p></span></div></foreignObject></g></g><g transform="translate(744.134765625, 305)" class="edgeLabel"><g transform="translate(-47.703125, -12)" class="label"><foreignObject height="24" width="95.40625"><div class="labelBkg" xmlns="http://www.w3.org/1999/xhtml" style="display: table-cell; white-space: nowrap; line-height: 1.5; max-width: 200px; text-align: center;"><span class="edgeLabel" style=";display: inline-block"><p>更新（关联）</p></span></div></foreignObject></g></g><g transform="translate(126.5859375, 529)" class="edgeLabel"><g transform="translate(-47.703125, -12)" class="label"><foreignObject height="24" width="95.40625"><div class="labelBkg" xmlns="http://www.w3.org/1999/xhtml" style="display: table-cell; white-space: nowrap; line-height: 1.5; max-width: 200px; text-align: center;"><span class="edgeLabel" style=";display: inline-block"><p>持有（组合）</p></span></div></foreignObject></g></g><g transform="translate(700.8125, 529)" class="edgeLabel"><g transform="translate(-47.703125, -12)" class="label"><foreignObject height="24" width="95.40625"><div class="labelBkg" xmlns="http://www.w3.org/1999/xhtml" style="display: table-cell; white-space: nowrap; line-height: 1.5; max-width: 200px; text-align: center;"><span class="edgeLabel" style=";display: inline-block"><p>渲染（关联）</p></span></div></foreignObject></g></g><g transform="translate(391.5467097675508, 281.4489217800173)" class="edgeTerminals"><g transform="translate(0, 0)" class="inner"><foreignObject style="width: 9px; height: 12px;"><div xmlns="http://www.w3.org/1999/xhtml" style="display: inline-block; padding-right: 1px; white-space: nowrap;"><span style=";display: inline-block" class="edgeLabel">1</span></div></foreignObject></g></g><g transform="translate(593.4141886261034, 273.4013695005701)" class="edgeTerminals"><g transform="translate(0, 0)" class="inner"><foreignObject style="width: 9px; height: 12px;"><div xmlns="http://www.w3.org/1999/xhtml" style="display: inline-block; padding-right: 1px; white-space: nowrap;"><span style=";display: inline-block" class="edgeLabel">1</span></div></foreignObject></g></g><g transform="translate(111.58593875000004, 509.5000010714286)" class="edgeTerminals"><g transform="translate(0, 0)" class="inner"><foreignObject style="width: 9px; height: 12px;"><div xmlns="http://www.w3.org/1999/xhtml" style="display: inline-block; padding-right: 1px; white-space: nowrap;"><span style=";display: inline-block" class="edgeLabel">1</span></div></foreignObject></g></g><g transform="translate(685.8125, 497.5)" class="edgeTerminals"><g transform="translate(0, 0)" class="inner"><foreignObject style="width: 9px; height: 12px;"><div xmlns="http://www.w3.org/1999/xhtml" style="display: inline-block; padding-right: 1px; white-space: nowrap;"><span style=";display: inline-block" class="edgeLabel">1</span></div></foreignObject></g></g><g transform="translate(257.85276951598155, 372.6323662466638)" class="edgeTerminals"><g transform="translate(0, 0)" class="inner"></g><foreignObject style="width: 9px; height: 12px;"><div xmlns="http://www.w3.org/1999/xhtml" style="display: inline-block; padding-right: 1px; white-space: nowrap;"><span style=";display: inline-block" class="edgeLabel">1</span></div></foreignObject></g><g transform="translate(740.4844332199639, 338.08983223320166)" class="edgeTerminals"><g transform="translate(0, 0)" class="inner"></g><foreignObject style="width: 9px; height: 12px;"><div xmlns="http://www.w3.org/1999/xhtml" style="display: inline-block; padding-right: 1px; white-space: nowrap;"><span style=";display: inline-block" class="edgeLabel">1</span></div></foreignObject></g><g transform="translate(242.93831516457513, 567.5486098555197)" class="edgeTerminals"><g transform="translate(0, 0)" class="inner"></g><foreignObject style="width: 36px; height: 12px;"><div xmlns="http://www.w3.org/1999/xhtml" style="display: inline-block; padding-right: 1px; white-space: nowrap;"><span style=";display: inline-block" class="edgeLabel">0..*</span></div></foreignObject></g><g transform="translate(329.2119376196049, 609.01595352366)" class="edgeTerminals"><g transform="translate(0, 0)" class="inner"></g><foreignObject style="width: 9px; height: 12px;"><div xmlns="http://www.w3.org/1999/xhtml" style="display: inline-block; padding-right: 1px; white-space: nowrap;"><span style=";display: inline-block" class="edgeLabel">1</span></div></foreignObject></g></g><g class="nodes"><g transform="translate(425.625, 205)" id="classId-Controller-318" class="node default"><g class="basic label-container"><path style="" fill="#eee" stroke-width="0" stroke="none" d="M-155.5859375 -63 L155.5859375 -63 L155.5859375 63 L-155.5859375 63"></path><path style="" fill="none" stroke-width="1.3" stroke="#999" d="M-155.5859375 -63 C-92.1273091400115 -63, -28.66868078002301 -63, 155.5859375 -63 M-155.5859375 -63 C-45.90296173486904 -63, 63.780014030261924 -63, 155.5859375 -63 M155.5859375 -63 C155.5859375 -36.66304372489647, 155.5859375 -10.326087449792936, 155.5859375 63 M155.5859375 -63 C155.5859375 -14.485809503977514, 155.5859375 34.02838099204497, 155.5859375 63 M155.5859375 63 C60.17850382131523 63, -35.228929857369536 63, -155.5859375 63 M155.5859375 63 C40.38817214250841 63, -74.80959321498318 63, -155.5859375 63 M-155.5859375 63 C-155.5859375 25.95324919239772, -155.5859375 -11.09350161520456, -155.5859375 -63 M-155.5859375 63 C-155.5859375 16.406724311358552, -155.5859375 -30.186551377282896, -155.5859375 -63"></path></g><g transform="translate(0, -39)" class="annotation-group text"></g><g transform="translate(-37.5, -39)" class="label-group text"><g transform="translate(0,-12)" style="font-weight: bolder" class="label"><foreignObject height="24" width="75"><div xmlns="http://www.w3.org/1999/xhtml" style="display: table-cell; white-space: nowrap; line-height: 1.5; max-width: 125px; text-align: center;"><span style="" class="nodeLabel markdown-node-label"><p>Controller</p></span></div></foreignObject></g></g><g transform="translate(-143.5859375, 9)" class="members-group text"></g><g transform="translate(-143.5859375, 39)" class="methods-group text"><g transform="translate(0,-12)" style="" class="label"><foreignObject height="24" width="249.671875"><div xmlns="http://www.w3.org/1999/xhtml" style="display: table-cell; white-space: nowrap; line-height: 1.5; max-width: 321px; text-align: center;"><span style="" class="nodeLabel markdown-node-label"><p>+HandleRequest(request : Request)</p></span></div></foreignObject></g></g><g style="" class="divider"><path style="" fill="none" stroke-width="1.3" stroke="#999" d="M-155.5859375 -15 C-33.28866513237011 -15, 89.00860723525977 -15, 155.5859375 -15 M-155.5859375 -15 C-40.569149999501136 -15, 74.44763750099773 -15, 155.5859375 -15"></path></g><g style="" class="divider"><path style="" fill="none" stroke-width="1.3" stroke="#999" d="M-155.5859375 9 C-56.58264862263913 9, 42.42064025472175 9, 155.5859375 9 M-155.5859375 9 C-64.7645658421025 9, 26.056805815795002 9, 155.5859375 9"></path></g></g><g transform="translate(126.5859375, 417)" id="classId-Model-319" class="node default"><g class="basic label-container"><path style="" fill="#eee" stroke-width="0" stroke="none" d="M-114.3984375 -75 L114.3984375 -75 L114.3984375 75 L-114.3984375 75"></path><path style="" fill="none" stroke-width="1.3" stroke="#999" d="M-114.3984375 -75 C-47.04641073006695 -75, 20.305616039866095 -75, 114.3984375 -75 M-114.3984375 -75 C-62.08184993783849 -75, -9.765262375676983 -75, 114.3984375 -75 M114.3984375 -75 C114.3984375 -44.0319678791096, 114.3984375 -13.063935758219195, 114.3984375 75 M114.3984375 -75 C114.3984375 -29.963948707435435, 114.3984375 15.07210258512913, 114.3984375 75 M114.3984375 75 C62.40418496043761 75, 10.409932420875222 75, -114.3984375 75 M114.3984375 75 C45.97444457546031 75, -22.44954834907938 75, -114.3984375 75 M-114.3984375 75 C-114.3984375 29.727982201179017, -114.3984375 -15.544035597641965, -114.3984375 -75 M-114.3984375 75 C-114.3984375 17.78715470039152, -114.3984375 -39.42569059921696, -114.3984375 -75"></path></g><g transform="translate(0, -51)" class="annotation-group text"></g><g transform="translate(-21.84375, -51)" class="label-group text"><g transform="translate(0,-12)" style="font-weight: bolder" class="label"><foreignObject height="24" width="43.6875"><div xmlns="http://www.w3.org/1999/xhtml" style="display: table-cell; white-space: nowrap; line-height: 1.5; max-width: 96px; text-align: center;"><span style="" class="nodeLabel markdown-node-label"><p>Model</p></span></div></foreignObject></g></g><g transform="translate(-102.3984375, -3)" class="members-group text"></g><g transform="translate(-102.3984375, 27)" class="methods-group text"><g transform="translate(0,-12)" style="" class="label"><foreignObject height="24" width="136.28125"><div xmlns="http://www.w3.org/1999/xhtml" style="display: table-cell; white-space: nowrap; line-height: 1.5; max-width: 194px; text-align: center;"><span style="" class="nodeLabel markdown-node-label"><p>+GetData() : : Data</p></span></div></foreignObject></g><g transform="translate(0,12)" style="" class="label"><foreignObject height="24" width="182.953125"><div xmlns="http://www.w3.org/1999/xhtml" style="display: table-cell; white-space: nowrap; line-height: 1.5; max-width: 245px; text-align: center;"><span style="" class="nodeLabel markdown-node-label"><p>+UpdateData(data : Data)</p></span></div></foreignObject></g></g><g style="" class="divider"><path style="" fill="none" stroke-width="1.3" stroke="#999" d="M-114.3984375 -27 C-49.55237006814832 -27, 15.293697363703359 -27, 114.3984375 -27 M-114.3984375 -27 C-45.813629901453 -27, 22.771177697094004 -27, 114.3984375 -27"></path></g><g style="" class="divider"><path style="" fill="none" stroke-width="1.3" stroke="#999" d="M-114.3984375 -3 C-54.01044632321375 -3, 6.377544853572502 -3, 114.3984375 -3 M-114.3984375 -3 C-27.876121671210285 -3, 58.64619415757943 -3, 114.3984375 -3"></path></g></g><g transform="translate(700.8125, 417)" id="classId-View-320" class="node default"><g class="basic label-container"><path style="" fill="#eee" stroke-width="0" stroke="none" d="M-162.71484375 -63 L162.71484375 -63 L162.71484375 63 L-162.71484375 63"></path><path style="" fill="none" stroke-width="1.3" stroke="#999" d="M-162.71484375 -63 C-45.444382645611626 -63, 71.82607845877675 -63, 162.71484375 -63 M-162.71484375 -63 C-33.12616039415573 -63, 96.46252296168853 -63, 162.71484375 -63 M162.71484375 -63 C162.71484375 -32.69996876652179, 162.71484375 -2.399937533043591, 162.71484375 63 M162.71484375 -63 C162.71484375 -28.753356134161486, 162.71484375 5.493287731677029, 162.71484375 63 M162.71484375 63 C78.94603180839054 63, -4.822780133218913 63, -162.71484375 63 M162.71484375 63 C97.0542227506224 63, 31.393601751244802 63, -162.71484375 63 M-162.71484375 63 C-162.71484375 30.492486412583155, -162.71484375 -2.0150271748336905, -162.71484375 -63 M-162.71484375 63 C-162.71484375 37.56446431647565, -162.71484375 12.128928632951293, -162.71484375 -63"></path></g><g transform="translate(0, -39)" class="annotation-group text"></g><g transform="translate(-17.8828125, -39)" class="label-group text"><g transform="translate(0,-12)" style="font-weight: bolder" class="label"><foreignObject height="24" width="35.765625"><div xmlns="http://www.w3.org/1999/xhtml" style="display: table-cell; white-space: nowrap; line-height: 1.5; max-width: 87px; text-align: center;"><span style="" class="nodeLabel markdown-node-label"><p>View</p></span></div></foreignObject></g></g><g transform="translate(-150.71484375, 9)" class="members-group text"></g><g transform="translate(-150.71484375, 39)" class="methods-group text"><g transform="translate(0,-12)" style="" class="label"><foreignObject height="24" width="283.546875"><div xmlns="http://www.w3.org/1999/xhtml" style="display: table-cell; white-space: nowrap; line-height: 1.5; max-width: 351px; text-align: center;"><span style="" class="nodeLabel markdown-node-label"><p>+Render(modelData : Data) : : Response</p></span></div></foreignObject></g></g><g style="" class="divider"><path style="" fill="none" stroke-width="1.3" stroke="#999" d="M-162.71484375 -15 C-68.58644169603352 -15, 25.541960357932965 -15, 162.71484375 -15 M-162.71484375 -15 C-58.57583167747926 -15, 45.563180395041485 -15, 162.71484375 -15"></path></g><g style="" class="divider"><path style="" fill="none" stroke-width="1.3" stroke="#999" d="M-162.71484375 9 C-53.10268482934276 9, 56.50947409131447 9, 162.71484375 9 M-162.71484375 9 C-78.22906859933863 9, 6.256706551322736 9, 162.71484375 9"></path></g></g><g transform="translate(49.75, 50)" id="classId-Request-321" class="node default"><g class="basic label-container"><path style="" fill="#eee" stroke-width="0" stroke="none" d="M-41.75 -42 L41.75 -42 L41.75 42 L-41.75 42"></path><path style="" fill="none" stroke-width="1.3" stroke="#999" d="M-41.75 -42 C-24.487542782675447 -42, -7.225085565350895 -42, 41.75 -42 M-41.75 -42 C-21.67998597738985 -42, -1.6099719547797022 -42, 41.75 -42 M41.75 -42 C41.75 -9.627306432068195, 41.75 22.74538713586361, 41.75 42 M41.75 -42 C41.75 -21.745652536661943, 41.75 -1.4913050733238862, 41.75 42 M41.75 42 C15.414782876753595 42, -10.92043424649281 42, -41.75 42 M41.75 42 C17.037099554136553 42, -7.675800891726894 42, -41.75 42 M-41.75 42 C-41.75 19.19499877902098, -41.75 -3.610002441958038, -41.75 -42 M-41.75 42 C-41.75 13.888177333037529, -41.75 -14.223645333924942, -41.75 -42"></path></g><g transform="translate(0, -18)" class="annotation-group text"></g><g transform="translate(-29.75, -18)" class="label-group text"><g transform="translate(0,-12)" style="font-weight: bolder" class="label"><foreignObject height="24" width="59.5"><div xmlns="http://www.w3.org/1999/xhtml" style="display: table-cell; white-space: nowrap; line-height: 1.5; max-width: 111px; text-align: center;"><span style="" class="nodeLabel markdown-node-label"><p>Request</p></span></div></foreignObject></g></g><g transform="translate(-29.75, 30)" class="members-group text"></g><g transform="translate(-29.75, 60)" class="methods-group text"></g><g style="" class="divider"><path style="" fill="none" stroke-width="1.3" stroke="#999" d="M-41.75 6 C-10.8756227643232 6, 19.9987544713536 6, 41.75 6 M-41.75 6 C-23.729888210872694 6, -5.709776421745389 6, 41.75 6"></path></g><g style="" class="divider"><path style="" fill="none" stroke-width="1.3" stroke="#999" d="M-41.75 24 C-23.20654719713017 24, -4.663094394260341 24, 41.75 24 M-41.75 24 C-10.574451225108309 24, 20.601097549783383 24, 41.75 24"></path></g></g><g transform="translate(187.984375, 50)" id="classId-Response-322" class="node default"><g class="basic label-container"><path style="" fill="#eee" stroke-width="0" stroke="none" d="M-46.484375 -42 L46.484375 -42 L46.484375 42 L-46.484375 42"></path><path style="" fill="none" stroke-width="1.3" stroke="#999" d="M-46.484375 -42 C-20.39306241101571 -42, 5.698250177968582 -42, 46.484375 -42 M-46.484375 -42 C-13.968060951571289 -42, 18.548253096857422 -42, 46.484375 -42 M46.484375 -42 C46.484375 -24.55854205130263, 46.484375 -7.117084102605261, 46.484375 42 M46.484375 -42 C46.484375 -15.853708820617367, 46.484375 10.292582358765266, 46.484375 42 M46.484375 42 C10.318635369637441 42, -25.847104260725118 42, -46.484375 42 M46.484375 42 C26.92974689993718 42, 7.3751187998743575 42, -46.484375 42 M-46.484375 42 C-46.484375 15.906426754461421, -46.484375 -10.187146491077158, -46.484375 -42 M-46.484375 42 C-46.484375 16.20297929356917, -46.484375 -9.594041412861657, -46.484375 -42"></path></g><g transform="translate(0, -18)" class="annotation-group text"></g><g transform="translate(-34.484375, -18)" class="label-group text"><g transform="translate(0,-12)" style="font-weight: bolder" class="label"><foreignObject height="24" width="68.96875"><div xmlns="http://www.w3.org/1999/xhtml" style="display: table-cell; white-space: nowrap; line-height: 1.5; max-width: 123px; text-align: center;"><span style="" class="nodeLabel markdown-node-label"><p>Response</p></span></div></foreignObject></g></g><g transform="translate(-34.484375, 30)" class="members-group text"></g><g transform="translate(-34.484375, 60)" class="methods-group text"></g><g style="" class="divider"><path style="" fill="none" stroke-width="1.3" stroke="#999" d="M-46.484375 6 C-12.052494905533393 6, 22.379385188933213 6, 46.484375 6 M-46.484375 6 C-9.437194317657344 6, 27.609986364685312 6, 46.484375 6"></path></g><g style="" class="divider"><path style="" fill="none" stroke-width="1.3" stroke="#999" d="M-46.484375 24 C-16.456731333793687 24, 13.570912332412625 24, 46.484375 24 M-46.484375 24 C-23.60858241654642 24, -0.7327898330928377 24, 46.484375 24"></path></g></g><g transform="translate(285.576171875, 608)" id="classId-Data-323" class="node default"><g class="basic label-container"><path style="" fill="#eee" stroke-width="0" stroke="none" d="M-28.640625 -42 L28.640625 -42 L28.640625 42 L-28.640625 42"></path><path style="" fill="none" stroke-width="1.3" stroke="#999" d="M-28.640625 -42 C-16.176742988377015 -42, -3.7128609767540333 -42, 28.640625 -42 M-28.640625 -42 C-9.411821274632423 -42, 9.816982450735154 -42, 28.640625 -42 M28.640625 -42 C28.640625 -12.921306832364305, 28.640625 16.15738633527139, 28.640625 42 M28.640625 -42 C28.640625 -20.82420282776786, 28.640625 0.3515943444642815, 28.640625 42 M28.640625 42 C6.030438377588499 42, -16.579748244823 42, -28.640625 42 M28.640625 42 C17.038423555446627 42, 5.4362221108932545 42, -28.640625 42 M-28.640625 42 C-28.640625 19.013326717776767, -28.640625 -3.973346564446466, -28.640625 -42 M-28.640625 42 C-28.640625 24.252077901975014, -28.640625 6.504155803950027, -28.640625 -42"></path></g><g transform="translate(0, -18)" class="annotation-group text"></g><g transform="translate(-16.640625, -18)" class="label-group text"><g transform="translate(0,-12)" style="font-weight: bolder" class="label"><foreignObject height="24" width="33.28125"><div xmlns="http://www.w3.org/1999/xhtml" style="display: table-cell; white-space: nowrap; line-height: 1.5; max-width: 84px; text-align: center;"><span style="" class="nodeLabel markdown-node-label"><p>Data</p></span></div></foreignObject></g></g><g transform="translate(-16.640625, 30)" class="members-group text"></g><g transform="translate(-16.640625, 60)" class="methods-group text"></g><g style="" class="divider"><path style="" fill="none" stroke-width="1.3" stroke="#999" d="M-28.640625 6 C-13.075466238877283 6, 2.4896925222454342 6, 28.640625 6 M-28.640625 6 C-13.700572438984809 6, 1.2394801220303826 6, 28.640625 6"></path></g><g style="" class="divider"><path style="" fill="none" stroke-width="1.3" stroke="#999" d="M-28.640625 24 C-12.41011690653001 24, 3.820391186939979 24, 28.640625 24 M-28.640625 24 C-10.638742122678245 24, 7.36314075464351 24, 28.640625 24"></path></g></g><g transform="translate(425.625, 50)" id="note0" class="node undefined"><g class="basic label-container"><path style="fill:#666 !important;stroke:#999 !important" fill="#666" stroke-width="0" stroke="none" d="M-141.15625 -18 L141.15625 -18 L141.15625 18 L-141.15625 18"></path><path style="fill:#666 !important;stroke:#999 !important" fill="none" stroke-width="1.3" stroke="#999" d="M-141.15625 -18 C-47.94387280852989 -18, 45.26850438294022 -18, 141.15625 -18 M-141.15625 -18 C-82.42107288240209 -18, -23.685895764804158 -18, 141.15625 -18 M141.15625 -18 C141.15625 -6.450836276525264, 141.15625 5.098327446949472, 141.15625 18 M141.15625 -18 C141.15625 -10.270585256266122, 141.15625 -2.5411705125322435, 141.15625 18 M141.15625 18 C82.79243139686182 18, 24.428612793723644 18, -141.15625 18 M141.15625 18 C58.35367455633535 18, -24.4489008873293 18, -141.15625 18 M-141.15625 18 C-141.15625 4.966439392243629, -141.15625 -8.067121215512742, -141.15625 -18 M-141.15625 18 C-141.15625 9.656399249326268, -141.15625 1.312798498652537, -141.15625 -18"></path></g><g transform="translate(-135.15625, -12)" style="text-align:left !important;white-space:nowrap !important" class="label"><rect></rect><foreignObject height="24" width="270.3125"><div xmlns="http://www.w3.org/1999/xhtml" style="text-align: center; white-space: break-spaces; display: table; line-height: 1.5; max-width: 200px; width: 200px;"><span class="nodeLabel" style="text-align:left !important;white-space:nowrap !important"><p>控制器负责接收请求、协调模型与视图</p></span></div></foreignObject></g></g><g transform="translate(102.205078125, 205)" id="note1" class="node undefined"><g class="basic label-container"><path style="fill:#666 !important;stroke:#999 !important" fill="#666" stroke-width="0" stroke="none" d="M-93.453125 -18 L93.453125 -18 L93.453125 18 L-93.453125 18"></path><path style="fill:#666 !important;stroke:#999 !important" fill="none" stroke-width="1.3" stroke="#999" d="M-93.453125 -18 C-46.91642216720029 -18, -0.37971933440057626 -18, 93.453125 -18 M-93.453125 -18 C-30.634547093120275 -18, 32.18403081375945 -18, 93.453125 -18 M93.453125 -18 C93.453125 -8.167118314433809, 93.453125 1.6657633711323818, 93.453125 18 M93.453125 -18 C93.453125 -9.961798192952529, 93.453125 -1.923596385905057, 93.453125 18 M93.453125 18 C48.60685356930187 18, 3.7605821386037377 18, -93.453125 18 M93.453125 18 C35.33759187699997 18, -22.777941246000054 18, -93.453125 18 M-93.453125 18 C-93.453125 6.9051019723883815, -93.453125 -4.189796055223237, -93.453125 -18 M-93.453125 18 C-93.453125 8.254213115447323, -93.453125 -1.4915737691053543, -93.453125 -18"></path></g><g transform="translate(-87.453125, -12)" style="text-align:left !important;white-space:nowrap !important" class="label"><rect></rect><foreignObject height="24" width="174.90625"><div xmlns="http://www.w3.org/1999/xhtml" style="text-align: center; white-space: nowrap; display: table-cell; line-height: 1.5; max-width: 200px;"><span class="nodeLabel" style="text-align:left !important;white-space:nowrap !important"><p>模型负责数据和业务逻辑</p></span></div></foreignObject></g></g><g transform="translate(700.8125, 205)" id="note2" class="node undefined"><g class="basic label-container"><path style="fill:#666 !important;stroke:#999 !important" fill="#666" stroke-width="0" stroke="none" d="M-69.6015625 -18 L69.6015625 -18 L69.6015625 18 L-69.6015625 18"></path><path style="fill:#666 !important;stroke:#999 !important" fill="none" stroke-width="1.3" stroke="#999" d="M-69.6015625 -18 C-35.24796901085253 -18, -0.894375521705058 -18, 69.6015625 -18 M-69.6015625 -18 C-25.38239538535459 -18, 18.836771729290817 -18, 69.6015625 -18 M69.6015625 -18 C69.6015625 -6.079360509170062, 69.6015625 5.841278981659876, 69.6015625 18 M69.6015625 -18 C69.6015625 -4.082482110978338, 69.6015625 9.835035778043324, 69.6015625 18 M69.6015625 18 C38.624493549314266 18, 7.6474245986285325 18, -69.6015625 18 M69.6015625 18 C27.730189279829716 18, -14.141183940340568 18, -69.6015625 18 M-69.6015625 18 C-69.6015625 4.2727848363751875, -69.6015625 -9.454430327249625, -69.6015625 -18 M-69.6015625 18 C-69.6015625 9.101044498059204, -69.6015625 0.20208899611840891, -69.6015625 -18"></path></g><g transform="translate(-63.6015625, -12)" style="text-align:left !important;white-space:nowrap !important" class="label"><rect></rect><foreignObject height="24" width="127.203125"><div xmlns="http://www.w3.org/1999/xhtml" style="text-align: center; white-space: nowrap; display: table-cell; line-height: 1.5; max-width: 200px;"><span class="nodeLabel" style="text-align:left !important;white-space:nowrap !important"><p>视图负责数据呈现</p></span></div></foreignObject></g></g></g></g></g></svg>