<svg aria-roledescription="class" role="graphics-document document" viewBox="0 0 679.6328125 852" style="max-width: 679.6328125px;" class="classDiagram" xmlns:xlink="http://www.w3.org/1999/xlink" xmlns="http://www.w3.org/2000/svg" width="100%" id="mermaid-diagram-mermaid-c4bktwt"><style>#mermaid-diagram-mermaid-c4bktwt{font-family:"trebuchet ms",verdana,arial,sans-serif;font-size:16px;fill:#000000;}@keyframes edge-animation-frame{from{stroke-dashoffset:0;}}@keyframes dash{to{stroke-dashoffset:0;}}#mermaid-diagram-mermaid-c4bktwt .edge-animation-slow{stroke-dasharray:9,5!important;stroke-dashoffset:900;animation:dash 50s linear infinite;stroke-linecap:round;}#mermaid-diagram-mermaid-c4bktwt .edge-animation-fast{stroke-dasharray:9,5!important;stroke-dashoffset:900;animation:dash 20s linear infinite;stroke-linecap:round;}#mermaid-diagram-mermaid-c4bktwt .error-icon{fill:#552222;}#mermaid-diagram-mermaid-c4bktwt .error-text{fill:#552222;stroke:#552222;}#mermaid-diagram-mermaid-c4bktwt .edge-thickness-normal{stroke-width:1px;}#mermaid-diagram-mermaid-c4bktwt .edge-thickness-thick{stroke-width:3.5px;}#mermaid-diagram-mermaid-c4bktwt .edge-pattern-solid{stroke-dasharray:0;}#mermaid-diagram-mermaid-c4bktwt .edge-thickness-invisible{stroke-width:0;fill:none;}#mermaid-diagram-mermaid-c4bktwt .edge-pattern-dashed{stroke-dasharray:3;}#mermaid-diagram-mermaid-c4bktwt .edge-pattern-dotted{stroke-dasharray:2;}#mermaid-diagram-mermaid-c4bktwt .marker{fill:#666;stroke:#666;}#mermaid-diagram-mermaid-c4bktwt .marker.cross{stroke:#666;}#mermaid-diagram-mermaid-c4bktwt svg{font-family:"trebuchet ms",verdana,arial,sans-serif;font-size:16px;}#mermaid-diagram-mermaid-c4bktwt p{margin:0;}#mermaid-diagram-mermaid-c4bktwt g.classGroup text{fill:#999;stroke:none;font-family:"trebuchet ms",verdana,arial,sans-serif;font-size:10px;}#mermaid-diagram-mermaid-c4bktwt g.classGroup text .title{font-weight:bolder;}#mermaid-diagram-mermaid-c4bktwt .nodeLabel,#mermaid-diagram-mermaid-c4bktwt .edgeLabel{color:#111111;}#mermaid-diagram-mermaid-c4bktwt .edgeLabel .label rect{fill:#eee;}#mermaid-diagram-mermaid-c4bktwt .label text{fill:#111111;}#mermaid-diagram-mermaid-c4bktwt .labelBkg{background:#eee;}#mermaid-diagram-mermaid-c4bktwt .edgeLabel .label span{background:#eee;}#mermaid-diagram-mermaid-c4bktwt .classTitle{font-weight:bolder;}#mermaid-diagram-mermaid-c4bktwt .node rect,#mermaid-diagram-mermaid-c4bktwt .node circle,#mermaid-diagram-mermaid-c4bktwt .node ellipse,#mermaid-diagram-mermaid-c4bktwt .node polygon,#mermaid-diagram-mermaid-c4bktwt .node path{fill:#eee;stroke:#999;stroke-width:1px;}#mermaid-diagram-mermaid-c4bktwt .divider{stroke:#999;stroke-width:1;}#mermaid-diagram-mermaid-c4bktwt g.clickable{cursor:pointer;}#mermaid-diagram-mermaid-c4bktwt g.classGroup rect{fill:#eee;stroke:#999;}#mermaid-diagram-mermaid-c4bktwt g.classGroup line{stroke:#999;stroke-width:1;}#mermaid-diagram-mermaid-c4bktwt .classLabel .box{stroke:none;stroke-width:0;fill:#eee;opacity:0.5;}#mermaid-diagram-mermaid-c4bktwt .classLabel .label{fill:#999;font-size:10px;}#mermaid-diagram-mermaid-c4bktwt .relation{stroke:#666;stroke-width:1;fill:none;}#mermaid-diagram-mermaid-c4bktwt .dashed-line{stroke-dasharray:3;}#mermaid-diagram-mermaid-c4bktwt .dotted-line{stroke-dasharray:1 2;}#mermaid-diagram-mermaid-c4bktwt #compositionStart,#mermaid-diagram-mermaid-c4bktwt .composition{fill:#666!important;stroke:#666!important;stroke-width:1;}#mermaid-diagram-mermaid-c4bktwt #compositionEnd,#mermaid-diagram-mermaid-c4bktwt .composition{fill:#666!important;stroke:#666!important;stroke-width:1;}#mermaid-diagram-mermaid-c4bktwt #dependencyStart,#mermaid-diagram-mermaid-c4bktwt .dependency{fill:#666!important;stroke:#666!important;stroke-width:1;}#mermaid-diagram-mermaid-c4bktwt #dependencyStart,#mermaid-diagram-mermaid-c4bktwt .dependency{fill:#666!important;stroke:#666!important;stroke-width:1;}#mermaid-diagram-mermaid-c4bktwt #extensionStart,#mermaid-diagram-mermaid-c4bktwt .extension{fill:transparent!important;stroke:#666!important;stroke-width:1;}#mermaid-diagram-mermaid-c4bktwt #extensionEnd,#mermaid-diagram-mermaid-c4bktwt .extension{fill:transparent!important;stroke:#666!important;stroke-width:1;}#mermaid-diagram-mermaid-c4bktwt #aggregationStart,#mermaid-diagram-mermaid-c4bktwt .aggregation{fill:transparent!important;stroke:#666!important;stroke-width:1;}#mermaid-diagram-mermaid-c4bktwt #aggregationEnd,#mermaid-diagram-mermaid-c4bktwt .aggregation{fill:transparent!important;stroke:#666!important;stroke-width:1;}#mermaid-diagram-mermaid-c4bktwt #lollipopStart,#mermaid-diagram-mermaid-c4bktwt .lollipop{fill:#eee!important;stroke:#666!important;stroke-width:1;}#mermaid-diagram-mermaid-c4bktwt #lollipopEnd,#mermaid-diagram-mermaid-c4bktwt .lollipop{fill:#eee!important;stroke:#666!important;stroke-width:1;}#mermaid-diagram-mermaid-c4bktwt .edgeTerminals{font-size:11px;line-height:initial;}#mermaid-diagram-mermaid-c4bktwt .classTitleText{text-anchor:middle;font-size:18px;fill:#000000;}#mermaid-diagram-mermaid-c4bktwt :root{--mermaid-font-family:"trebuchet ms",verdana,arial,sans-serif;}</style><g><defs><marker orient="auto" markerHeight="240" markerWidth="190" refY="7" refX="18" class="marker aggregation class" id="mermaid-diagram-mermaid-c4bktwt_class-aggregationStart"><path d="M 18,7 L9,13 L1,7 L9,1 Z"></path></marker></defs><defs><marker orient="auto" markerHeight="28" markerWidth="20" refY="7" refX="1" class="marker aggregation class" id="mermaid-diagram-mermaid-c4bktwt_class-aggregationEnd"><path d="M 18,7 L9,13 L1,7 L9,1 Z"></path></marker></defs><defs><marker orient="auto" markerHeight="240" markerWidth="190" refY="7" refX="18" class="marker extension class" id="mermaid-diagram-mermaid-c4bktwt_class-extensionStart"><path d="M 1,7 L18,13 V 1 Z"></path></marker></defs><defs><marker orient="auto" markerHeight="28" markerWidth="20" refY="7" refX="1" class="marker extension class" id="mermaid-diagram-mermaid-c4bktwt_class-extensionEnd"><path d="M 1,1 V 13 L18,7 Z"></path></marker></defs><defs><marker orient="auto" markerHeight="240" markerWidth="190" refY="7" refX="18" class="marker composition class" id="mermaid-diagram-mermaid-c4bktwt_class-compositionStart"><path d="M 18,7 L9,13 L1,7 L9,1 Z"></path></marker></defs><defs><marker orient="auto" markerHeight="28" markerWidth="20" refY="7" refX="1" class="marker composition class" id="mermaid-diagram-mermaid-c4bktwt_class-compositionEnd"><path d="M 18,7 L9,13 L1,7 L9,1 Z"></path></marker></defs><defs><marker orient="auto" markerHeight="240" markerWidth="190" refY="7" refX="6" class="marker dependency class" id="mermaid-diagram-mermaid-c4bktwt_class-dependencyStart"><path d="M 5,7 L9,13 L1,7 L9,1 Z"></path></marker></defs><defs><marker orient="auto" markerHeight="28" markerWidth="20" refY="7" refX="13" class="marker dependency class" id="mermaid-diagram-mermaid-c4bktwt_class-dependencyEnd"><path d="M 18,7 L9,13 L14,7 L9,1 Z"></path></marker></defs><defs><marker orient="auto" markerHeight="240" markerWidth="190" refY="7" refX="13" class="marker lollipop class" id="mermaid-diagram-mermaid-c4bktwt_class-lollipopStart"><circle r="6" cy="7" cx="7" fill="transparent" stroke="black"></circle></marker></defs><defs><marker orient="auto" markerHeight="240" markerWidth="190" refY="7" refX="1" class="marker lollipop class" id="mermaid-diagram-mermaid-c4bktwt_class-lollipopEnd"><circle r="6" cy="7" cx="7" fill="transparent" stroke="black"></circle></marker></defs><g class="root"><g class="clusters"></g><g class="edgePaths"><path style="fill: none;" class="edge-thickness-normal edge-pattern-dotted relation" id="edgeNote1" d="M306.449,175L306.449,188.667C306.449,202.333,306.449,229.667,309.665,249.5C312.88,269.333,319.311,281.667,322.526,287.833L325.742,294"></path><path style="fill: none;" class="edge-thickness-normal edge-pattern-dotted relation" id="edgeNote2" d="M133.258,387L133.258,402.667C133.258,418.333,133.258,449.667,153.53,475.925C173.802,502.183,214.346,523.367,234.618,533.958L254.891,544.55"></path><path style="fill: none;" class="edge-thickness-normal edge-pattern-dotted relation" id="edgeNote3" d="M562.281,44L562.281,48.167C562.281,52.333,562.281,60.667,562.281,69C562.281,77.333,562.281,85.667,562.281,89.833L562.281,94"></path><path marker-start="url(#mermaid-diagram-mermaid-c4bktwt_class-compositionStart)" style=";" class="edge-thickness-normal edge-pattern-solid relation" id="id_Mutex_SharedResource_1" d="M364.848,462L364.848,465.167C364.848,468.333,364.848,474.667,364.848,484C364.848,493.333,364.848,505.667,364.848,511.833L364.848,518"></path><path marker-end="url(#mermaid-diagram-mermaid-c4bktwt_class-dependencyEnd)" style=";" class="edge-thickness-normal edge-pattern-solid relation" id="id_Client_Mutex_2" d="M518.485,220L514.198,226.167C509.911,232.333,501.338,244.667,485.872,260.621C470.407,276.575,448.05,296.15,436.872,305.937L425.694,315.725"></path><path marker-end="url(#mermaid-diagram-mermaid-c4bktwt_class-dependencyEnd)" style=";" class="edge-thickness-normal edge-pattern-solid relation" id="id_Client_SharedResource_3" d="M583.608,220L585.695,226.167C587.783,232.333,591.958,244.667,594.045,269.5C596.133,294.333,596.133,331.667,596.133,369C596.133,406.333,596.133,443.667,576.798,472.449C557.462,501.231,518.792,521.462,499.456,531.578L480.121,541.693"></path><path marker-start="url(#mermaid-diagram-mermaid-c4bktwt_class-compositionStart)" style=";" class="edge-thickness-normal edge-pattern-solid relation" id="id_SharedResource_Data_4" d="M364.848,704L364.848,707.167C364.848,710.333,364.848,716.667,364.848,726C364.848,735.333,364.848,747.667,364.848,753.833L364.848,760"></path></g><g class="edgeLabels"><g class="edgeLabel"><g transform="translate(0, 0)" class="label"><foreignObject height="0" width="0"><div class="labelBkg" xmlns="http://www.w3.org/1999/xhtml" style="display: table-cell; white-space: nowrap; line-height: 1.5; max-width: 200px; text-align: center;"><span class="edgeLabel" style=";"></span></div></foreignObject></g></g><g class="edgeLabel"><g transform="translate(0, 0)" class="label"><foreignObject height="0" width="0"><div class="labelBkg" xmlns="http://www.w3.org/1999/xhtml" style="display: table-cell; white-space: nowrap; line-height: 1.5; max-width: 200px; text-align: center;"><span class="edgeLabel" style=";"></span></div></foreignObject></g></g><g class="edgeLabel"><g transform="translate(0, 0)" class="label"><foreignObject height="0" width="0"><div class="labelBkg" xmlns="http://www.w3.org/1999/xhtml" style="display: table-cell; white-space: nowrap; line-height: 1.5; max-width: 200px; text-align: center;"><span class="edgeLabel" style=";"></span></div></foreignObject></g></g><g transform="translate(364.84765625, 481)" class="edgeLabel"><g transform="translate(-47.703125, -12)" class="label"><foreignObject height="24" width="95.40625"><div class="labelBkg" xmlns="http://www.w3.org/1999/xhtml" style="display: table-cell; white-space: nowrap; line-height: 1.5; max-width: 200px; text-align: center;"><span class="edgeLabel" style=";display: inline-block"><p>保护（组合）</p></span></div></foreignObject></g></g><g transform="translate(492.763671875, 257)" class="edgeLabel"><g transform="translate(-47.703125, -12)" class="label"><foreignObject height="24" width="95.40625"><div class="labelBkg" xmlns="http://www.w3.org/1999/xhtml" style="display: table-cell; white-space: nowrap; line-height: 1.5; max-width: 200px; text-align: center;"><span class="edgeLabel" style=";display: inline-block"><p>获取（关联）</p></span></div></foreignObject></g></g><g transform="translate(596.1328125, 369)" class="edgeLabel"><g transform="translate(-47.703125, -12)" class="label"><foreignObject height="24" width="95.40625"><div class="labelBkg" xmlns="http://www.w3.org/1999/xhtml" style="display: table-cell; white-space: nowrap; line-height: 1.5; max-width: 200px; text-align: center;"><span class="edgeLabel" style=";display: inline-block"><p>访问（关联）</p></span></div></foreignObject></g></g><g transform="translate(364.84765625, 723)" class="edgeLabel"><g transform="translate(-47.703125, -12)" class="label"><foreignObject height="24" width="95.40625"><div class="labelBkg" xmlns="http://www.w3.org/1999/xhtml" style="display: table-cell; white-space: nowrap; line-height: 1.5; max-width: 200px; text-align: center;"><span class="edgeLabel" style=";display: inline-block"><p>持有（组合）</p></span></div></foreignObject></g></g><g transform="translate(349.8476581250001, 461.50000160714285)" class="edgeTerminals"><g transform="translate(0, 0)" class="inner"><foreignObject style="width: 9px; height: 12px;"><div xmlns="http://www.w3.org/1999/xhtml" style="display: inline-block; padding-right: 1px; white-space: nowrap;"><span style=";display: inline-block" class="edgeLabel">1</span></div></foreignObject></g></g><g transform="translate(496.17983384527554, 225.80703862143469)" class="edgeTerminals"><g transform="translate(0, 0)" class="inner"><foreignObject style="width: 9px; height: 12px;"><div xmlns="http://www.w3.org/1999/xhtml" style="display: inline-block; padding-right: 1px; white-space: nowrap;"><span style=";display: inline-block" class="edgeLabel">1</span></div></foreignObject></g></g><g transform="translate(575.0109663139326, 241.3856379482275)" class="edgeTerminals"><g transform="translate(0, 0)" class="inner"><foreignObject style="width: 9px; height: 12px;"><div xmlns="http://www.w3.org/1999/xhtml" style="display: inline-block; padding-right: 1px; white-space: nowrap;"><span style=";display: inline-block" class="edgeLabel">1</span></div></foreignObject></g></g><g transform="translate(349.8476581250001, 703.5000016071428)" class="edgeTerminals"><g transform="translate(0, 0)" class="inner"><foreignObject style="width: 9px; height: 12px;"><div xmlns="http://www.w3.org/1999/xhtml" style="display: inline-block; padding-right: 1px; white-space: nowrap;"><span style=";display: inline-block" class="edgeLabel">1</span></div></foreignObject></g></g><g transform="translate(374.8476581249999, 495.50000160714285)" class="edgeTerminals"><g transform="translate(0, 0)" class="inner"></g><foreignObject style="width: 9px; height: 12px;"><div xmlns="http://www.w3.org/1999/xhtml" style="display: inline-block; padding-right: 1px; white-space: nowrap;"><span style=";display: inline-block" class="edgeLabel">1</span></div></foreignObject></g><g transform="translate(439.2272706725304, 314.4344309268849)" class="edgeTerminals"><g transform="translate(0, 0)" class="inner"></g><foreignObject style="width: 9px; height: 12px;"><div xmlns="http://www.w3.org/1999/xhtml" style="display: inline-block; padding-right: 1px; white-space: nowrap;"><span style=";display: inline-block" class="edgeLabel">1</span></div></foreignObject></g><g transform="translate(492.2642205866648, 544.6532112180271)" class="edgeTerminals"><g transform="translate(0, 0)" class="inner"></g><foreignObject style="width: 9px; height: 12px;"><div xmlns="http://www.w3.org/1999/xhtml" style="display: inline-block; padding-right: 1px; white-space: nowrap;"><span style=";display: inline-block" class="edgeLabel">1</span></div></foreignObject></g><g transform="translate(374.8476581249999, 737.5000016071428)" class="edgeTerminals"><g transform="translate(0, 0)" class="inner"></g><foreignObject style="width: 36px; height: 12px;"><div xmlns="http://www.w3.org/1999/xhtml" style="display: inline-block; padding-right: 1px; white-space: nowrap;"><span style=";display: inline-block" class="edgeLabel">0..*</span></div></foreignObject></g></g><g class="nodes"><g transform="translate(364.84765625, 369)" id="classId-Mutex-156" class="node default"><g class="basic label-container"><path style="" fill="#eee" stroke-width="0" stroke="none" d="M-56.33203125 -75 L56.33203125 -75 L56.33203125 75 L-56.33203125 75"></path><path style="" fill="none" stroke-width="1.3" stroke="#999" d="M-56.33203125 -75 C-15.934596386424687 -75, 24.462838477150626 -75, 56.33203125 -75 M-56.33203125 -75 C-12.023761187181421 -75, 32.28450887563716 -75, 56.33203125 -75 M56.33203125 -75 C56.33203125 -15.22802555911192, 56.33203125 44.54394888177616, 56.33203125 75 M56.33203125 -75 C56.33203125 -33.123335081070984, 56.33203125 8.753329837858033, 56.33203125 75 M56.33203125 75 C14.908619330457022 75, -26.514792589085957 75, -56.33203125 75 M56.33203125 75 C16.04576988522924 75, -24.240491479541518 75, -56.33203125 75 M-56.33203125 75 C-56.33203125 44.658372716775006, -56.33203125 14.316745433550018, -56.33203125 -75 M-56.33203125 75 C-56.33203125 28.27574752326001, -56.33203125 -18.448504953479983, -56.33203125 -75"></path></g><g transform="translate(0, -51)" class="annotation-group text"></g><g transform="translate(-22.6328125, -51)" class="label-group text"><g transform="translate(0,-12)" style="font-weight: bolder" class="label"><foreignObject height="24" width="45.265625"><div xmlns="http://www.w3.org/1999/xhtml" style="display: table-cell; white-space: nowrap; line-height: 1.5; max-width: 97px; text-align: center;"><span style="" class="nodeLabel markdown-node-label"><p>Mutex</p></span></div></foreignObject></g></g><g transform="translate(-44.33203125, -3)" class="members-group text"></g><g transform="translate(-44.33203125, 27)" class="methods-group text"><g transform="translate(0,-12)" style="" class="label"><foreignObject height="24" width="48.75"><div xmlns="http://www.w3.org/1999/xhtml" style="display: table-cell; white-space: nowrap; line-height: 1.5; max-width: 108px; text-align: center;"><span style="" class="nodeLabel markdown-node-label"><p>+lock()</p></span></div></foreignObject></g><g transform="translate(0,12)" style="" class="label"><foreignObject height="24" width="66.03125"><div xmlns="http://www.w3.org/1999/xhtml" style="display: table-cell; white-space: nowrap; line-height: 1.5; max-width: 127px; text-align: center;"><span style="" class="nodeLabel markdown-node-label"><p>+unlock()</p></span></div></foreignObject></g></g><g style="" class="divider"><path style="" fill="none" stroke-width="1.3" stroke="#999" d="M-56.33203125 -27 C-31.816655459655642 -27, -7.301279669311285 -27, 56.33203125 -27 M-56.33203125 -27 C-11.36577164199668 -27, 33.60048796600664 -27, 56.33203125 -27"></path></g><g style="" class="divider"><path style="" fill="none" stroke-width="1.3" stroke="#999" d="M-56.33203125 -3 C-27.175363123258098 -3, 1.9813050034838042 -3, 56.33203125 -3 M-56.33203125 -3 C-14.441470659219462 -3, 27.449089931561076 -3, 56.33203125 -3"></path></g></g><g transform="translate(364.84765625, 602)" id="classId-SharedResource-157" class="node default"><g class="basic label-container"><path style="" fill="#eee" stroke-width="0" stroke="none" d="M-109.95703125 -84 L109.95703125 -84 L109.95703125 84 L-109.95703125 84"></path><path style="" fill="none" stroke-width="1.3" stroke="#999" d="M-109.95703125 -84 C-42.159948933729126 -84, 25.637133382541748 -84, 109.95703125 -84 M-109.95703125 -84 C-29.64432445526039 -84, 50.66838233947922 -84, 109.95703125 -84 M109.95703125 -84 C109.95703125 -32.41346064271678, 109.95703125 19.173078714566444, 109.95703125 84 M109.95703125 -84 C109.95703125 -26.81674910440929, 109.95703125 30.36650179118142, 109.95703125 84 M109.95703125 84 C43.295005007594895 84, -23.36702123481021 84, -109.95703125 84 M109.95703125 84 C22.36328164555742 84, -65.23046795888516 84, -109.95703125 84 M-109.95703125 84 C-109.95703125 42.67459872187741, -109.95703125 1.349197443754818, -109.95703125 -84 M-109.95703125 84 C-109.95703125 47.72206919911488, -109.95703125 11.444138398229754, -109.95703125 -84"></path></g><g transform="translate(0, -60)" class="annotation-group text"></g><g transform="translate(-59.3515625, -60)" class="label-group text"><g transform="translate(0,-12)" style="font-weight: bolder" class="label"><foreignObject height="24" width="118.703125"><div xmlns="http://www.w3.org/1999/xhtml" style="display: table-cell; white-space: nowrap; line-height: 1.5; max-width: 172px; text-align: center;"><span style="" class="nodeLabel markdown-node-label"><p>SharedResource</p></span></div></foreignObject></g></g><g transform="translate(-97.95703125, -12)" class="members-group text"><g transform="translate(0,-12)" style="" class="label"><foreignObject height="24" width="37.453125"><div xmlns="http://www.w3.org/1999/xhtml" style="display: table-cell; white-space: nowrap; line-height: 1.5; max-width: 97px; text-align: center;"><span style="" class="nodeLabel markdown-node-label"><p>-data</p></span></div></foreignObject></g></g><g transform="translate(-97.95703125, 36)" class="methods-group text"><g transform="translate(0,-12)" style="" class="label"><foreignObject height="24" width="110"><div xmlns="http://www.w3.org/1999/xhtml" style="display: table-cell; white-space: nowrap; line-height: 1.5; max-width: 166px; text-align: center;"><span style="" class="nodeLabel markdown-node-label"><p>+read() : : Data</p></span></div></foreignObject></g><g transform="translate(0,12)" style="" class="label"><foreignObject height="24" width="136.5625"><div xmlns="http://www.w3.org/1999/xhtml" style="display: table-cell; white-space: nowrap; line-height: 1.5; max-width: 194px; text-align: center;"><span style="" class="nodeLabel markdown-node-label"><p>+write(data : Data)</p></span></div></foreignObject></g></g><g style="" class="divider"><path style="" fill="none" stroke-width="1.3" stroke="#999" d="M-109.95703125 -36 C-26.54000512262229 -36, 56.87702100475542 -36, 109.95703125 -36 M-109.95703125 -36 C-58.7875322173487 -36, -7.618033184697396 -36, 109.95703125 -36"></path></g><g style="" class="divider"><path style="" fill="none" stroke-width="1.3" stroke="#999" d="M-109.95703125 12 C-58.908072284334665 12, -7.85911331866933 12, 109.95703125 12 M-109.95703125 12 C-62.7458882444248 12, -15.534745238849595 12, 109.95703125 12"></path></g></g><g transform="translate(562.28125, 157)" id="classId-Client-158" class="node default"><g class="basic label-container"><path style="" fill="#eee" stroke-width="0" stroke="none" d="M-87.13671875 -63 L87.13671875 -63 L87.13671875 63 L-87.13671875 63"></path><path style="" fill="none" stroke-width="1.3" stroke="#999" d="M-87.13671875 -63 C-33.6345786379456 -63, 19.867561474108797 -63, 87.13671875 -63 M-87.13671875 -63 C-40.59278204024101 -63, 5.951154669517976 -63, 87.13671875 -63 M87.13671875 -63 C87.13671875 -36.03518817571209, 87.13671875 -9.070376351424194, 87.13671875 63 M87.13671875 -63 C87.13671875 -36.092981319954525, 87.13671875 -9.18596263990905, 87.13671875 63 M87.13671875 63 C41.1682440730696 63, -4.800230603860797 63, -87.13671875 63 M87.13671875 63 C45.96245850121018 63, 4.788198252420358 63, -87.13671875 63 M-87.13671875 63 C-87.13671875 16.560350566207973, -87.13671875 -29.879298867584055, -87.13671875 -63 M-87.13671875 63 C-87.13671875 19.739779128023464, -87.13671875 -23.52044174395307, -87.13671875 -63"></path></g><g transform="translate(0, -39)" class="annotation-group text"></g><g transform="translate(-21.8359375, -39)" class="label-group text"><g transform="translate(0,-12)" style="font-weight: bolder" class="label"><foreignObject height="24" width="43.671875"><div xmlns="http://www.w3.org/1999/xhtml" style="display: table-cell; white-space: nowrap; line-height: 1.5; max-width: 94px; text-align: center;"><span style="" class="nodeLabel markdown-node-label"><p>Client</p></span></div></foreignObject></g></g><g transform="translate(-75.13671875, 9)" class="members-group text"></g><g transform="translate(-75.13671875, 39)" class="methods-group text"><g transform="translate(0,-12)" style="" class="label"><foreignObject height="24" width="128.4375"><div xmlns="http://www.w3.org/1999/xhtml" style="display: table-cell; white-space: nowrap; line-height: 1.5; max-width: 199px; text-align: center;"><span style="" class="nodeLabel markdown-node-label"><p>+accessResource()</p></span></div></foreignObject></g></g><g style="" class="divider"><path style="" fill="none" stroke-width="1.3" stroke="#999" d="M-87.13671875 -15 C-21.81857292372959 -15, 43.49957290254082 -15, 87.13671875 -15 M-87.13671875 -15 C-27.713792481003864 -15, 31.709133787992272 -15, 87.13671875 -15"></path></g><g style="" class="divider"><path style="" fill="none" stroke-width="1.3" stroke="#999" d="M-87.13671875 9 C-46.35983087446239 9, -5.5829429989247785 9, 87.13671875 9 M-87.13671875 9 C-34.23396784482257 9, 18.668783060354855 9, 87.13671875 9"></path></g></g><g transform="translate(364.84765625, 802)" id="classId-Data-159" class="node default"><g class="basic label-container"><path style="" fill="#eee" stroke-width="0" stroke="none" d="M-28.640625 -42 L28.640625 -42 L28.640625 42 L-28.640625 42"></path><path style="" fill="none" stroke-width="1.3" stroke="#999" d="M-28.640625 -42 C-14.646418658084281 -42, -0.652212316168562 -42, 28.640625 -42 M-28.640625 -42 C-12.228396825702099 -42, 4.1838313485958025 -42, 28.640625 -42 M28.640625 -42 C28.640625 -14.819426937035953, 28.640625 12.361146125928094, 28.640625 42 M28.640625 -42 C28.640625 -21.59090492521074, 28.640625 -1.1818098504214802, 28.640625 42 M28.640625 42 C16.803910022168044 42, 4.967195044336087 42, -28.640625 42 M28.640625 42 C17.043375535907806 42, 5.446126071815609 42, -28.640625 42 M-28.640625 42 C-28.640625 19.488005780265432, -28.640625 -3.023988439469136, -28.640625 -42 M-28.640625 42 C-28.640625 13.46442604622657, -28.640625 -15.071147907546859, -28.640625 -42"></path></g><g transform="translate(0, -18)" class="annotation-group text"></g><g transform="translate(-16.640625, -18)" class="label-group text"><g transform="translate(0,-12)" style="font-weight: bolder" class="label"><foreignObject height="24" width="33.28125"><div xmlns="http://www.w3.org/1999/xhtml" style="display: table-cell; white-space: nowrap; line-height: 1.5; max-width: 84px; text-align: center;"><span style="" class="nodeLabel markdown-node-label"><p>Data</p></span></div></foreignObject></g></g><g transform="translate(-16.640625, 30)" class="members-group text"></g><g transform="translate(-16.640625, 60)" class="methods-group text"></g><g style="" class="divider"><path style="" fill="none" stroke-width="1.3" stroke="#999" d="M-28.640625 6 C-12.023077278512137 6, 4.594470442975727 6, 28.640625 6 M-28.640625 6 C-13.137814107298603 6, 2.364996785402795 6, 28.640625 6"></path></g><g style="" class="divider"><path style="" fill="none" stroke-width="1.3" stroke="#999" d="M-28.640625 24 C-12.272074190279621 24, 4.096476619440757 24, 28.640625 24 M-28.640625 24 C-15.321601425356901 24, -2.002577850713802 24, 28.640625 24"></path></g></g><g transform="translate(306.44921875, 157)" id="note0" class="node undefined"><g class="basic label-container"><path style="fill:#666 !important;stroke:#999 !important" fill="#666" stroke-width="0" stroke="none" d="M-118.6953125 -18 L118.6953125 -18 L118.6953125 18 L-118.6953125 18"></path><path style="fill:#666 !important;stroke:#999 !important" fill="none" stroke-width="1.3" stroke="#999" d="M-118.6953125 -18 C-45.577536814385596 -18, 27.54023887122881 -18, 118.6953125 -18 M-118.6953125 -18 C-31.51960059987745 -18, 55.6561113002451 -18, 118.6953125 -18 M118.6953125 -18 C118.6953125 -5.779211020006251, 118.6953125 6.441577959987498, 118.6953125 18 M118.6953125 -18 C118.6953125 -8.72858693985562, 118.6953125 0.5428261202887583, 118.6953125 18 M118.6953125 18 C69.94222639723804 18, 21.189140294476076 18, -118.6953125 18 M118.6953125 18 C69.32081819329738 18, 19.946323886594783 18, -118.6953125 18 M-118.6953125 18 C-118.6953125 8.501307316302322, -118.6953125 -0.9973853673953563, -118.6953125 -18 M-118.6953125 18 C-118.6953125 10.376954935417302, -118.6953125 2.753909870834603, -118.6953125 -18"></path></g><g transform="translate(-112.6953125, -12)" style="text-align:left !important;white-space:nowrap !important" class="label"><rect></rect><foreignObject height="24" width="225.390625"><div xmlns="http://www.w3.org/1999/xhtml" style="text-align: center; white-space: break-spaces; display: table; line-height: 1.5; max-width: 200px; width: 200px;"><span class="nodeLabel" style="text-align:left !important;white-space:nowrap !important"><p>互斥锁提供lock()和unlock()接口</p></span></div></foreignObject></g></g><g transform="translate(133.2578125, 369)" id="note1" class="node undefined"><g class="basic label-container"><path style="fill:#666 !important;stroke:#999 !important" fill="#666" stroke-width="0" stroke="none" d="M-125.2578125 -18 L125.2578125 -18 L125.2578125 18 L-125.2578125 18"></path><path style="fill:#666 !important;stroke:#999 !important" fill="none" stroke-width="1.3" stroke="#999" d="M-125.2578125 -18 C-64.80222495976949 -18, -4.346637419538993 -18, 125.2578125 -18 M-125.2578125 -18 C-46.62826755572429 -18, 32.001277388551415 -18, 125.2578125 -18 M125.2578125 -18 C125.2578125 -6.579510210449733, 125.2578125 4.840979579100534, 125.2578125 18 M125.2578125 -18 C125.2578125 -4.8968725797591475, 125.2578125 8.206254840481705, 125.2578125 18 M125.2578125 18 C48.2755633195642 18, -28.706685860871602 18, -125.2578125 18 M125.2578125 18 C43.15153196623946 18, -38.95474856752108 18, -125.2578125 18 M-125.2578125 18 C-125.2578125 7.339131542190254, -125.2578125 -3.3217369156194927, -125.2578125 -18 M-125.2578125 18 C-125.2578125 7.582687687385263, -125.2578125 -2.8346246252294733, -125.2578125 -18"></path></g><g transform="translate(-119.2578125, -12)" style="text-align:left !important;white-space:nowrap !important" class="label"><rect></rect><foreignObject height="24" width="238.515625"><div xmlns="http://www.w3.org/1999/xhtml" style="text-align: center; white-space: break-spaces; display: table; line-height: 1.5; max-width: 200px; width: 200px;"><span class="nodeLabel" style="text-align:left !important;white-space:nowrap !important"><p>被保护的共享资源，包含业务数据</p></span></div></foreignObject></g></g><g transform="translate(562.28125, 26)" id="note2" class="node undefined"><g class="basic label-container"><path style="fill:#666 !important;stroke:#999 !important" fill="#666" stroke-width="0" stroke="none" d="M-109.3515625 -18 L109.3515625 -18 L109.3515625 18 L-109.3515625 18"></path><path style="fill:#666 !important;stroke:#999 !important" fill="none" stroke-width="1.3" stroke="#999" d="M-109.3515625 -18 C-56.48394775293702 -18, -3.61633300587404 -18, 109.3515625 -18 M-109.3515625 -18 C-38.13350432042222 -18, 33.08455385915556 -18, 109.3515625 -18 M109.3515625 -18 C109.3515625 -7.602633933165006, 109.3515625 2.7947321336699886, 109.3515625 18 M109.3515625 -18 C109.3515625 -4.614532807530159, 109.3515625 8.770934384939682, 109.3515625 18 M109.3515625 18 C45.21370036308329 18, -18.92416177383342 18, -109.3515625 18 M109.3515625 18 C58.57185058778071 18, 7.792138675561418 18, -109.3515625 18 M-109.3515625 18 C-109.3515625 9.955272478559467, -109.3515625 1.9105449571189332, -109.3515625 -18 M-109.3515625 18 C-109.3515625 6.608629252957293, -109.3515625 -4.782741494085414, -109.3515625 -18"></path></g><g transform="translate(-103.3515625, -12)" style="text-align:left !important;white-space:nowrap !important" class="label"><rect></rect><foreignObject height="24" width="206.703125"><div xmlns="http://www.w3.org/1999/xhtml" style="text-align: center; white-space: break-spaces; display: table; line-height: 1.5; max-width: 200px; width: 200px;"><span class="nodeLabel" style="text-align:left !important;white-space:nowrap !important"><p>任意需要访问资源的执行单元</p></span></div></foreignObject></g></g></g></g></g></svg>