<svg aria-roledescription="class" role="graphics-document document" viewBox="0 0 1076.61328125 658" style="max-width: 1076.61328125px;" class="classDiagram" xmlns:xlink="http://www.w3.org/1999/xlink" xmlns="http://www.w3.org/2000/svg" width="100%" id="mermaid-diagram-mermaid-nr3n4r1"><style>#mermaid-diagram-mermaid-nr3n4r1{font-family:"trebuchet ms",verdana,arial,sans-serif;font-size:16px;fill:#000000;}@keyframes edge-animation-frame{from{stroke-dashoffset:0;}}@keyframes dash{to{stroke-dashoffset:0;}}#mermaid-diagram-mermaid-nr3n4r1 .edge-animation-slow{stroke-dasharray:9,5!important;stroke-dashoffset:900;animation:dash 50s linear infinite;stroke-linecap:round;}#mermaid-diagram-mermaid-nr3n4r1 .edge-animation-fast{stroke-dasharray:9,5!important;stroke-dashoffset:900;animation:dash 20s linear infinite;stroke-linecap:round;}#mermaid-diagram-mermaid-nr3n4r1 .error-icon{fill:#552222;}#mermaid-diagram-mermaid-nr3n4r1 .error-text{fill:#552222;stroke:#552222;}#mermaid-diagram-mermaid-nr3n4r1 .edge-thickness-normal{stroke-width:1px;}#mermaid-diagram-mermaid-nr3n4r1 .edge-thickness-thick{stroke-width:3.5px;}#mermaid-diagram-mermaid-nr3n4r1 .edge-pattern-solid{stroke-dasharray:0;}#mermaid-diagram-mermaid-nr3n4r1 .edge-thickness-invisible{stroke-width:0;fill:none;}#mermaid-diagram-mermaid-nr3n4r1 .edge-pattern-dashed{stroke-dasharray:3;}#mermaid-diagram-mermaid-nr3n4r1 .edge-pattern-dotted{stroke-dasharray:2;}#mermaid-diagram-mermaid-nr3n4r1 .marker{fill:#666;stroke:#666;}#mermaid-diagram-mermaid-nr3n4r1 .marker.cross{stroke:#666;}#mermaid-diagram-mermaid-nr3n4r1 svg{font-family:"trebuchet ms",verdana,arial,sans-serif;font-size:16px;}#mermaid-diagram-mermaid-nr3n4r1 p{margin:0;}#mermaid-diagram-mermaid-nr3n4r1 g.classGroup text{fill:#999;stroke:none;font-family:"trebuchet ms",verdana,arial,sans-serif;font-size:10px;}#mermaid-diagram-mermaid-nr3n4r1 g.classGroup text .title{font-weight:bolder;}#mermaid-diagram-mermaid-nr3n4r1 .nodeLabel,#mermaid-diagram-mermaid-nr3n4r1 .edgeLabel{color:#111111;}#mermaid-diagram-mermaid-nr3n4r1 .edgeLabel .label rect{fill:#eee;}#mermaid-diagram-mermaid-nr3n4r1 .label text{fill:#111111;}#mermaid-diagram-mermaid-nr3n4r1 .labelBkg{background:#eee;}#mermaid-diagram-mermaid-nr3n4r1 .edgeLabel .label span{background:#eee;}#mermaid-diagram-mermaid-nr3n4r1 .classTitle{font-weight:bolder;}#mermaid-diagram-mermaid-nr3n4r1 .node rect,#mermaid-diagram-mermaid-nr3n4r1 .node circle,#mermaid-diagram-mermaid-nr3n4r1 .node ellipse,#mermaid-diagram-mermaid-nr3n4r1 .node polygon,#mermaid-diagram-mermaid-nr3n4r1 .node path{fill:#eee;stroke:#999;stroke-width:1px;}#mermaid-diagram-mermaid-nr3n4r1 .divider{stroke:#999;stroke-width:1;}#mermaid-diagram-mermaid-nr3n4r1 g.clickable{cursor:pointer;}#mermaid-diagram-mermaid-nr3n4r1 g.classGroup rect{fill:#eee;stroke:#999;}#mermaid-diagram-mermaid-nr3n4r1 g.classGroup line{stroke:#999;stroke-width:1;}#mermaid-diagram-mermaid-nr3n4r1 .classLabel .box{stroke:none;stroke-width:0;fill:#eee;opacity:0.5;}#mermaid-diagram-mermaid-nr3n4r1 .classLabel .label{fill:#999;font-size:10px;}#mermaid-diagram-mermaid-nr3n4r1 .relation{stroke:#666;stroke-width:1;fill:none;}#mermaid-diagram-mermaid-nr3n4r1 .dashed-line{stroke-dasharray:3;}#mermaid-diagram-mermaid-nr3n4r1 .dotted-line{stroke-dasharray:1 2;}#mermaid-diagram-mermaid-nr3n4r1 #compositionStart,#mermaid-diagram-mermaid-nr3n4r1 .composition{fill:#666!important;stroke:#666!important;stroke-width:1;}#mermaid-diagram-mermaid-nr3n4r1 #compositionEnd,#mermaid-diagram-mermaid-nr3n4r1 .composition{fill:#666!important;stroke:#666!important;stroke-width:1;}#mermaid-diagram-mermaid-nr3n4r1 #dependencyStart,#mermaid-diagram-mermaid-nr3n4r1 .dependency{fill:#666!important;stroke:#666!important;stroke-width:1;}#mermaid-diagram-mermaid-nr3n4r1 #dependencyStart,#mermaid-diagram-mermaid-nr3n4r1 .dependency{fill:#666!important;stroke:#666!important;stroke-width:1;}#mermaid-diagram-mermaid-nr3n4r1 #extensionStart,#mermaid-diagram-mermaid-nr3n4r1 .extension{fill:transparent!important;stroke:#666!important;stroke-width:1;}#mermaid-diagram-mermaid-nr3n4r1 #extensionEnd,#mermaid-diagram-mermaid-nr3n4r1 .extension{fill:transparent!important;stroke:#666!important;stroke-width:1;}#mermaid-diagram-mermaid-nr3n4r1 #aggregationStart,#mermaid-diagram-mermaid-nr3n4r1 .aggregation{fill:transparent!important;stroke:#666!important;stroke-width:1;}#mermaid-diagram-mermaid-nr3n4r1 #aggregationEnd,#mermaid-diagram-mermaid-nr3n4r1 .aggregation{fill:transparent!important;stroke:#666!important;stroke-width:1;}#mermaid-diagram-mermaid-nr3n4r1 #lollipopStart,#mermaid-diagram-mermaid-nr3n4r1 .lollipop{fill:#eee!important;stroke:#666!important;stroke-width:1;}#mermaid-diagram-mermaid-nr3n4r1 #lollipopEnd,#mermaid-diagram-mermaid-nr3n4r1 .lollipop{fill:#eee!important;stroke:#666!important;stroke-width:1;}#mermaid-diagram-mermaid-nr3n4r1 .edgeTerminals{font-size:11px;line-height:initial;}#mermaid-diagram-mermaid-nr3n4r1 .classTitleText{text-anchor:middle;font-size:18px;fill:#000000;}#mermaid-diagram-mermaid-nr3n4r1 :root{--mermaid-font-family:"trebuchet ms",verdana,arial,sans-serif;}</style><g><defs><marker orient="auto" markerHeight="240" markerWidth="190" refY="7" refX="18" class="marker aggregation class" id="mermaid-diagram-mermaid-nr3n4r1_class-aggregationStart"><path d="M 18,7 L9,13 L1,7 L9,1 Z"></path></marker></defs><defs><marker orient="auto" markerHeight="28" markerWidth="20" refY="7" refX="1" class="marker aggregation class" id="mermaid-diagram-mermaid-nr3n4r1_class-aggregationEnd"><path d="M 18,7 L9,13 L1,7 L9,1 Z"></path></marker></defs><defs><marker orient="auto" markerHeight="240" markerWidth="190" refY="7" refX="18" class="marker extension class" id="mermaid-diagram-mermaid-nr3n4r1_class-extensionStart"><path d="M 1,7 L18,13 V 1 Z"></path></marker></defs><defs><marker orient="auto" markerHeight="28" markerWidth="20" refY="7" refX="1" class="marker extension class" id="mermaid-diagram-mermaid-nr3n4r1_class-extensionEnd"><path d="M 1,1 V 13 L18,7 Z"></path></marker></defs><defs><marker orient="auto" markerHeight="240" markerWidth="190" refY="7" refX="18" class="marker composition class" id="mermaid-diagram-mermaid-nr3n4r1_class-compositionStart"><path d="M 18,7 L9,13 L1,7 L9,1 Z"></path></marker></defs><defs><marker orient="auto" markerHeight="28" markerWidth="20" refY="7" refX="1" class="marker composition class" id="mermaid-diagram-mermaid-nr3n4r1_class-compositionEnd"><path d="M 18,7 L9,13 L1,7 L9,1 Z"></path></marker></defs><defs><marker orient="auto" markerHeight="240" markerWidth="190" refY="7" refX="6" class="marker dependency class" id="mermaid-diagram-mermaid-nr3n4r1_class-dependencyStart"><path d="M 5,7 L9,13 L1,7 L9,1 Z"></path></marker></defs><defs><marker orient="auto" markerHeight="28" markerWidth="20" refY="7" refX="13" class="marker dependency class" id="mermaid-diagram-mermaid-nr3n4r1_class-dependencyEnd"><path d="M 18,7 L9,13 L14,7 L9,1 Z"></path></marker></defs><defs><marker orient="auto" markerHeight="240" markerWidth="190" refY="7" refX="13" class="marker lollipop class" id="mermaid-diagram-mermaid-nr3n4r1_class-lollipopStart"><circle r="6" cy="7" cx="7" fill="transparent" stroke="black"></circle></marker></defs><defs><marker orient="auto" markerHeight="240" markerWidth="190" refY="7" refX="1" class="marker lollipop class" id="mermaid-diagram-mermaid-nr3n4r1_class-lollipopEnd"><circle r="6" cy="7" cx="7" fill="transparent" stroke="black"></circle></marker></defs><g class="root"><g class="clusters"></g><g class="edgePaths"><path style="fill: none;" class="edge-thickness-normal edge-pattern-dotted relation" id="edgeNote1" d="M582.652,44L582.652,48.167C582.652,52.333,582.652,60.667,582.652,69C582.652,77.333,582.652,85.667,582.652,89.833L582.652,94"></path><path style="fill: none;" class="edge-thickness-normal edge-pattern-dotted relation" id="edgeNote2" d="M922.051,44L922.051,48.167C922.051,52.333,922.051,60.667,922.051,69C922.051,77.333,922.051,85.667,922.051,89.833L922.051,94"></path><path style="fill: none;" class="edge-thickness-normal edge-pattern-dotted relation" id="edgeNote3" d="M236.602,175L236.602,188.667C236.602,202.333,236.602,229.667,277.277,259.319C317.952,288.971,399.302,320.942,439.977,336.928L480.652,352.913"></path><path marker-end="url(#mermaid-diagram-mermaid-nr3n4r1_class-dependencyEnd)" style=";" class="edge-thickness-normal edge-pattern-solid relation" id="id_Producer_Buffer_1" d="M582.652,220L582.652,226.167C582.652,232.333,582.652,244.667,582.652,256C582.652,267.333,582.652,277.667,582.652,282.833L582.652,288"></path><path marker-end="url(#mermaid-diagram-mermaid-nr3n4r1_class-dependencyEnd)" style=";" class="edge-thickness-normal edge-pattern-solid relation" id="id_Consumer_Buffer_2" d="M922.051,220L922.051,226.167C922.051,232.333,922.051,244.667,883.413,266.316C844.774,287.965,767.498,318.931,728.86,334.413L690.222,349.896"></path><path marker-start="url(#mermaid-diagram-mermaid-nr3n4r1_class-compositionStart)" style=";" class="edge-thickness-normal edge-pattern-solid relation" id="id_Buffer_Item_3" d="M582.652,510L582.652,513.167C582.652,516.333,582.652,522.667,582.652,532C582.652,541.333,582.652,553.667,582.652,559.833L582.652,566"></path></g><g class="edgeLabels"><g class="edgeLabel"><g transform="translate(0, 0)" class="label"><foreignObject height="0" width="0"><div class="labelBkg" xmlns="http://www.w3.org/1999/xhtml" style="display: table-cell; white-space: nowrap; line-height: 1.5; max-width: 200px; text-align: center;"><span class="edgeLabel" style=";"></span></div></foreignObject></g></g><g class="edgeLabel"><g transform="translate(0, 0)" class="label"><foreignObject height="0" width="0"><div class="labelBkg" xmlns="http://www.w3.org/1999/xhtml" style="display: table-cell; white-space: nowrap; line-height: 1.5; max-width: 200px; text-align: center;"><span class="edgeLabel" style=";"></span></div></foreignObject></g></g><g class="edgeLabel"><g transform="translate(0, 0)" class="label"><foreignObject height="0" width="0"><div class="labelBkg" xmlns="http://www.w3.org/1999/xhtml" style="display: table-cell; white-space: nowrap; line-height: 1.5; max-width: 200px; text-align: center;"><span class="edgeLabel" style=";"></span></div></foreignObject></g></g><g transform="translate(582.65234375, 257)" class="edgeLabel"><g transform="translate(-47.703125, -12)" class="label"><foreignObject height="24" width="95.40625"><div class="labelBkg" xmlns="http://www.w3.org/1999/xhtml" style="display: table-cell; white-space: nowrap; line-height: 1.5; max-width: 200px; text-align: center;"><span class="edgeLabel" style=";display: inline-block"><p>使用（关联）</p></span></div></foreignObject></g></g><g transform="translate(922.05078125, 257)" class="edgeLabel"><g transform="translate(-47.703125, -12)" class="label"><foreignObject height="24" width="95.40625"><div class="labelBkg" xmlns="http://www.w3.org/1999/xhtml" style="display: table-cell; white-space: nowrap; line-height: 1.5; max-width: 200px; text-align: center;"><span class="edgeLabel" style=";display: inline-block"><p>使用（关联）</p></span></div></foreignObject></g></g><g transform="translate(582.65234375, 529)" class="edgeLabel"><g transform="translate(-47.703125, -12)" class="label"><foreignObject height="24" width="95.40625"><div class="labelBkg" xmlns="http://www.w3.org/1999/xhtml" style="display: table-cell; white-space: nowrap; line-height: 1.5; max-width: 200px; text-align: center;"><span class="edgeLabel" style=";display: inline-block"><p>包含（组合）</p></span></div></foreignObject></g></g><g transform="translate(567.6523418750002, 237.49999839285712)" class="edgeTerminals"><g transform="translate(0, 0)" class="inner"><foreignObject style="width: 9px; height: 12px;"><div xmlns="http://www.w3.org/1999/xhtml" style="display: inline-block; padding-right: 1px; white-space: nowrap;"><span style=";display: inline-block" class="edgeLabel">1</span></div></foreignObject></g></g><g transform="translate(907.050780625, 237.49999946428574)" class="edgeTerminals"><g transform="translate(0, 0)" class="inner"><foreignObject style="width: 9px; height: 12px;"><div xmlns="http://www.w3.org/1999/xhtml" style="display: inline-block; padding-right: 1px; white-space: nowrap;"><span style=";display: inline-block" class="edgeLabel">1</span></div></foreignObject></g></g><g transform="translate(567.6523418750002, 509.49999839285715)" class="edgeTerminals"><g transform="translate(0, 0)" class="inner"><foreignObject style="width: 9px; height: 12px;"><div xmlns="http://www.w3.org/1999/xhtml" style="display: inline-block; padding-right: 1px; white-space: nowrap;"><span style=";display: inline-block" class="edgeLabel">1</span></div></foreignObject></g></g><g transform="translate(592.6523418749999, 271.49999839285715)" class="edgeTerminals"><g transform="translate(0, 0)" class="inner"></g><foreignObject style="width: 9px; height: 12px;"><div xmlns="http://www.w3.org/1999/xhtml" style="display: inline-block; padding-right: 1px; white-space: nowrap;"><span style=";display: inline-block" class="edgeLabel">1</span></div></foreignObject></g><g transform="translate(701.4760796207471, 354.54216658419915)" class="edgeTerminals"><g transform="translate(0, 0)" class="inner"></g><foreignObject style="width: 9px; height: 12px;"><div xmlns="http://www.w3.org/1999/xhtml" style="display: inline-block; padding-right: 1px; white-space: nowrap;"><span style=";display: inline-block" class="edgeLabel">1</span></div></foreignObject></g><g transform="translate(592.6523418749999, 543.4999983928572)" class="edgeTerminals"><g transform="translate(0, 0)" class="inner"></g><foreignObject style="width: 36px; height: 12px;"><div xmlns="http://www.w3.org/1999/xhtml" style="display: inline-block; padding-right: 1px; white-space: nowrap;"><span style=";display: inline-block" class="edgeLabel">0..*</span></div></foreignObject></g></g><g class="nodes"><g transform="translate(582.65234375, 157)" id="classId-Producer-36" class="node default"><g class="basic label-container"><path style="" fill="#eee" stroke-width="0" stroke="none" d="M-67.44921875 -63 L67.44921875 -63 L67.44921875 63 L-67.44921875 63"></path><path style="" fill="none" stroke-width="1.3" stroke="#999" d="M-67.44921875 -63 C-32.086990267542866 -63, 3.2752382149142676 -63, 67.44921875 -63 M-67.44921875 -63 C-22.787153361649118 -63, 21.874912026701764 -63, 67.44921875 -63 M67.44921875 -63 C67.44921875 -13.571267467055428, 67.44921875 35.857465065889144, 67.44921875 63 M67.44921875 -63 C67.44921875 -25.500237167972735, 67.44921875 11.99952566405453, 67.44921875 63 M67.44921875 63 C13.550913992296145 63, -40.34739076540771 63, -67.44921875 63 M67.44921875 63 C16.996937770262583 63, -33.45534320947483 63, -67.44921875 63 M-67.44921875 63 C-67.44921875 29.207857648700653, -67.44921875 -4.584284702598694, -67.44921875 -63 M-67.44921875 63 C-67.44921875 36.42827575559862, -67.44921875 9.856551511197232, -67.44921875 -63"></path></g><g transform="translate(0, -39)" class="annotation-group text"></g><g transform="translate(-33.7265625, -39)" class="label-group text"><g transform="translate(0,-12)" style="font-weight: bolder" class="label"><foreignObject height="24" width="67.453125"><div xmlns="http://www.w3.org/1999/xhtml" style="display: table-cell; white-space: nowrap; line-height: 1.5; max-width: 118px; text-align: center;"><span style="" class="nodeLabel markdown-node-label"><p>Producer</p></span></div></foreignObject></g></g><g transform="translate(-55.44921875, 9)" class="members-group text"></g><g transform="translate(-55.44921875, 39)" class="methods-group text"><g transform="translate(0,-12)" style="" class="label"><foreignObject height="24" width="77.171875"><div xmlns="http://www.w3.org/1999/xhtml" style="display: table-cell; white-space: nowrap; line-height: 1.5; max-width: 140px; text-align: center;"><span style="" class="nodeLabel markdown-node-label"><p>+produce()</p></span></div></foreignObject></g></g><g style="" class="divider"><path style="" fill="none" stroke-width="1.3" stroke="#999" d="M-67.44921875 -15 C-15.953631481248877 -15, 35.541955787502246 -15, 67.44921875 -15 M-67.44921875 -15 C-40.05112026567707 -15, -12.653021781354141 -15, 67.44921875 -15"></path></g><g style="" class="divider"><path style="" fill="none" stroke-width="1.3" stroke="#999" d="M-67.44921875 9 C-36.617127958825876 9, -5.785037167651758 9, 67.44921875 9 M-67.44921875 9 C-33.11698805230954 9, 1.2152426453809255 9, 67.44921875 9"></path></g></g><g transform="translate(922.05078125, 157)" id="classId-Consumer-37" class="node default"><g class="basic label-container"><path style="" fill="#eee" stroke-width="0" stroke="none" d="M-71.21875 -63 L71.21875 -63 L71.21875 63 L-71.21875 63"></path><path style="" fill="none" stroke-width="1.3" stroke="#999" d="M-71.21875 -63 C-30.435233085173792 -63, 10.348283829652416 -63, 71.21875 -63 M-71.21875 -63 C-29.55394145890726 -63, 12.110867082185479 -63, 71.21875 -63 M71.21875 -63 C71.21875 -24.42421712535956, 71.21875 14.151565749280877, 71.21875 63 M71.21875 -63 C71.21875 -35.24407647113988, 71.21875 -7.488152942279747, 71.21875 63 M71.21875 63 C36.549194743656344 63, 1.8796394873126872 63, -71.21875 63 M71.21875 63 C34.21914282068305 63, -2.780464358633907 63, -71.21875 63 M-71.21875 63 C-71.21875 34.35982594093295, -71.21875 5.7196518818659, -71.21875 -63 M-71.21875 63 C-71.21875 15.283838933568795, -71.21875 -32.43232213286241, -71.21875 -63"></path></g><g transform="translate(0, -39)" class="annotation-group text"></g><g transform="translate(-36.8125, -39)" class="label-group text"><g transform="translate(0,-12)" style="font-weight: bolder" class="label"><foreignObject height="24" width="73.625"><div xmlns="http://www.w3.org/1999/xhtml" style="display: table-cell; white-space: nowrap; line-height: 1.5; max-width: 127px; text-align: center;"><span style="" class="nodeLabel markdown-node-label"><p>Consumer</p></span></div></foreignObject></g></g><g transform="translate(-59.21875, 9)" class="members-group text"></g><g transform="translate(-59.21875, 39)" class="methods-group text"><g transform="translate(0,-12)" style="" class="label"><foreignObject height="24" width="81.625"><div xmlns="http://www.w3.org/1999/xhtml" style="display: table-cell; white-space: nowrap; line-height: 1.5; max-width: 146px; text-align: center;"><span style="" class="nodeLabel markdown-node-label"><p>+consume()</p></span></div></foreignObject></g></g><g style="" class="divider"><path style="" fill="none" stroke-width="1.3" stroke="#999" d="M-71.21875 -15 C-21.23530678806494 -15, 28.748136423870122 -15, 71.21875 -15 M-71.21875 -15 C-23.424401819382865 -15, 24.36994636123427 -15, 71.21875 -15"></path></g><g style="" class="divider"><path style="" fill="none" stroke-width="1.3" stroke="#999" d="M-71.21875 9 C-39.01779418724544 9, -6.816838374490885 9, 71.21875 9 M-71.21875 9 C-42.41191504546797 9, -13.605080090935942 9, 71.21875 9"></path></g></g><g transform="translate(582.65234375, 393)" id="classId-Buffer-38" class="node default"><g class="basic label-container"><path style="" fill="#eee" stroke-width="0" stroke="none" d="M-102 -99 L102 -99 L102 99 L-102 99"></path><path style="" fill="none" stroke-width="1.3" stroke="#999" d="M-102 -99 C-55.66729750241593 -99, -9.334595004831854 -99, 102 -99 M-102 -99 C-22.970522365800647 -99, 56.058955268398705 -99, 102 -99 M102 -99 C102 -23.698896410429867, 102 51.602207179140265, 102 99 M102 -99 C102 -43.8151104123541, 102 11.369779175291796, 102 99 M102 99 C46.88543358102337 99, -8.229132837953259 99, -102 99 M102 99 C55.06234660681871 99, 8.124693213637414 99, -102 99 M-102 99 C-102 20.930317566007133, -102 -57.139364867985734, -102 -99 M-102 99 C-102 22.126746945592217, -102 -54.74650610881557, -102 -99"></path></g><g transform="translate(0, -75)" class="annotation-group text"></g><g transform="translate(-23.125, -75)" class="label-group text"><g transform="translate(0,-12)" style="font-weight: bolder" class="label"><foreignObject height="24" width="46.25"><div xmlns="http://www.w3.org/1999/xhtml" style="display: table-cell; white-space: nowrap; line-height: 1.5; max-width: 96px; text-align: center;"><span style="" class="nodeLabel markdown-node-label"><p>Buffer</p></span></div></foreignObject></g></g><g transform="translate(-90, -27)" class="members-group text"></g><g transform="translate(-90, 3)" class="methods-group text"><g transform="translate(0,-12)" style="" class="label"><foreignObject height="24" width="123.6875"><div xmlns="http://www.w3.org/1999/xhtml" style="display: table-cell; white-space: nowrap; line-height: 1.5; max-width: 180px; text-align: center;"><span style="" class="nodeLabel markdown-node-label"><p>+put(item : Item)</p></span></div></foreignObject></g><g transform="translate(0,12)" style="" class="label"><foreignObject height="24" width="109.109375"><div xmlns="http://www.w3.org/1999/xhtml" style="display: table-cell; white-space: nowrap; line-height: 1.5; max-width: 163px; text-align: center;"><span style="" class="nodeLabel markdown-node-label"><p>+take() : : Item</p></span></div></foreignObject></g><g transform="translate(0,36)" style="" class="label"><foreignObject height="24" width="138.5625"><div xmlns="http://www.w3.org/1999/xhtml" style="display: table-cell; white-space: nowrap; line-height: 1.5; max-width: 196px; text-align: center;"><span style="" class="nodeLabel markdown-node-label"><p>+isFull() : : boolean</p></span></div></foreignObject></g><g transform="translate(0,60)" style="" class="label"><foreignObject height="24" width="156.875"><div xmlns="http://www.w3.org/1999/xhtml" style="display: table-cell; white-space: nowrap; line-height: 1.5; max-width: 217px; text-align: center;"><span style="" class="nodeLabel markdown-node-label"><p>+isEmpty() : : boolean</p></span></div></foreignObject></g></g><g style="" class="divider"><path style="" fill="none" stroke-width="1.3" stroke="#999" d="M-102 -51 C-27.288663583082922 -51, 47.422672833834156 -51, 102 -51 M-102 -51 C-58.34969244231407 -51, -14.699384884628145 -51, 102 -51"></path></g><g style="" class="divider"><path style="" fill="none" stroke-width="1.3" stroke="#999" d="M-102 -27 C-57.654849154409945 -27, -13.30969830881989 -27, 102 -27 M-102 -27 C-25.002388421822204 -27, 51.99522315635559 -27, 102 -27"></path></g></g><g transform="translate(582.65234375, 608)" id="classId-Item-39" class="node default"><g class="basic label-container"><path style="" fill="#eee" stroke-width="0" stroke="none" d="M-28.671875 -42 L28.671875 -42 L28.671875 42 L-28.671875 42"></path><path style="" fill="none" stroke-width="1.3" stroke="#999" d="M-28.671875 -42 C-15.650335788796781 -42, -2.628796577593562 -42, 28.671875 -42 M-28.671875 -42 C-11.359738601193044 -42, 5.952397797613912 -42, 28.671875 -42 M28.671875 -42 C28.671875 -18.658943684123198, 28.671875 4.682112631753604, 28.671875 42 M28.671875 -42 C28.671875 -11.269842664182864, 28.671875 19.460314671634272, 28.671875 42 M28.671875 42 C6.032164410827608 42, -16.607546178344784 42, -28.671875 42 M28.671875 42 C17.121959817879315 42, 5.57204463575863 42, -28.671875 42 M-28.671875 42 C-28.671875 21.74513338214133, -28.671875 1.4902667642826586, -28.671875 -42 M-28.671875 42 C-28.671875 14.634285044880663, -28.671875 -12.731429910238674, -28.671875 -42"></path></g><g transform="translate(0, -18)" class="annotation-group text"></g><g transform="translate(-16.671875, -18)" class="label-group text"><g transform="translate(0,-12)" style="font-weight: bolder" class="label"><foreignObject height="24" width="33.34375"><div xmlns="http://www.w3.org/1999/xhtml" style="display: table-cell; white-space: nowrap; line-height: 1.5; max-width: 84px; text-align: center;"><span style="" class="nodeLabel markdown-node-label"><p>Item</p></span></div></foreignObject></g></g><g transform="translate(-16.671875, 30)" class="members-group text"></g><g transform="translate(-16.671875, 60)" class="methods-group text"></g><g style="" class="divider"><path style="" fill="none" stroke-width="1.3" stroke="#999" d="M-28.671875 6 C-14.641131849092462 6, -0.6103886981849236 6, 28.671875 6 M-28.671875 6 C-7.227647313707337 6, 14.216580372585327 6, 28.671875 6"></path></g><g style="" class="divider"><path style="" fill="none" stroke-width="1.3" stroke="#999" d="M-28.671875 24 C-14.906053633849801 24, -1.1402322676996022 24, 28.671875 24 M-28.671875 24 C-14.096634615459607 24, 0.47860576908078656 24, 28.671875 24"></path></g></g><g transform="translate(582.65234375, 26)" id="note0" class="node undefined"><g class="basic label-container"><path style="fill:#666 !important;stroke:#999 !important" fill="#666" stroke-width="0" stroke="none" d="M-142.8359375 -18 L142.8359375 -18 L142.8359375 18 L-142.8359375 18"></path><path style="fill:#666 !important;stroke:#999 !important" fill="none" stroke-width="1.3" stroke="#999" d="M-142.8359375 -18 C-68.37166224894946 -18, 6.092613002101075 -18, 142.8359375 -18 M-142.8359375 -18 C-61.67068836089561 -18, 19.49456077820878 -18, 142.8359375 -18 M142.8359375 -18 C142.8359375 -7.237146524921938, 142.8359375 3.525706950156124, 142.8359375 18 M142.8359375 -18 C142.8359375 -5.753639586265891, 142.8359375 6.492720827468219, 142.8359375 18 M142.8359375 18 C58.5570800057063 18, -25.721777488587406 18, -142.8359375 18 M142.8359375 18 C79.36230971490669 18, 15.888681929813373 18, -142.8359375 18 M-142.8359375 18 C-142.8359375 3.8247223389590133, -142.8359375 -10.350555322081973, -142.8359375 -18 M-142.8359375 18 C-142.8359375 9.930421193921813, -142.8359375 1.8608423878436255, -142.8359375 -18"></path></g><g transform="translate(-136.8359375, -12)" style="text-align:left !important;white-space:nowrap !important" class="label"><rect></rect><foreignObject height="24" width="273.671875"><div xmlns="http://www.w3.org/1999/xhtml" style="text-align: center; white-space: break-spaces; display: table; line-height: 1.5; max-width: 200px; width: 200px;"><span class="nodeLabel" style="text-align:left !important;white-space:nowrap !important"><p>生产者负责生成数据并调用Buffer.put()</p></span></div></foreignObject></g></g><g transform="translate(922.05078125, 26)" id="note1" class="node undefined"><g class="basic label-container"><path style="fill:#666 !important;stroke:#999 !important" fill="#666" stroke-width="0" stroke="none" d="M-146.5625 -18 L146.5625 -18 L146.5625 18 L-146.5625 18"></path><path style="fill:#666 !important;stroke:#999 !important" fill="none" stroke-width="1.3" stroke="#999" d="M-146.5625 -18 C-33.87140181144463 -18, 78.81969637711074 -18, 146.5625 -18 M-146.5625 -18 C-62.14390238485514 -18, 22.274695230289723 -18, 146.5625 -18 M146.5625 -18 C146.5625 -8.132407528761458, 146.5625 1.7351849424770833, 146.5625 18 M146.5625 -18 C146.5625 -9.342343427536008, 146.5625 -0.684686855072016, 146.5625 18 M146.5625 18 C78.0938471447066 18, 9.625194289413201 18, -146.5625 18 M146.5625 18 C35.909764114882265 18, -74.74297177023547 18, -146.5625 18 M-146.5625 18 C-146.5625 6.573006273547753, -146.5625 -4.853987452904494, -146.5625 -18 M-146.5625 18 C-146.5625 8.685794240683098, -146.5625 -0.6284115186338042, -146.5625 -18"></path></g><g transform="translate(-140.5625, -12)" style="text-align:left !important;white-space:nowrap !important" class="label"><rect></rect><foreignObject height="24" width="281.125"><div xmlns="http://www.w3.org/1999/xhtml" style="text-align: center; white-space: break-spaces; display: table; line-height: 1.5; max-width: 200px; width: 200px;"><span class="nodeLabel" style="text-align:left !important;white-space:nowrap !important"><p>消费者负责调用Buffer.take()并处理数据</p></span></div></foreignObject></g></g><g transform="translate(236.6015625, 157)" id="note2" class="node undefined"><g class="basic label-container"><path style="fill:#666 !important;stroke:#999 !important" fill="#666" stroke-width="0" stroke="none" d="M-228.6015625 -18 L228.6015625 -18 L228.6015625 18 L-228.6015625 18"></path><path style="fill:#666 !important;stroke:#999 !important" fill="none" stroke-width="1.3" stroke="#999" d="M-228.6015625 -18 C-91.08728857824443 -18, 46.42698534351115 -18, 228.6015625 -18 M-228.6015625 -18 C-83.30234050711064 -18, 61.996881485778715 -18, 228.6015625 -18 M228.6015625 -18 C228.6015625 -10.691163133655042, 228.6015625 -3.3823262673100825, 228.6015625 18 M228.6015625 -18 C228.6015625 -8.024175919648929, 228.6015625 1.9516481607021419, 228.6015625 18 M228.6015625 18 C111.10079384869202 18, -6.399974802615958 18, -228.6015625 18 M228.6015625 18 C110.05451421560876 18, -8.492534068782476 18, -228.6015625 18 M-228.6015625 18 C-228.6015625 6.988880800243438, -228.6015625 -4.022238399513125, -228.6015625 -18 M-228.6015625 18 C-228.6015625 4.1316280191824255, -228.6015625 -9.736743961635149, -228.6015625 -18"></path></g><g transform="translate(-222.6015625, -12)" style="text-align:left !important;white-space:nowrap !important" class="label"><rect></rect><foreignObject height="24" width="445.203125"><div xmlns="http://www.w3.org/1999/xhtml" style="text-align: center; white-space: break-spaces; display: table; line-height: 1.5; max-width: 200px; width: 200px;"><span class="nodeLabel" style="text-align:left !important;white-space:nowrap !important"><p>缓冲区负责同步与阻塞逻辑（可实现为队列、固定大小数组等）</p></span></div></foreignObject></g></g></g></g></g></svg>