<svg aria-roledescription="class" role="graphics-document document" viewBox="0 0 1364.7890625 670.47216796875" style="max-width: 1364.7890625px;" class="classDiagram" xmlns:xlink="http://www.w3.org/1999/xlink" xmlns="http://www.w3.org/2000/svg" width="100%" id="mermaid-diagram-mermaid-5sgtwe4"><style>#mermaid-diagram-mermaid-5sgtwe4{font-family:"trebuchet ms",verdana,arial,sans-serif;font-size:16px;fill:#000000;}@keyframes edge-animation-frame{from{stroke-dashoffset:0;}}@keyframes dash{to{stroke-dashoffset:0;}}#mermaid-diagram-mermaid-5sgtwe4 .edge-animation-slow{stroke-dasharray:9,5!important;stroke-dashoffset:900;animation:dash 50s linear infinite;stroke-linecap:round;}#mermaid-diagram-mermaid-5sgtwe4 .edge-animation-fast{stroke-dasharray:9,5!important;stroke-dashoffset:900;animation:dash 20s linear infinite;stroke-linecap:round;}#mermaid-diagram-mermaid-5sgtwe4 .error-icon{fill:#552222;}#mermaid-diagram-mermaid-5sgtwe4 .error-text{fill:#552222;stroke:#552222;}#mermaid-diagram-mermaid-5sgtwe4 .edge-thickness-normal{stroke-width:1px;}#mermaid-diagram-mermaid-5sgtwe4 .edge-thickness-thick{stroke-width:3.5px;}#mermaid-diagram-mermaid-5sgtwe4 .edge-pattern-solid{stroke-dasharray:0;}#mermaid-diagram-mermaid-5sgtwe4 .edge-thickness-invisible{stroke-width:0;fill:none;}#mermaid-diagram-mermaid-5sgtwe4 .edge-pattern-dashed{stroke-dasharray:3;}#mermaid-diagram-mermaid-5sgtwe4 .edge-pattern-dotted{stroke-dasharray:2;}#mermaid-diagram-mermaid-5sgtwe4 .marker{fill:#666;stroke:#666;}#mermaid-diagram-mermaid-5sgtwe4 .marker.cross{stroke:#666;}#mermaid-diagram-mermaid-5sgtwe4 svg{font-family:"trebuchet ms",verdana,arial,sans-serif;font-size:16px;}#mermaid-diagram-mermaid-5sgtwe4 p{margin:0;}#mermaid-diagram-mermaid-5sgtwe4 g.classGroup text{fill:#999;stroke:none;font-family:"trebuchet ms",verdana,arial,sans-serif;font-size:10px;}#mermaid-diagram-mermaid-5sgtwe4 g.classGroup text .title{font-weight:bolder;}#mermaid-diagram-mermaid-5sgtwe4 .nodeLabel,#mermaid-diagram-mermaid-5sgtwe4 .edgeLabel{color:#111111;}#mermaid-diagram-mermaid-5sgtwe4 .edgeLabel .label rect{fill:#eee;}#mermaid-diagram-mermaid-5sgtwe4 .label text{fill:#111111;}#mermaid-diagram-mermaid-5sgtwe4 .labelBkg{background:#eee;}#mermaid-diagram-mermaid-5sgtwe4 .edgeLabel .label span{background:#eee;}#mermaid-diagram-mermaid-5sgtwe4 .classTitle{font-weight:bolder;}#mermaid-diagram-mermaid-5sgtwe4 .node rect,#mermaid-diagram-mermaid-5sgtwe4 .node circle,#mermaid-diagram-mermaid-5sgtwe4 .node ellipse,#mermaid-diagram-mermaid-5sgtwe4 .node polygon,#mermaid-diagram-mermaid-5sgtwe4 .node path{fill:#eee;stroke:#999;stroke-width:1px;}#mermaid-diagram-mermaid-5sgtwe4 .divider{stroke:#999;stroke-width:1;}#mermaid-diagram-mermaid-5sgtwe4 g.clickable{cursor:pointer;}#mermaid-diagram-mermaid-5sgtwe4 g.classGroup rect{fill:#eee;stroke:#999;}#mermaid-diagram-mermaid-5sgtwe4 g.classGroup line{stroke:#999;stroke-width:1;}#mermaid-diagram-mermaid-5sgtwe4 .classLabel .box{stroke:none;stroke-width:0;fill:#eee;opacity:0.5;}#mermaid-diagram-mermaid-5sgtwe4 .classLabel .label{fill:#999;font-size:10px;}#mermaid-diagram-mermaid-5sgtwe4 .relation{stroke:#666;stroke-width:1;fill:none;}#mermaid-diagram-mermaid-5sgtwe4 .dashed-line{stroke-dasharray:3;}#mermaid-diagram-mermaid-5sgtwe4 .dotted-line{stroke-dasharray:1 2;}#mermaid-diagram-mermaid-5sgtwe4 #compositionStart,#mermaid-diagram-mermaid-5sgtwe4 .composition{fill:#666!important;stroke:#666!important;stroke-width:1;}#mermaid-diagram-mermaid-5sgtwe4 #compositionEnd,#mermaid-diagram-mermaid-5sgtwe4 .composition{fill:#666!important;stroke:#666!important;stroke-width:1;}#mermaid-diagram-mermaid-5sgtwe4 #dependencyStart,#mermaid-diagram-mermaid-5sgtwe4 .dependency{fill:#666!important;stroke:#666!important;stroke-width:1;}#mermaid-diagram-mermaid-5sgtwe4 #dependencyStart,#mermaid-diagram-mermaid-5sgtwe4 .dependency{fill:#666!important;stroke:#666!important;stroke-width:1;}#mermaid-diagram-mermaid-5sgtwe4 #extensionStart,#mermaid-diagram-mermaid-5sgtwe4 .extension{fill:transparent!important;stroke:#666!important;stroke-width:1;}#mermaid-diagram-mermaid-5sgtwe4 #extensionEnd,#mermaid-diagram-mermaid-5sgtwe4 .extension{fill:transparent!important;stroke:#666!important;stroke-width:1;}#mermaid-diagram-mermaid-5sgtwe4 #aggregationStart,#mermaid-diagram-mermaid-5sgtwe4 .aggregation{fill:transparent!important;stroke:#666!important;stroke-width:1;}#mermaid-diagram-mermaid-5sgtwe4 #aggregationEnd,#mermaid-diagram-mermaid-5sgtwe4 .aggregation{fill:transparent!important;stroke:#666!important;stroke-width:1;}#mermaid-diagram-mermaid-5sgtwe4 #lollipopStart,#mermaid-diagram-mermaid-5sgtwe4 .lollipop{fill:#eee!important;stroke:#666!important;stroke-width:1;}#mermaid-diagram-mermaid-5sgtwe4 #lollipopEnd,#mermaid-diagram-mermaid-5sgtwe4 .lollipop{fill:#eee!important;stroke:#666!important;stroke-width:1;}#mermaid-diagram-mermaid-5sgtwe4 .edgeTerminals{font-size:11px;line-height:initial;}#mermaid-diagram-mermaid-5sgtwe4 .classTitleText{text-anchor:middle;font-size:18px;fill:#000000;}#mermaid-diagram-mermaid-5sgtwe4 :root{--mermaid-font-family:"trebuchet ms",verdana,arial,sans-serif;}</style><g><defs><marker orient="auto" markerHeight="240" markerWidth="190" refY="7" refX="18" class="marker aggregation class" id="mermaid-diagram-mermaid-5sgtwe4_class-aggregationStart"><path d="M 18,7 L9,13 L1,7 L9,1 Z"></path></marker></defs><defs><marker orient="auto" markerHeight="28" markerWidth="20" refY="7" refX="1" class="marker aggregation class" id="mermaid-diagram-mermaid-5sgtwe4_class-aggregationEnd"><path d="M 18,7 L9,13 L1,7 L9,1 Z"></path></marker></defs><defs><marker orient="auto" markerHeight="240" markerWidth="190" refY="7" refX="18" class="marker extension class" id="mermaid-diagram-mermaid-5sgtwe4_class-extensionStart"><path d="M 1,7 L18,13 V 1 Z"></path></marker></defs><defs><marker orient="auto" markerHeight="28" markerWidth="20" refY="7" refX="1" class="marker extension class" id="mermaid-diagram-mermaid-5sgtwe4_class-extensionEnd"><path d="M 1,1 V 13 L18,7 Z"></path></marker></defs><defs><marker orient="auto" markerHeight="240" markerWidth="190" refY="7" refX="18" class="marker composition class" id="mermaid-diagram-mermaid-5sgtwe4_class-compositionStart"><path d="M 18,7 L9,13 L1,7 L9,1 Z"></path></marker></defs><defs><marker orient="auto" markerHeight="28" markerWidth="20" refY="7" refX="1" class="marker composition class" id="mermaid-diagram-mermaid-5sgtwe4_class-compositionEnd"><path d="M 18,7 L9,13 L1,7 L9,1 Z"></path></marker></defs><defs><marker orient="auto" markerHeight="240" markerWidth="190" refY="7" refX="6" class="marker dependency class" id="mermaid-diagram-mermaid-5sgtwe4_class-dependencyStart"><path d="M 5,7 L9,13 L1,7 L9,1 Z"></path></marker></defs><defs><marker orient="auto" markerHeight="28" markerWidth="20" refY="7" refX="13" class="marker dependency class" id="mermaid-diagram-mermaid-5sgtwe4_class-dependencyEnd"><path d="M 18,7 L9,13 L14,7 L9,1 Z"></path></marker></defs><defs><marker orient="auto" markerHeight="240" markerWidth="190" refY="7" refX="13" class="marker lollipop class" id="mermaid-diagram-mermaid-5sgtwe4_class-lollipopStart"><circle r="6" cy="7" cx="7" fill="transparent" stroke="black"></circle></marker></defs><defs><marker orient="auto" markerHeight="240" markerWidth="190" refY="7" refX="1" class="marker lollipop class" id="mermaid-diagram-mermaid-5sgtwe4_class-lollipopEnd"><circle r="6" cy="7" cx="7" fill="transparent" stroke="black"></circle></marker></defs><g class="root"><g class="clusters"></g><g class="edgePaths"><path style="fill: none;" class="edge-thickness-normal edge-pattern-dotted relation" id="edgeNote1" d="M341.238,44L341.238,48.167C341.238,52.333,341.238,60.667,341.238,69C341.238,77.333,341.238,85.667,341.238,89.833L341.238,94"></path><path style="fill: none;" class="edge-thickness-normal edge-pattern-dotted relation" id="edgeNote2" d="M125.305,175L125.305,188.667C125.305,202.333,125.305,229.667,181.79,255.384C238.276,281.101,351.247,305.202,407.733,317.253L464.219,329.303"></path><path style="fill: none;" class="edge-thickness-normal edge-pattern-dotted relation" id="edgeNote3" d="M594.043,44L594.043,48.167C594.043,52.333,594.043,60.667,594.043,69C594.043,77.333,594.043,85.667,594.043,89.833L594.043,94"></path><path style="fill: none;" class="edge-thickness-normal edge-pattern-dotted relation" id="edgeNote4" d="M910.008,44L910.008,48.167C910.008,52.333,910.008,60.667,910.008,69C910.008,77.333,910.008,85.667,910.008,89.833L910.008,94"></path><path style="fill: none;" class="edge-thickness-normal edge-pattern-dotted relation" id="edgeNote5" d="M1238.703,44L1238.703,48.167C1238.703,52.333,1238.703,60.667,1238.703,69C1238.703,77.333,1238.703,85.667,1238.703,89.833L1238.703,94"></path><path marker-start="url(#mermaid-diagram-mermaid-5sgtwe4_class-compositionStart)" style=";" class="edge-thickness-normal edge-pattern-solid relation" id="id_Pipeline_Filter_1" d="M341.238,238L341.238,241.167C341.238,244.333,341.238,250.667,361.735,261.941C382.232,273.215,423.225,289.431,443.722,297.539L464.219,305.646"></path><path style=";" class="edge-thickness-normal edge-pattern-solid relation" id="Filter-cyclic-special-1" d="M594.999,420L595.092,426.167C595.186,432.333,595.373,444.667,595.467,463.992C595.56,483.317,595.56,509.633,595.56,522.792L595.56,535.95"></path><path style=";" class="edge-thickness-normal edge-pattern-solid relation" id="Filter-cyclic-special-mid" d="M595.56,536.05L595.56,549.208C595.56,562.367,595.56,588.683,601.857,608.009C608.153,627.334,620.746,639.667,627.042,645.834L633.338,652.001"></path><path marker-end="url(#mermaid-diagram-mermaid-5sgtwe4_class-dependencyEnd)" style=";" class="edge-thickness-normal edge-pattern-solid relation" id="Filter-cyclic-special-2" d="M633.438,652.001L639.735,645.834C646.031,639.667,658.624,627.334,664.92,608C671.216,588.667,671.216,562.333,671.216,536C671.216,509.667,671.216,483.333,667.068,464.792C662.92,446.25,654.624,435.5,650.476,430.125L646.328,424.75"></path><path marker-start="url(#mermaid-diagram-mermaid-5sgtwe4_class-compositionStart)" style=";" class="edge-thickness-normal edge-pattern-solid relation" id="id_Filter_Data_3" d="M534.427,434.25L531.5,438.042C528.574,441.833,522.722,449.417,519.796,459.375C516.87,469.333,516.87,481.667,516.87,487.833L516.87,494"></path><path marker-end="url(#mermaid-diagram-mermaid-5sgtwe4_class-extensionEnd)" style=";" class="edge-thickness-normal edge-pattern-solid relation" id="id_SourceFilter_Filter_4" d="M594.043,220L594.043,226.167C594.043,232.333,594.043,244.667,594.043,254C594.043,263.333,594.043,269.667,594.043,272.833L594.043,276"></path><path marker-end="url(#mermaid-diagram-mermaid-5sgtwe4_class-extensionEnd)" style=";" class="edge-thickness-normal edge-pattern-solid relation" id="id_TransformerFilter_Filter_5" d="M910.008,220L910.008,226.167C910.008,232.333,910.008,244.667,881.845,259.747C853.681,274.827,797.355,292.654,769.191,301.567L741.028,310.481"></path><path marker-end="url(#mermaid-diagram-mermaid-5sgtwe4_class-extensionEnd)" style=";" class="edge-thickness-normal edge-pattern-solid relation" id="id_SinkFilter_Filter_6" d="M1238.703,220L1238.703,226.167C1238.703,232.333,1238.703,244.667,1155.862,263.684C1073.02,282.701,907.337,308.402,824.496,321.252L741.654,334.102"></path></g><g class="edgeLabels"><g class="edgeLabel"><g transform="translate(0, 0)" class="label"><foreignObject height="0" width="0"><div class="labelBkg" xmlns="http://www.w3.org/1999/xhtml" style="display: table-cell; white-space: nowrap; line-height: 1.5; max-width: 200px; text-align: center;"><span class="edgeLabel" style=";"></span></div></foreignObject></g></g><g class="edgeLabel"><g transform="translate(0, 0)" class="label"><foreignObject height="0" width="0"><div class="labelBkg" xmlns="http://www.w3.org/1999/xhtml" style="display: table-cell; white-space: nowrap; line-height: 1.5; max-width: 200px; text-align: center;"><span class="edgeLabel" style=";"></span></div></foreignObject></g></g><g class="edgeLabel"><g transform="translate(0, 0)" class="label"><foreignObject height="0" width="0"><div class="labelBkg" xmlns="http://www.w3.org/1999/xhtml" style="display: table-cell; white-space: nowrap; line-height: 1.5; max-width: 200px; text-align: center;"><span class="edgeLabel" style=";"></span></div></foreignObject></g></g><g class="edgeLabel"><g transform="translate(0, 0)" class="label"><foreignObject height="0" width="0"><div class="labelBkg" xmlns="http://www.w3.org/1999/xhtml" style="display: table-cell; white-space: nowrap; line-height: 1.5; max-width: 200px; text-align: center;"><span class="edgeLabel" style=";"></span></div></foreignObject></g></g><g class="edgeLabel"><g transform="translate(0, 0)" class="label"><foreignObject height="0" width="0"><div class="labelBkg" xmlns="http://www.w3.org/1999/xhtml" style="display: table-cell; white-space: nowrap; line-height: 1.5; max-width: 200px; text-align: center;"><span class="edgeLabel" style=";"></span></div></foreignObject></g></g><g transform="translate(341.23828125, 257)" class="edgeLabel"><g transform="translate(-47.703125, -12)" class="label"><foreignObject height="24" width="95.40625"><div class="labelBkg" xmlns="http://www.w3.org/1999/xhtml" style="display: table-cell; white-space: nowrap; line-height: 1.5; max-width: 200px; text-align: center;"><span class="edgeLabel" style=";display: inline-block"><p>包含（组合）</p></span></div></foreignObject></g></g><g class="edgeLabel"><g transform="translate(0, -12)" class="label"><foreignObject height="24" width="0"><div class="labelBkg" xmlns="http://www.w3.org/1999/xhtml" style="display: table-cell; white-space: nowrap; line-height: 1.5; max-width: 200px; text-align: center;"><span class="edgeLabel" style=";display: inline-block"></span></div></foreignObject></g></g><g transform="translate(595.5601562503725, 615)" class="edgeLabel"><g transform="translate(-55.65625, -12)" class="label"><foreignObject height="24" width="111.3125"><div class="labelBkg" xmlns="http://www.w3.org/1999/xhtml" style="display: table-cell; white-space: nowrap; line-height: 1.5; max-width: 200px; text-align: center;"><span class="edgeLabel" style=";display: inline-block"><p>下一个（关联）</p></span></div></foreignObject></g></g><g class="edgeLabel"><g transform="translate(0, -12)" class="label"><foreignObject height="24" width="0"><div class="labelBkg" xmlns="http://www.w3.org/1999/xhtml" style="display: table-cell; white-space: nowrap; line-height: 1.5; max-width: 200px; text-align: center;"><span class="edgeLabel" style=";display: inline-block"></span></div></foreignObject></g></g><g transform="translate(516.8695312496275, 457)" class="edgeLabel"><g transform="translate(-47.703125, -12)" class="label"><foreignObject height="24" width="95.40625"><div class="labelBkg" xmlns="http://www.w3.org/1999/xhtml" style="display: table-cell; white-space: nowrap; line-height: 1.5; max-width: 200px; text-align: center;"><span class="edgeLabel" style=";display: inline-block"><p>处理（组合）</p></span></div></foreignObject></g></g><g class="edgeLabel"><g transform="translate(0, -12)" class="label"><foreignObject height="24" width="0"><div class="labelBkg" xmlns="http://www.w3.org/1999/xhtml" style="display: table-cell; white-space: nowrap; line-height: 1.5; max-width: 200px; text-align: center;"><span class="edgeLabel" style=";display: inline-block"></span></div></foreignObject></g></g><g class="edgeLabel"><g transform="translate(0, -12)" class="label"><foreignObject height="24" width="0"><div class="labelBkg" xmlns="http://www.w3.org/1999/xhtml" style="display: table-cell; white-space: nowrap; line-height: 1.5; max-width: 200px; text-align: center;"><span class="edgeLabel" style=";display: inline-block"></span></div></foreignObject></g></g><g class="edgeLabel"><g transform="translate(0, -12)" class="label"><foreignObject height="24" width="0"><div class="labelBkg" xmlns="http://www.w3.org/1999/xhtml" style="display: table-cell; white-space: nowrap; line-height: 1.5; max-width: 200px; text-align: center;"><span class="edgeLabel" style=";display: inline-block"></span></div></foreignObject></g></g><g transform="translate(326.238280625, 237.4999994642857)" class="edgeTerminals"><g transform="translate(0, 0)" class="inner"><foreignObject style="width: 9px; height: 12px;"><div xmlns="http://www.w3.org/1999/xhtml" style="display: inline-block; padding-right: 1px; white-space: nowrap;"><span style=";display: inline-block" class="edgeLabel">1</span></div></foreignObject></g></g><g transform="translate(580.2659995242385, 437.7255363552102)" class="edgeTerminals"><g transform="translate(0, 0)" class="inner"><foreignObject style="width: 9px; height: 12px;"><div xmlns="http://www.w3.org/1999/xhtml" style="display: inline-block; padding-right: 1px; white-space: nowrap;"><span style=";display: inline-block" class="edgeLabel">1</span></div></foreignObject></g></g><g transform="translate(580.5601581251864, 553.5500016073557)" class="edgeTerminals"><g transform="translate(0, 0)" class="inner"><foreignObject style="width: 9px; height: 12px;"><div xmlns="http://www.w3.org/1999/xhtml" style="display: inline-block; padding-right: 1px; white-space: nowrap;"><span style=";display: inline-block" class="edgeLabel">1</span></div></foreignObject></g></g><g transform="translate(656.4363789097001, 650.4721590918853)" class="edgeTerminals"><g transform="translate(0, 0)" class="inner"><foreignObject style="width: 9px; height: 12px;"><div xmlns="http://www.w3.org/1999/xhtml" style="display: inline-block; padding-right: 1px; white-space: nowrap;"><span style=";display: inline-block" class="edgeLabel">1</span></div></foreignObject></g></g><g transform="translate(522.8570093844323, 424.6898114908751)" class="edgeTerminals"><g transform="translate(0, 0)" class="inner"><foreignObject style="width: 9px; height: 12px;"><div xmlns="http://www.w3.org/1999/xhtml" style="display: inline-block; padding-right: 1px; white-space: nowrap;"><span style=";display: inline-block" class="edgeLabel">1</span></div></foreignObject></g></g><g transform="translate(448.463081679284, 280.26100949030774)" class="edgeTerminals"><g transform="translate(0, 0)" class="inner"></g><foreignObject style="width: 36px; height: 12px;"><div xmlns="http://www.w3.org/1999/xhtml" style="display: inline-block; padding-right: 1px; white-space: nowrap;"><span style=";display: inline-block" class="edgeLabel">1..*</span></div></foreignObject></g><g transform="translate(605.5601581251861, 513.4500016066107)" class="edgeTerminals"><g transform="translate(0, 0)" class="inner"></g><foreignObject style="width: 9px; height: 12px;"><div xmlns="http://www.w3.org/1999/xhtml" style="display: inline-block; padding-right: 1px; white-space: nowrap;"><span style=";display: inline-block" class="edgeLabel">1</span></div></foreignObject></g><g transform="translate(626.3318083731968, 624.0396688840108)" class="edgeTerminals"><g transform="translate(0, 0)" class="inner"></g><foreignObject style="width: 9px; height: 12px;"><div xmlns="http://www.w3.org/1999/xhtml" style="display: inline-block; padding-right: 1px; white-space: nowrap;"><span style=";display: inline-block" class="edgeLabel">1</span></div></foreignObject></g><g transform="translate(636.478975527887, 438.0184691806253)" class="edgeTerminals"><g transform="translate(0, 0)" class="inner"></g><foreignObject style="width: 9px; height: 12px;"><div xmlns="http://www.w3.org/1999/xhtml" style="display: inline-block; padding-right: 1px; white-space: nowrap;"><span style=";display: inline-block" class="edgeLabel">1</span></div></foreignObject></g><g transform="translate(526.8695306248137, 471.4999994644454)" class="edgeTerminals"><g transform="translate(0, 0)" class="inner"></g><foreignObject style="width: 36px; height: 12px;"><div xmlns="http://www.w3.org/1999/xhtml" style="display: inline-block; padding-right: 1px; white-space: nowrap;"><span style=";display: inline-block" class="edgeLabel">0..*</span></div></foreignObject></g></g><g class="nodes"><g transform="translate(341.23828125, 157)" id="classId-Pipeline-126" class="node default"><g class="basic label-container"><path style="" fill="#eee" stroke-width="0" stroke="none" d="M-48.62890625 -63 L48.62890625 -63 L48.62890625 63 L-48.62890625 63"></path><path style="" fill="none" stroke-width="1.3" stroke="#999" d="M-48.62890625 -63 C-12.0436818199288 -63, 24.5415426101424 -63, 48.62890625 -63 M-48.62890625 -63 C-27.499502348666056 -63, -6.370098447332111 -63, 48.62890625 -63 M48.62890625 -63 C48.62890625 -36.165872714523815, 48.62890625 -9.331745429047636, 48.62890625 63 M48.62890625 -63 C48.62890625 -36.74565453875787, 48.62890625 -10.491309077515737, 48.62890625 63 M48.62890625 63 C17.482245771634496 63, -13.664414706731009 63, -48.62890625 63 M48.62890625 63 C25.091237905706688 63, 1.5535695614133758 63, -48.62890625 63 M-48.62890625 63 C-48.62890625 23.780594855953893, -48.62890625 -15.438810288092213, -48.62890625 -63 M-48.62890625 63 C-48.62890625 34.815476229209445, -48.62890625 6.630952458418889, -48.62890625 -63"></path></g><g transform="translate(0, -39)" class="annotation-group text"></g><g transform="translate(-30.0078125, -39)" class="label-group text"><g transform="translate(0,-12)" style="font-weight: bolder" class="label"><foreignObject height="24" width="60.015625"><div xmlns="http://www.w3.org/1999/xhtml" style="display: table-cell; white-space: nowrap; line-height: 1.5; max-width: 110px; text-align: center;"><span style="" class="nodeLabel markdown-node-label"><p>Pipeline</p></span></div></foreignObject></g></g><g transform="translate(-36.62890625, 9)" class="members-group text"></g><g transform="translate(-36.62890625, 39)" class="methods-group text"><g transform="translate(0,-12)" style="" class="label"><foreignObject height="24" width="43.25"><div xmlns="http://www.w3.org/1999/xhtml" style="display: table-cell; white-space: nowrap; line-height: 1.5; max-width: 102px; text-align: center;"><span style="" class="nodeLabel markdown-node-label"><p>+run()</p></span></div></foreignObject></g></g><g style="" class="divider"><path style="" fill="none" stroke-width="1.3" stroke="#999" d="M-48.62890625 -15 C-20.1801964494808 -15, 8.2685133510384 -15, 48.62890625 -15 M-48.62890625 -15 C-15.873325332349317 -15, 16.882255585301365 -15, 48.62890625 -15"></path></g><g style="" class="divider"><path style="" fill="none" stroke-width="1.3" stroke="#999" d="M-48.62890625 9 C-12.561656097719052 9, 23.505594054561897 9, 48.62890625 9 M-48.62890625 9 C-17.30600919011572 9, 14.01688786976856 9, 48.62890625 9"></path></g></g><g transform="translate(594.04296875, 357)" id="classId-Filter-127" class="node default"><g class="basic label-container"><path style="" fill="#eee" stroke-width="0" stroke="none" d="M-129.82421875 -63 L129.82421875 -63 L129.82421875 63 L-129.82421875 63"></path><path style="" fill="none" stroke-width="1.3" stroke="#999" d="M-129.82421875 -63 C-42.54514718729578 -63, 44.733924375408435 -63, 129.82421875 -63 M-129.82421875 -63 C-55.03782437974134 -63, 19.748569990517325 -63, 129.82421875 -63 M129.82421875 -63 C129.82421875 -14.990199690267303, 129.82421875 33.01960061946539, 129.82421875 63 M129.82421875 -63 C129.82421875 -12.921233175062312, 129.82421875 37.157533649875376, 129.82421875 63 M129.82421875 63 C71.70259942155042 63, 13.58098009310082 63, -129.82421875 63 M129.82421875 63 C44.61941136949986 63, -40.585396011000284 63, -129.82421875 63 M-129.82421875 63 C-129.82421875 32.422764805345565, -129.82421875 1.8455296106911376, -129.82421875 -63 M-129.82421875 63 C-129.82421875 15.167387177760155, -129.82421875 -32.66522564447969, -129.82421875 -63"></path></g><g transform="translate(0, -39)" class="annotation-group text"></g><g transform="translate(-20.3046875, -39)" class="label-group text"><g transform="translate(0,-12)" style="font-weight: bolder" class="label"><foreignObject height="24" width="40.609375"><div xmlns="http://www.w3.org/1999/xhtml" style="display: table-cell; white-space: nowrap; line-height: 1.5; max-width: 89px; text-align: center;"><span style="" class="nodeLabel markdown-node-label"><p>Filter</p></span></div></foreignObject></g></g><g transform="translate(-117.82421875, 9)" class="members-group text"></g><g transform="translate(-117.82421875, 39)" class="methods-group text"><g transform="translate(0,-12)" style="" class="label"><foreignObject height="24" width="215.34375"><div xmlns="http://www.w3.org/1999/xhtml" style="display: table-cell; white-space: nowrap; line-height: 1.5; max-width: 276px; text-align: center;"><span style="" class="nodeLabel markdown-node-label"><p>+process(input : Data) : : Data</p></span></div></foreignObject></g></g><g style="" class="divider"><path style="" fill="none" stroke-width="1.3" stroke="#999" d="M-129.82421875 -15 C-39.97517747709368 -15, 49.87386379581264 -15, 129.82421875 -15 M-129.82421875 -15 C-32.25000488942413 -15, 65.32420897115173 -15, 129.82421875 -15"></path></g><g style="" class="divider"><path style="" fill="none" stroke-width="1.3" stroke="#999" d="M-129.82421875 9 C-51.69122481972509 9, 26.441769110549814 9, 129.82421875 9 M-129.82421875 9 C-58.08457070684487 9, 13.655077336310256 9, 129.82421875 9"></path></g></g><g transform="translate(594.04296875, 157)" id="classId-SourceFilter-128" class="node default"><g class="basic label-container"><path style="" fill="#eee" stroke-width="0" stroke="none" d="M-105.35546875 -63 L105.35546875 -63 L105.35546875 63 L-105.35546875 63"></path><path style="" fill="none" stroke-width="1.3" stroke="#999" d="M-105.35546875 -63 C-42.0418178702676 -63, 21.2718330094648 -63, 105.35546875 -63 M-105.35546875 -63 C-49.86867167443767 -63, 5.618125401124658 -63, 105.35546875 -63 M105.35546875 -63 C105.35546875 -28.981571519292253, 105.35546875 5.036856961415495, 105.35546875 63 M105.35546875 -63 C105.35546875 -29.12724649090932, 105.35546875 4.745507018181357, 105.35546875 63 M105.35546875 63 C48.332812044070984 63, -8.689844661858032 63, -105.35546875 63 M105.35546875 63 C31.345065725583353 63, -42.66533729883329 63, -105.35546875 63 M-105.35546875 63 C-105.35546875 22.60525930617807, -105.35546875 -17.78948138764386, -105.35546875 -63 M-105.35546875 63 C-105.35546875 17.319707531271703, -105.35546875 -28.360584937456593, -105.35546875 -63"></path></g><g transform="translate(0, -39)" class="annotation-group text"></g><g transform="translate(-45.4609375, -39)" class="label-group text"><g transform="translate(0,-12)" style="font-weight: bolder" class="label"><foreignObject height="24" width="90.921875"><div xmlns="http://www.w3.org/1999/xhtml" style="display: table-cell; white-space: nowrap; line-height: 1.5; max-width: 140px; text-align: center;"><span style="" class="nodeLabel markdown-node-label"><p>SourceFilter</p></span></div></foreignObject></g></g><g transform="translate(-93.35546875, 9)" class="members-group text"></g><g transform="translate(-93.35546875, 39)" class="methods-group text"><g transform="translate(0,-12)" style="" class="label"><foreignObject height="24" width="141.25"><div xmlns="http://www.w3.org/1999/xhtml" style="display: table-cell; white-space: nowrap; line-height: 1.5; max-width: 199px; text-align: center;"><span style="" class="nodeLabel markdown-node-label"><p>+generate() : : Data</p></span></div></foreignObject></g></g><g style="" class="divider"><path style="" fill="none" stroke-width="1.3" stroke="#999" d="M-105.35546875 -15 C-46.630828276852526 -15, 12.093812196294948 -15, 105.35546875 -15 M-105.35546875 -15 C-28.16061168354976 -15, 49.03424538290048 -15, 105.35546875 -15"></path></g><g style="" class="divider"><path style="" fill="none" stroke-width="1.3" stroke="#999" d="M-105.35546875 9 C-57.14572635582197 9, -8.935983961643942 9, 105.35546875 9 M-105.35546875 9 C-39.185069602519604 9, 26.98532954496079 9, 105.35546875 9"></path></g></g><g transform="translate(910.0078125, 157)" id="classId-TransformerFilter-129" class="node default"><g class="basic label-container"><path style="" fill="#eee" stroke-width="0" stroke="none" d="M-160.609375 -63 L160.609375 -63 L160.609375 63 L-160.609375 63"></path><path style="" fill="none" stroke-width="1.3" stroke="#999" d="M-160.609375 -63 C-53.63119592967156 -63, 53.346983140656874 -63, 160.609375 -63 M-160.609375 -63 C-43.10047160410517 -63, 74.40843179178967 -63, 160.609375 -63 M160.609375 -63 C160.609375 -25.585808360451082, 160.609375 11.828383279097835, 160.609375 63 M160.609375 -63 C160.609375 -20.473034370055636, 160.609375 22.053931259888728, 160.609375 63 M160.609375 63 C79.48020194140302 63, -1.6489711171939518 63, -160.609375 63 M160.609375 63 C47.00461913409809 63, -66.60013673180381 63, -160.609375 63 M-160.609375 63 C-160.609375 36.08993280871272, -160.609375 9.179865617425442, -160.609375 -63 M-160.609375 63 C-160.609375 34.05096654971445, -160.609375 5.101933099428905, -160.609375 -63"></path></g><g transform="translate(0, -39)" class="annotation-group text"></g><g transform="translate(-65.21875, -39)" class="label-group text"><g transform="translate(0,-12)" style="font-weight: bolder" class="label"><foreignObject height="24" width="130.4375"><div xmlns="http://www.w3.org/1999/xhtml" style="display: table-cell; white-space: nowrap; line-height: 1.5; max-width: 179px; text-align: center;"><span style="" class="nodeLabel markdown-node-label"><p>TransformerFilter</p></span></div></foreignObject></g></g><g transform="translate(-148.609375, 9)" class="members-group text"></g><g transform="translate(-148.609375, 39)" class="methods-group text"><g transform="translate(0,-12)" style="" class="label"><foreignObject height="24" width="232"><div xmlns="http://www.w3.org/1999/xhtml" style="display: table-cell; white-space: nowrap; line-height: 1.5; max-width: 290px; text-align: center;"><span style="" class="nodeLabel markdown-node-label"><p>+transform(input : Data) : : Data</p></span></div></foreignObject></g></g><g style="" class="divider"><path style="" fill="none" stroke-width="1.3" stroke="#999" d="M-160.609375 -15 C-58.45625479980018 -15, 43.696865400399645 -15, 160.609375 -15 M-160.609375 -15 C-83.38346999223573 -15, -6.157564984471463 -15, 160.609375 -15"></path></g><g style="" class="divider"><path style="" fill="none" stroke-width="1.3" stroke="#999" d="M-160.609375 9 C-65.34879818507657 9, 29.91177862984685 9, 160.609375 9 M-160.609375 9 C-88.84201167731709 9, -17.074648354634178 9, 160.609375 9"></path></g></g><g transform="translate(1238.703125, 157)" id="classId-SinkFilter-130" class="node default"><g class="basic label-container"><path style="" fill="#eee" stroke-width="0" stroke="none" d="M-118.0859375 -63 L118.0859375 -63 L118.0859375 63 L-118.0859375 63"></path><path style="" fill="none" stroke-width="1.3" stroke="#999" d="M-118.0859375 -63 C-36.41405161066314 -63, 45.25783427867373 -63, 118.0859375 -63 M-118.0859375 -63 C-59.56104506509854 -63, -1.0361526301970798 -63, 118.0859375 -63 M118.0859375 -63 C118.0859375 -23.845300360138047, 118.0859375 15.309399279723905, 118.0859375 63 M118.0859375 -63 C118.0859375 -35.74390638288406, 118.0859375 -8.487812765768126, 118.0859375 63 M118.0859375 63 C47.55000816371967 63, -22.985921172560666 63, -118.0859375 63 M118.0859375 63 C25.22883502102715 63, -67.6282674579457 63, -118.0859375 63 M-118.0859375 63 C-118.0859375 16.106555648141367, -118.0859375 -30.786888703717267, -118.0859375 -63 M-118.0859375 63 C-118.0859375 35.34718250961297, -118.0859375 7.694365019225941, -118.0859375 -63"></path></g><g transform="translate(0, -39)" class="annotation-group text"></g><g transform="translate(-35.6875, -39)" class="label-group text"><g transform="translate(0,-12)" style="font-weight: bolder" class="label"><foreignObject height="24" width="71.375"><div xmlns="http://www.w3.org/1999/xhtml" style="display: table-cell; white-space: nowrap; line-height: 1.5; max-width: 121px; text-align: center;"><span style="" class="nodeLabel markdown-node-label"><p>SinkFilter</p></span></div></foreignObject></g></g><g transform="translate(-106.0859375, 9)" class="members-group text"></g><g transform="translate(-106.0859375, 39)" class="methods-group text"><g transform="translate(0,-12)" style="" class="label"><foreignObject height="24" width="176.484375"><div xmlns="http://www.w3.org/1999/xhtml" style="display: table-cell; white-space: nowrap; line-height: 1.5; max-width: 241px; text-align: center;"><span style="" class="nodeLabel markdown-node-label"><p>+consume(output : Data)</p></span></div></foreignObject></g></g><g style="" class="divider"><path style="" fill="none" stroke-width="1.3" stroke="#999" d="M-118.0859375 -15 C-37.55416086276132 -15, 42.97761577447736 -15, 118.0859375 -15 M-118.0859375 -15 C-32.63252879864247 -15, 52.82087990271506 -15, 118.0859375 -15"></path></g><g style="" class="divider"><path style="" fill="none" stroke-width="1.3" stroke="#999" d="M-118.0859375 9 C-31.255872416722568 9, 55.574192666554865 9, 118.0859375 9 M-118.0859375 9 C-66.13624680120512 9, -14.186556102410222 9, 118.0859375 9"></path></g></g><g transform="translate(516.8695312496275, 536)" id="classId-Data-131" class="node default"><g class="basic label-container"><path style="" fill="#eee" stroke-width="0" stroke="none" d="M-28.640625 -42 L28.640625 -42 L28.640625 42 L-28.640625 42"></path><path style="" fill="none" stroke-width="1.3" stroke="#999" d="M-28.640625 -42 C-13.362270349827986 -42, 1.9160843003440284 -42, 28.640625 -42 M-28.640625 -42 C-11.520933481694907 -42, 5.598758036610185 -42, 28.640625 -42 M28.640625 -42 C28.640625 -19.797812241810707, 28.640625 2.404375516378586, 28.640625 42 M28.640625 -42 C28.640625 -14.54830205745008, 28.640625 12.90339588509984, 28.640625 42 M28.640625 42 C10.296382259826096 42, -8.047860480347808 42, -28.640625 42 M28.640625 42 C8.260623213932757 42, -12.119378572134487 42, -28.640625 42 M-28.640625 42 C-28.640625 18.561318658795415, -28.640625 -4.877362682409171, -28.640625 -42 M-28.640625 42 C-28.640625 20.808164365585277, -28.640625 -0.38367126882944547, -28.640625 -42"></path></g><g transform="translate(0, -18)" class="annotation-group text"></g><g transform="translate(-16.640625, -18)" class="label-group text"><g transform="translate(0,-12)" style="font-weight: bolder" class="label"><foreignObject height="24" width="33.28125"><div xmlns="http://www.w3.org/1999/xhtml" style="display: table-cell; white-space: nowrap; line-height: 1.5; max-width: 84px; text-align: center;"><span style="" class="nodeLabel markdown-node-label"><p>Data</p></span></div></foreignObject></g></g><g transform="translate(-16.640625, 30)" class="members-group text"></g><g transform="translate(-16.640625, 60)" class="methods-group text"></g><g style="" class="divider"><path style="" fill="none" stroke-width="1.3" stroke="#999" d="M-28.640625 6 C-15.312283631854719 6, -1.9839422637094373 6, 28.640625 6 M-28.640625 6 C-10.975537213954457 6, 6.689550572091086 6, 28.640625 6"></path></g><g style="" class="divider"><path style="" fill="none" stroke-width="1.3" stroke="#999" d="M-28.640625 24 C-8.692855683455598 24, 11.254913633088805 24, 28.640625 24 M-28.640625 24 C-17.154682768746447 24, -5.668740537492894 24, 28.640625 24"></path></g></g><g transform="translate(341.23828125, 26)" id="note0" class="node undefined"><g class="basic label-container"><path style="fill:#666 !important;stroke:#999 !important" fill="#666" stroke-width="0" stroke="none" d="M-109.3515625 -18 L109.3515625 -18 L109.3515625 18 L-109.3515625 18"></path><path style="fill:#666 !important;stroke:#999 !important" fill="none" stroke-width="1.3" stroke="#999" d="M-109.3515625 -18 C-48.16022096497782 -18, 13.031120570044365 -18, 109.3515625 -18 M-109.3515625 -18 C-64.05322988138377 -18, -18.754897262767557 -18, 109.3515625 -18 M109.3515625 -18 C109.3515625 -6.324602415560852, 109.3515625 5.350795168878296, 109.3515625 18 M109.3515625 -18 C109.3515625 -9.227182624612936, 109.3515625 -0.45436524922587296, 109.3515625 18 M109.3515625 18 C25.022900180159183 18, -59.30576213968163 18, -109.3515625 18 M109.3515625 18 C28.40171439382334 18, -52.54813371235332 18, -109.3515625 18 M-109.3515625 18 C-109.3515625 8.031495379403848, -109.3515625 -1.9370092411923032, -109.3515625 -18 M-109.3515625 18 C-109.3515625 5.846285724493459, -109.3515625 -6.307428551013082, -109.3515625 -18"></path></g><g transform="translate(-103.3515625, -12)" style="text-align:left !important;white-space:nowrap !important" class="label"><rect></rect><foreignObject height="24" width="206.703125"><div xmlns="http://www.w3.org/1999/xhtml" style="text-align: center; white-space: break-spaces; display: table; line-height: 1.5; max-width: 200px; width: 200px;"><span class="nodeLabel" style="text-align:left !important;white-space:nowrap !important"><p>管道负责组织和启动过滤器链</p></span></div></foreignObject></g></g><g transform="translate(125.3046875, 157)" id="note1" class="node undefined"><g class="basic label-container"><path style="fill:#666 !important;stroke:#999 !important" fill="#666" stroke-width="0" stroke="none" d="M-117.3046875 -18 L117.3046875 -18 L117.3046875 18 L-117.3046875 18"></path><path style="fill:#666 !important;stroke:#999 !important" fill="none" stroke-width="1.3" stroke="#999" d="M-117.3046875 -18 C-64.5852877811317 -18, -11.865888062263394 -18, 117.3046875 -18 M-117.3046875 -18 C-29.043895060634966 -18, 59.21689737873007 -18, 117.3046875 -18 M117.3046875 -18 C117.3046875 -8.971897116760442, 117.3046875 0.0562057664791169, 117.3046875 18 M117.3046875 -18 C117.3046875 -5.444602828898244, 117.3046875 7.110794342203512, 117.3046875 18 M117.3046875 18 C66.2318783807493 18, 15.159069261498587 18, -117.3046875 18 M117.3046875 18 C66.36194308498571 18, 15.419198669971422 18, -117.3046875 18 M-117.3046875 18 C-117.3046875 7.06104744129787, -117.3046875 -3.8779051174042607, -117.3046875 -18 M-117.3046875 18 C-117.3046875 4.8324211640898955, -117.3046875 -8.335157671820209, -117.3046875 -18"></path></g><g transform="translate(-111.3046875, -12)" style="text-align:left !important;white-space:nowrap !important" class="label"><rect></rect><foreignObject height="24" width="222.609375"><div xmlns="http://www.w3.org/1999/xhtml" style="text-align: center; white-space: break-spaces; display: table; line-height: 1.5; max-width: 200px; width: 200px;"><span class="nodeLabel" style="text-align:left !important;white-space:nowrap !important"><p>抽象过滤器，定义统一处理接口</p></span></div></foreignObject></g></g><g transform="translate(594.04296875, 26)" id="note2" class="node undefined"><g class="basic label-container"><path style="fill:#666 !important;stroke:#999 !important" fill="#666" stroke-width="0" stroke="none" d="M-93.453125 -18 L93.453125 -18 L93.453125 18 L-93.453125 18"></path><path style="fill:#666 !important;stroke:#999 !important" fill="none" stroke-width="1.3" stroke="#999" d="M-93.453125 -18 C-26.936827683360193 -18, 39.579469633279615 -18, 93.453125 -18 M-93.453125 -18 C-19.227830238332487 -18, 54.997464523335026 -18, 93.453125 -18 M93.453125 -18 C93.453125 -6.850617800118355, 93.453125 4.298764399763289, 93.453125 18 M93.453125 -18 C93.453125 -6.533428959144544, 93.453125 4.933142081710912, 93.453125 18 M93.453125 18 C37.1522066104538 18, -19.148711779092395 18, -93.453125 18 M93.453125 18 C43.57513148037069 18, -6.302862039258613 18, -93.453125 18 M-93.453125 18 C-93.453125 7.469201867198649, -93.453125 -3.0615962656027023, -93.453125 -18 M-93.453125 18 C-93.453125 5.758933121247146, -93.453125 -6.482133757505707, -93.453125 -18"></path></g><g transform="translate(-87.453125, -12)" style="text-align:left !important;white-space:nowrap !important" class="label"><rect></rect><foreignObject height="24" width="174.90625"><div xmlns="http://www.w3.org/1999/xhtml" style="text-align: center; white-space: nowrap; display: table-cell; line-height: 1.5; max-width: 200px;"><span class="nodeLabel" style="text-align:left !important;white-space:nowrap !important"><p>源过滤器：生成初始数据</p></span></div></foreignObject></g></g><g transform="translate(910.0078125, 26)" id="note3" class="node undefined"><g class="basic label-container"><path style="fill:#666 !important;stroke:#999 !important" fill="#666" stroke-width="0" stroke="none" d="M-85.5078125 -18 L85.5078125 -18 L85.5078125 18 L-85.5078125 18"></path><path style="fill:#666 !important;stroke:#999 !important" fill="none" stroke-width="1.3" stroke="#999" d="M-85.5078125 -18 C-24.014089219731325 -18, 37.47963406053735 -18, 85.5078125 -18 M-85.5078125 -18 C-42.08351721056055 -18, 1.3407780788788983 -18, 85.5078125 -18 M85.5078125 -18 C85.5078125 -8.21089130407276, 85.5078125 1.57821739185448, 85.5078125 18 M85.5078125 -18 C85.5078125 -6.635256664758515, 85.5078125 4.72948667048297, 85.5078125 18 M85.5078125 18 C30.658490085382795 18, -24.19083232923441 18, -85.5078125 18 M85.5078125 18 C18.774276307290265 18, -47.95925988541947 18, -85.5078125 18 M-85.5078125 18 C-85.5078125 4.669744983275553, -85.5078125 -8.660510033448894, -85.5078125 -18 M-85.5078125 18 C-85.5078125 10.187571839957856, -85.5078125 2.3751436799157126, -85.5078125 -18"></path></g><g transform="translate(-79.5078125, -12)" style="text-align:left !important;white-space:nowrap !important" class="label"><rect></rect><foreignObject height="24" width="159.015625"><div xmlns="http://www.w3.org/1999/xhtml" style="text-align: center; white-space: nowrap; display: table-cell; line-height: 1.5; max-width: 200px;"><span class="nodeLabel" style="text-align:left !important;white-space:nowrap !important"><p>转换过滤器：处理数据</p></span></div></foreignObject></g></g><g transform="translate(1238.703125, 26)" id="note4" class="node undefined"><g class="basic label-container"><path style="fill:#666 !important;stroke:#999 !important" fill="#666" stroke-width="0" stroke="none" d="M-101.40625 -18 L101.40625 -18 L101.40625 18 L-101.40625 18"></path><path style="fill:#666 !important;stroke:#999 !important" fill="none" stroke-width="1.3" stroke="#999" d="M-101.40625 -18 C-57.567195847518434 -18, -13.728141695036868 -18, 101.40625 -18 M-101.40625 -18 C-32.170094226363105 -18, 37.06606154727379 -18, 101.40625 -18 M101.40625 -18 C101.40625 -6.6273767063860785, 101.40625 4.745246587227843, 101.40625 18 M101.40625 -18 C101.40625 -5.272559406953755, 101.40625 7.454881186092489, 101.40625 18 M101.40625 18 C20.70429377411017 18, -59.99766245177966 18, -101.40625 18 M101.40625 18 C29.182166000434094 18, -43.04191799913181 18, -101.40625 18 M-101.40625 18 C-101.40625 9.970810362857835, -101.40625 1.9416207257156692, -101.40625 -18 M-101.40625 18 C-101.40625 4.9512989267668495, -101.40625 -8.097402146466301, -101.40625 -18"></path></g><g transform="translate(-95.40625, -12)" style="text-align:left !important;white-space:nowrap !important" class="label"><rect></rect><foreignObject height="24" width="190.8125"><div xmlns="http://www.w3.org/1999/xhtml" style="text-align: center; white-space: nowrap; display: table-cell; line-height: 1.5; max-width: 200px;"><span class="nodeLabel" style="text-align:left !important;white-space:nowrap !important"><p>终端过滤器：消费最终结果</p></span></div></foreignObject></g></g><g transform="translate(595.5601562503725, 536)" id="Filter---Filter---1" class="label edgeLabel"><rect height="0.1" width="0.1"></rect><g transform="translate(0, 0)" style="" class="label"><rect></rect><foreignObject height="0" width="0"><div xmlns="http://www.w3.org/1999/xhtml" style="display: table-cell; white-space: nowrap; line-height: 1.5; max-width: 10px; text-align: center;"><span class="nodeLabel"></span></div></foreignObject></g></g><g transform="translate(633.3882812503725, 652.0500000007451)" id="Filter---Filter---2" class="label edgeLabel"><rect height="0.1" width="0.1"></rect><g transform="translate(0, 0)" style="" class="label"><rect></rect><foreignObject height="0" width="0"><div xmlns="http://www.w3.org/1999/xhtml" style="display: table-cell; white-space: nowrap; line-height: 1.5; max-width: 10px; text-align: center;"><span class="nodeLabel"></span></div></foreignObject></g></g></g></g></g></svg>