<svg aria-roledescription="class" role="graphics-document document" viewBox="0 0 822.375 586" style="max-width: 822.375px;" class="classDiagram" xmlns:xlink="http://www.w3.org/1999/xlink" xmlns="http://www.w3.org/2000/svg" width="100%" id="mermaid-diagram-mermaid-g6vsohr"><style>#mermaid-diagram-mermaid-g6vsohr{font-family:"trebuchet ms",verdana,arial,sans-serif;font-size:16px;fill:#000000;}@keyframes edge-animation-frame{from{stroke-dashoffset:0;}}@keyframes dash{to{stroke-dashoffset:0;}}#mermaid-diagram-mermaid-g6vsohr .edge-animation-slow{stroke-dasharray:9,5!important;stroke-dashoffset:900;animation:dash 50s linear infinite;stroke-linecap:round;}#mermaid-diagram-mermaid-g6vsohr .edge-animation-fast{stroke-dasharray:9,5!important;stroke-dashoffset:900;animation:dash 20s linear infinite;stroke-linecap:round;}#mermaid-diagram-mermaid-g6vsohr .error-icon{fill:#552222;}#mermaid-diagram-mermaid-g6vsohr .error-text{fill:#552222;stroke:#552222;}#mermaid-diagram-mermaid-g6vsohr .edge-thickness-normal{stroke-width:1px;}#mermaid-diagram-mermaid-g6vsohr .edge-thickness-thick{stroke-width:3.5px;}#mermaid-diagram-mermaid-g6vsohr .edge-pattern-solid{stroke-dasharray:0;}#mermaid-diagram-mermaid-g6vsohr .edge-thickness-invisible{stroke-width:0;fill:none;}#mermaid-diagram-mermaid-g6vsohr .edge-pattern-dashed{stroke-dasharray:3;}#mermaid-diagram-mermaid-g6vsohr .edge-pattern-dotted{stroke-dasharray:2;}#mermaid-diagram-mermaid-g6vsohr .marker{fill:#666;stroke:#666;}#mermaid-diagram-mermaid-g6vsohr .marker.cross{stroke:#666;}#mermaid-diagram-mermaid-g6vsohr svg{font-family:"trebuchet ms",verdana,arial,sans-serif;font-size:16px;}#mermaid-diagram-mermaid-g6vsohr p{margin:0;}#mermaid-diagram-mermaid-g6vsohr g.classGroup text{fill:#999;stroke:none;font-family:"trebuchet ms",verdana,arial,sans-serif;font-size:10px;}#mermaid-diagram-mermaid-g6vsohr g.classGroup text .title{font-weight:bolder;}#mermaid-diagram-mermaid-g6vsohr .nodeLabel,#mermaid-diagram-mermaid-g6vsohr .edgeLabel{color:#111111;}#mermaid-diagram-mermaid-g6vsohr .edgeLabel .label rect{fill:#eee;}#mermaid-diagram-mermaid-g6vsohr .label text{fill:#111111;}#mermaid-diagram-mermaid-g6vsohr .labelBkg{background:#eee;}#mermaid-diagram-mermaid-g6vsohr .edgeLabel .label span{background:#eee;}#mermaid-diagram-mermaid-g6vsohr .classTitle{font-weight:bolder;}#mermaid-diagram-mermaid-g6vsohr .node rect,#mermaid-diagram-mermaid-g6vsohr .node circle,#mermaid-diagram-mermaid-g6vsohr .node ellipse,#mermaid-diagram-mermaid-g6vsohr .node polygon,#mermaid-diagram-mermaid-g6vsohr .node path{fill:#eee;stroke:#999;stroke-width:1px;}#mermaid-diagram-mermaid-g6vsohr .divider{stroke:#999;stroke-width:1;}#mermaid-diagram-mermaid-g6vsohr g.clickable{cursor:pointer;}#mermaid-diagram-mermaid-g6vsohr g.classGroup rect{fill:#eee;stroke:#999;}#mermaid-diagram-mermaid-g6vsohr g.classGroup line{stroke:#999;stroke-width:1;}#mermaid-diagram-mermaid-g6vsohr .classLabel .box{stroke:none;stroke-width:0;fill:#eee;opacity:0.5;}#mermaid-diagram-mermaid-g6vsohr .classLabel .label{fill:#999;font-size:10px;}#mermaid-diagram-mermaid-g6vsohr .relation{stroke:#666;stroke-width:1;fill:none;}#mermaid-diagram-mermaid-g6vsohr .dashed-line{stroke-dasharray:3;}#mermaid-diagram-mermaid-g6vsohr .dotted-line{stroke-dasharray:1 2;}#mermaid-diagram-mermaid-g6vsohr #compositionStart,#mermaid-diagram-mermaid-g6vsohr .composition{fill:#666!important;stroke:#666!important;stroke-width:1;}#mermaid-diagram-mermaid-g6vsohr #compositionEnd,#mermaid-diagram-mermaid-g6vsohr .composition{fill:#666!important;stroke:#666!important;stroke-width:1;}#mermaid-diagram-mermaid-g6vsohr #dependencyStart,#mermaid-diagram-mermaid-g6vsohr .dependency{fill:#666!important;stroke:#666!important;stroke-width:1;}#mermaid-diagram-mermaid-g6vsohr #dependencyStart,#mermaid-diagram-mermaid-g6vsohr .dependency{fill:#666!important;stroke:#666!important;stroke-width:1;}#mermaid-diagram-mermaid-g6vsohr #extensionStart,#mermaid-diagram-mermaid-g6vsohr .extension{fill:transparent!important;stroke:#666!important;stroke-width:1;}#mermaid-diagram-mermaid-g6vsohr #extensionEnd,#mermaid-diagram-mermaid-g6vsohr .extension{fill:transparent!important;stroke:#666!important;stroke-width:1;}#mermaid-diagram-mermaid-g6vsohr #aggregationStart,#mermaid-diagram-mermaid-g6vsohr .aggregation{fill:transparent!important;stroke:#666!important;stroke-width:1;}#mermaid-diagram-mermaid-g6vsohr #aggregationEnd,#mermaid-diagram-mermaid-g6vsohr .aggregation{fill:transparent!important;stroke:#666!important;stroke-width:1;}#mermaid-diagram-mermaid-g6vsohr #lollipopStart,#mermaid-diagram-mermaid-g6vsohr .lollipop{fill:#eee!important;stroke:#666!important;stroke-width:1;}#mermaid-diagram-mermaid-g6vsohr #lollipopEnd,#mermaid-diagram-mermaid-g6vsohr .lollipop{fill:#eee!important;stroke:#666!important;stroke-width:1;}#mermaid-diagram-mermaid-g6vsohr .edgeTerminals{font-size:11px;line-height:initial;}#mermaid-diagram-mermaid-g6vsohr .classTitleText{text-anchor:middle;font-size:18px;fill:#000000;}#mermaid-diagram-mermaid-g6vsohr :root{--mermaid-font-family:"trebuchet ms",verdana,arial,sans-serif;}</style><g><defs><marker orient="auto" markerHeight="240" markerWidth="190" refY="7" refX="18" class="marker aggregation class" id="mermaid-diagram-mermaid-g6vsohr_class-aggregationStart"><path d="M 18,7 L9,13 L1,7 L9,1 Z"></path></marker></defs><defs><marker orient="auto" markerHeight="28" markerWidth="20" refY="7" refX="1" class="marker aggregation class" id="mermaid-diagram-mermaid-g6vsohr_class-aggregationEnd"><path d="M 18,7 L9,13 L1,7 L9,1 Z"></path></marker></defs><defs><marker orient="auto" markerHeight="240" markerWidth="190" refY="7" refX="18" class="marker extension class" id="mermaid-diagram-mermaid-g6vsohr_class-extensionStart"><path d="M 1,7 L18,13 V 1 Z"></path></marker></defs><defs><marker orient="auto" markerHeight="28" markerWidth="20" refY="7" refX="1" class="marker extension class" id="mermaid-diagram-mermaid-g6vsohr_class-extensionEnd"><path d="M 1,1 V 13 L18,7 Z"></path></marker></defs><defs><marker orient="auto" markerHeight="240" markerWidth="190" refY="7" refX="18" class="marker composition class" id="mermaid-diagram-mermaid-g6vsohr_class-compositionStart"><path d="M 18,7 L9,13 L1,7 L9,1 Z"></path></marker></defs><defs><marker orient="auto" markerHeight="28" markerWidth="20" refY="7" refX="1" class="marker composition class" id="mermaid-diagram-mermaid-g6vsohr_class-compositionEnd"><path d="M 18,7 L9,13 L1,7 L9,1 Z"></path></marker></defs><defs><marker orient="auto" markerHeight="240" markerWidth="190" refY="7" refX="6" class="marker dependency class" id="mermaid-diagram-mermaid-g6vsohr_class-dependencyStart"><path d="M 5,7 L9,13 L1,7 L9,1 Z"></path></marker></defs><defs><marker orient="auto" markerHeight="28" markerWidth="20" refY="7" refX="13" class="marker dependency class" id="mermaid-diagram-mermaid-g6vsohr_class-dependencyEnd"><path d="M 18,7 L9,13 L14,7 L9,1 Z"></path></marker></defs><defs><marker orient="auto" markerHeight="240" markerWidth="190" refY="7" refX="13" class="marker lollipop class" id="mermaid-diagram-mermaid-g6vsohr_class-lollipopStart"><circle r="6" cy="7" cx="7" fill="transparent" stroke="black"></circle></marker></defs><defs><marker orient="auto" markerHeight="240" markerWidth="190" refY="7" refX="1" class="marker lollipop class" id="mermaid-diagram-mermaid-g6vsohr_class-lollipopEnd"><circle r="6" cy="7" cx="7" fill="transparent" stroke="black"></circle></marker></defs><g class="root"><g class="clusters"></g><g class="edgePaths"><path style="fill: none;" class="edge-thickness-normal edge-pattern-dotted relation" id="edgeNote1" d="M395.289,44L395.289,48.167C395.289,52.333,395.289,60.667,395.289,69C395.289,77.333,395.289,85.667,395.289,89.833L395.289,94"></path><path style="fill: none;" class="edge-thickness-normal edge-pattern-dotted relation" id="edgeNote2" d="M109.406,175L109.406,188.667C109.406,202.333,109.406,229.667,112.6,249.5C115.794,269.333,122.181,281.667,125.375,287.833L128.569,294"></path><path style="fill: none;" class="edge-thickness-normal edge-pattern-dotted relation" id="edgeNote3" d="M697.07,175L697.07,188.667C697.07,202.333,697.07,229.667,697.07,249.5C697.07,269.333,697.07,281.667,697.07,287.833L697.07,294"></path><path marker-end="url(#mermaid-diagram-mermaid-g6vsohr_class-dependencyEnd)" style=";" class="edge-thickness-normal edge-pattern-solid relation" id="id_FanIn_InputChannel_1" d="M395.289,220L395.289,226.167C395.289,232.333,395.289,244.667,372.447,260.591C349.604,276.516,303.919,296.032,281.077,305.789L258.234,315.547"></path><path marker-end="url(#mermaid-diagram-mermaid-g6vsohr_class-dependencyEnd)" style=";" class="edge-thickness-normal edge-pattern-solid relation" id="id_FanIn_OutputChannel_2" d="M529.766,193.396L568.934,203.996C608.102,214.597,686.438,235.799,721.991,251.738C757.545,267.677,750.316,278.354,746.701,283.693L743.087,289.032"></path><path marker-start="url(#mermaid-diagram-mermaid-g6vsohr_class-compositionStart)" style=";" class="edge-thickness-normal edge-pattern-solid relation" id="id_InputChannel_Item_3" d="M161.197,438L161.197,441.167C161.197,444.333,161.197,450.667,177.252,463.98C193.307,477.293,225.417,497.586,241.472,507.733L257.527,517.88"></path><path marker-start="url(#mermaid-diagram-mermaid-g6vsohr_class-compositionStart)" style=";" class="edge-thickness-normal edge-pattern-solid relation" id="id_OutputChannel_Item_4" d="M697.07,438L697.07,441.167C697.07,444.333,697.07,450.667,633.37,466.081C569.671,481.496,442.271,505.991,378.571,518.239L314.871,530.487"></path></g><g class="edgeLabels"><g class="edgeLabel"><g transform="translate(0, 0)" class="label"><foreignObject height="0" width="0"><div class="labelBkg" xmlns="http://www.w3.org/1999/xhtml" style="display: table-cell; white-space: nowrap; line-height: 1.5; max-width: 200px; text-align: center;"><span class="edgeLabel" style=";"></span></div></foreignObject></g></g><g class="edgeLabel"><g transform="translate(0, 0)" class="label"><foreignObject height="0" width="0"><div class="labelBkg" xmlns="http://www.w3.org/1999/xhtml" style="display: table-cell; white-space: nowrap; line-height: 1.5; max-width: 200px; text-align: center;"><span class="edgeLabel" style=";"></span></div></foreignObject></g></g><g class="edgeLabel"><g transform="translate(0, 0)" class="label"><foreignObject height="0" width="0"><div class="labelBkg" xmlns="http://www.w3.org/1999/xhtml" style="display: table-cell; white-space: nowrap; line-height: 1.5; max-width: 200px; text-align: center;"><span class="edgeLabel" style=";"></span></div></foreignObject></g></g><g transform="translate(395.2890625, 257)" class="edgeLabel"><g transform="translate(-47.703125, -12)" class="label"><foreignObject height="24" width="95.40625"><div class="labelBkg" xmlns="http://www.w3.org/1999/xhtml" style="display: table-cell; white-space: nowrap; line-height: 1.5; max-width: 200px; text-align: center;"><span class="edgeLabel" style=";display: inline-block"><p>监听（关联）</p></span></div></foreignObject></g></g><g transform="translate(764.7734375, 257)" class="edgeLabel"><g transform="translate(-47.703125, -12)" class="label"><foreignObject height="24" width="95.40625"><div class="labelBkg" xmlns="http://www.w3.org/1999/xhtml" style="display: table-cell; white-space: nowrap; line-height: 1.5; max-width: 200px; text-align: center;"><span class="edgeLabel" style=";display: inline-block"><p>输出（关联）</p></span></div></foreignObject></g></g><g transform="translate(161.197265625, 457)" class="edgeLabel"><g transform="translate(-47.703125, -12)" class="label"><foreignObject height="24" width="95.40625"><div class="labelBkg" xmlns="http://www.w3.org/1999/xhtml" style="display: table-cell; white-space: nowrap; line-height: 1.5; max-width: 200px; text-align: center;"><span class="edgeLabel" style=";display: inline-block"><p>提供（组合）</p></span></div></foreignObject></g></g><g transform="translate(697.0703125, 457)" class="edgeLabel"><g transform="translate(-47.703125, -12)" class="label"><foreignObject height="24" width="95.40625"><div class="labelBkg" xmlns="http://www.w3.org/1999/xhtml" style="display: table-cell; white-space: nowrap; line-height: 1.5; max-width: 200px; text-align: center;"><span class="edgeLabel" style=";display: inline-block"><p>包含（组合）</p></span></div></foreignObject></g></g><g transform="translate(380.2890612500001, 237.49999892857144)" class="edgeTerminals"><g transform="translate(0, 0)" class="inner"><foreignObject style="width: 9px; height: 12px;"><div xmlns="http://www.w3.org/1999/xhtml" style="display: inline-block; padding-right: 1px; white-space: nowrap;"><span style=";display: inline-block" class="edgeLabel">1</span></div></foreignObject></g></g><g transform="translate(542.7391518891869, 212.446657847894)" class="edgeTerminals"><g transform="translate(0, 0)" class="inner"><foreignObject style="width: 9px; height: 12px;"><div xmlns="http://www.w3.org/1999/xhtml" style="display: inline-block; padding-right: 1px; white-space: nowrap;"><span style=";display: inline-block" class="edgeLabel">1</span></div></foreignObject></g></g><g transform="translate(146.19726781250012, 437.500001875)" class="edgeTerminals"><g transform="translate(0, 0)" class="inner"><foreignObject style="width: 9px; height: 12px;"><div xmlns="http://www.w3.org/1999/xhtml" style="display: inline-block; padding-right: 1px; white-space: nowrap;"><span style=";display: inline-block" class="edgeLabel">1</span></div></foreignObject></g></g><g transform="translate(682.07031125, 437.4999989285714)" class="edgeTerminals"><g transform="translate(0, 0)" class="inner"><foreignObject style="width: 9px; height: 12px;"><div xmlns="http://www.w3.org/1999/xhtml" style="display: inline-block; padding-right: 1px; white-space: nowrap;"><span style=";display: inline-block" class="edgeLabel">1</span></div></foreignObject></g></g><g transform="translate(269.702516632441, 319.82382427889735)" class="edgeTerminals"><g transform="translate(0, 0)" class="inner"></g><foreignObject style="width: 36px; height: 12px;"><div xmlns="http://www.w3.org/1999/xhtml" style="display: inline-block; padding-right: 1px; white-space: nowrap;"><span style=";display: inline-block" class="edgeLabel">0..*</span></div></foreignObject></g><g transform="translate(756.9552885943928, 282.918228089501)" class="edgeTerminals"><g transform="translate(0, 0)" class="inner"></g><foreignObject style="width: 9px; height: 12px;"><div xmlns="http://www.w3.org/1999/xhtml" style="display: inline-block; padding-right: 1px; white-space: nowrap;"><span style=";display: inline-block" class="edgeLabel">1</span></div></foreignObject></g><g transform="translate(245.74765856311376, 490.8504550651964)" class="edgeTerminals"><g transform="translate(0, 0)" class="inner"></g><foreignObject style="width: 36px; height: 12px;"><div xmlns="http://www.w3.org/1999/xhtml" style="display: inline-block; padding-right: 1px; white-space: nowrap;"><span style=";display: inline-block" class="edgeLabel">0..*</span></div></foreignObject></g><g transform="translate(329.88854860240144, 536.9130438602377)" class="edgeTerminals"><g transform="translate(0, 0)" class="inner"></g><foreignObject style="width: 36px; height: 12px;"><div xmlns="http://www.w3.org/1999/xhtml" style="display: inline-block; padding-right: 1px; white-space: nowrap;"><span style=";display: inline-block" class="edgeLabel">0..*</span></div></foreignObject></g></g><g class="nodes"><g transform="translate(395.2890625, 157)" id="classId-FanIn-60" class="node default"><g class="basic label-container"><path style="" fill="#eee" stroke-width="0" stroke="none" d="M-134.4765625 -63 L134.4765625 -63 L134.4765625 63 L-134.4765625 63"></path><path style="" fill="none" stroke-width="1.3" stroke="#999" d="M-134.4765625 -63 C-70.59350806928032 -63, -6.710453638560651 -63, 134.4765625 -63 M-134.4765625 -63 C-51.69130782987138 -63, 31.093946840257246 -63, 134.4765625 -63 M134.4765625 -63 C134.4765625 -20.32207825750877, 134.4765625 22.355843484982458, 134.4765625 63 M134.4765625 -63 C134.4765625 -13.917949866584493, 134.4765625 35.164100266831014, 134.4765625 63 M134.4765625 63 C44.05550150431276 63, -46.36555949137448 63, -134.4765625 63 M134.4765625 63 C64.82715702014426 63, -4.8222484597114885 63, -134.4765625 63 M-134.4765625 63 C-134.4765625 30.085917014594045, -134.4765625 -2.8281659708119093, -134.4765625 -63 M-134.4765625 63 C-134.4765625 29.39568261912946, -134.4765625 -4.208634761741081, -134.4765625 -63"></path></g><g transform="translate(0, -39)" class="annotation-group text"></g><g transform="translate(-19.984375, -39)" class="label-group text"><g transform="translate(0,-12)" style="font-weight: bolder" class="label"><foreignObject height="24" width="39.96875"><div xmlns="http://www.w3.org/1999/xhtml" style="display: table-cell; white-space: nowrap; line-height: 1.5; max-width: 91px; text-align: center;"><span style="" class="nodeLabel markdown-node-label"><p>FanIn</p></span></div></foreignObject></g></g><g transform="translate(-122.4765625, 9)" class="members-group text"></g><g transform="translate(-122.4765625, 39)" class="methods-group text"><g transform="translate(0,-12)" style="" class="label"><foreignObject height="24" width="224.96875"><div xmlns="http://www.w3.org/1999/xhtml" style="display: table-cell; white-space: nowrap; line-height: 1.5; max-width: 286px; text-align: center;"><span style="" class="nodeLabel markdown-node-label"><p>+fanIn(inputs... : InputChannel)</p></span></div></foreignObject></g></g><g style="" class="divider"><path style="" fill="none" stroke-width="1.3" stroke="#999" d="M-134.4765625 -15 C-78.92350038427192 -15, -23.370438268543836 -15, 134.4765625 -15 M-134.4765625 -15 C-32.183473766637434 -15, 70.10961496672513 -15, 134.4765625 -15"></path></g><g style="" class="divider"><path style="" fill="none" stroke-width="1.3" stroke="#999" d="M-134.4765625 9 C-55.00936617484645 9, 24.457830150307103 9, 134.4765625 9 M-134.4765625 9 C-56.50091684987386 9, 21.47472880025228 9, 134.4765625 9"></path></g></g><g transform="translate(161.197265625, 357)" id="classId-InputChannel-61" class="node default"><g class="basic label-container"><path style="" fill="#eee" stroke-width="0" stroke="none" d="M-91.51953125 -63 L91.51953125 -63 L91.51953125 63 L-91.51953125 63"></path><path style="" fill="none" stroke-width="1.3" stroke="#999" d="M-91.51953125 -63 C-27.44327909339097 -63, 36.63297306321806 -63, 91.51953125 -63 M-91.51953125 -63 C-39.873094906133055 -63, 11.77334143773389 -63, 91.51953125 -63 M91.51953125 -63 C91.51953125 -29.83000725272636, 91.51953125 3.339985494547278, 91.51953125 63 M91.51953125 -63 C91.51953125 -37.22960703083899, 91.51953125 -11.45921406167799, 91.51953125 63 M91.51953125 63 C54.15424926523112 63, 16.788967280462245 63, -91.51953125 63 M91.51953125 63 C51.09811642580555 63, 10.6767016016111 63, -91.51953125 63 M-91.51953125 63 C-91.51953125 22.817979447435498, -91.51953125 -17.364041105129004, -91.51953125 -63 M-91.51953125 63 C-91.51953125 36.1246352143275, -91.51953125 9.249270428654988, -91.51953125 -63"></path></g><g transform="translate(0, -39)" class="annotation-group text"></g><g transform="translate(-49.2109375, -39)" class="label-group text"><g transform="translate(0,-12)" style="font-weight: bolder" class="label"><foreignObject height="24" width="98.421875"><div xmlns="http://www.w3.org/1999/xhtml" style="display: table-cell; white-space: nowrap; line-height: 1.5; max-width: 151px; text-align: center;"><span style="" class="nodeLabel markdown-node-label"><p>InputChannel</p></span></div></foreignObject></g></g><g transform="translate(-79.51953125, 9)" class="members-group text"></g><g transform="translate(-79.51953125, 39)" class="methods-group text"><g transform="translate(0,-12)" style="" class="label"><foreignObject height="24" width="109.828125"><div xmlns="http://www.w3.org/1999/xhtml" style="display: table-cell; white-space: nowrap; line-height: 1.5; max-width: 164px; text-align: center;"><span style="" class="nodeLabel markdown-node-label"><p>+read() : : Item</p></span></div></foreignObject></g></g><g style="" class="divider"><path style="" fill="none" stroke-width="1.3" stroke="#999" d="M-91.51953125 -15 C-20.590161133587884 -15, 50.33920898282423 -15, 91.51953125 -15 M-91.51953125 -15 C-35.29523535491202 -15, 20.929060540175954 -15, 91.51953125 -15"></path></g><g style="" class="divider"><path style="" fill="none" stroke-width="1.3" stroke="#999" d="M-91.51953125 9 C-32.9759216911803 9, 25.567687867639407 9, 91.51953125 9 M-91.51953125 9 C-53.44846965429733 9, -15.377408058594654 9, 91.51953125 9"></path></g></g><g transform="translate(697.0703125, 357)" id="classId-OutputChannel-62" class="node default"><g class="basic label-container"><path style="" fill="#eee" stroke-width="0" stroke="none" d="M-108.484375 -63 L108.484375 -63 L108.484375 63 L-108.484375 63"></path><path style="" fill="none" stroke-width="1.3" stroke="#999" d="M-108.484375 -63 C-29.05444601635648 -63, 50.37548296728704 -63, 108.484375 -63 M-108.484375 -63 C-38.36883456498015 -63, 31.746705870039705 -63, 108.484375 -63 M108.484375 -63 C108.484375 -25.155679989821678, 108.484375 12.688640020356644, 108.484375 63 M108.484375 -63 C108.484375 -16.740751161058974, 108.484375 29.518497677882053, 108.484375 63 M108.484375 63 C58.21482874002086 63, 7.945282480041726 63, -108.484375 63 M108.484375 63 C42.38639419034965 63, -23.711586619300704 63, -108.484375 63 M-108.484375 63 C-108.484375 36.059166386906135, -108.484375 9.11833277381227, -108.484375 -63 M-108.484375 63 C-108.484375 29.402614256610853, -108.484375 -4.1947714867782935, -108.484375 -63"></path></g><g transform="translate(0, -39)" class="annotation-group text"></g><g transform="translate(-55.734375, -39)" class="label-group text"><g transform="translate(0,-12)" style="font-weight: bolder" class="label"><foreignObject height="24" width="111.46875"><div xmlns="http://www.w3.org/1999/xhtml" style="display: table-cell; white-space: nowrap; line-height: 1.5; max-width: 164px; text-align: center;"><span style="" class="nodeLabel markdown-node-label"><p>OutputChannel</p></span></div></foreignObject></g></g><g transform="translate(-96.484375, 9)" class="members-group text"></g><g transform="translate(-96.484375, 39)" class="methods-group text"><g transform="translate(0,-12)" style="" class="label"><foreignObject height="24" width="137.234375"><div xmlns="http://www.w3.org/1999/xhtml" style="display: table-cell; white-space: nowrap; line-height: 1.5; max-width: 193px; text-align: center;"><span style="" class="nodeLabel markdown-node-label"><p>+write(item : Item)</p></span></div></foreignObject></g></g><g style="" class="divider"><path style="" fill="none" stroke-width="1.3" stroke="#999" d="M-108.484375 -15 C-46.0325241674184 -15, 16.419326665163197 -15, 108.484375 -15 M-108.484375 -15 C-36.97836920542797 -15, 34.527636589144066 -15, 108.484375 -15"></path></g><g style="" class="divider"><path style="" fill="none" stroke-width="1.3" stroke="#999" d="M-108.484375 9 C-62.31394126780577 9, -16.143507535611533 9, 108.484375 9 M-108.484375 9 C-62.25036679986775 9, -16.016358599735497 9, 108.484375 9"></path></g></g><g transform="translate(286.19921875, 536)" id="classId-Item-63" class="node default"><g class="basic label-container"><path style="" fill="#eee" stroke-width="0" stroke="none" d="M-28.671875 -42 L28.671875 -42 L28.671875 42 L-28.671875 42"></path><path style="" fill="none" stroke-width="1.3" stroke="#999" d="M-28.671875 -42 C-7.761493561711944 -42, 13.148887876576111 -42, 28.671875 -42 M-28.671875 -42 C-16.675515866788604 -42, -4.679156733577209 -42, 28.671875 -42 M28.671875 -42 C28.671875 -12.777474308341358, 28.671875 16.445051383317285, 28.671875 42 M28.671875 -42 C28.671875 -10.552775680214381, 28.671875 20.894448639571237, 28.671875 42 M28.671875 42 C10.735035836800119 42, -7.201803326399762 42, -28.671875 42 M28.671875 42 C14.571692625127914 42, 0.4715102502558288 42, -28.671875 42 M-28.671875 42 C-28.671875 14.081342316799617, -28.671875 -13.837315366400766, -28.671875 -42 M-28.671875 42 C-28.671875 18.887122464785744, -28.671875 -4.225755070428512, -28.671875 -42"></path></g><g transform="translate(0, -18)" class="annotation-group text"></g><g transform="translate(-16.671875, -18)" class="label-group text"><g transform="translate(0,-12)" style="font-weight: bolder" class="label"><foreignObject height="24" width="33.34375"><div xmlns="http://www.w3.org/1999/xhtml" style="display: table-cell; white-space: nowrap; line-height: 1.5; max-width: 84px; text-align: center;"><span style="" class="nodeLabel markdown-node-label"><p>Item</p></span></div></foreignObject></g></g><g transform="translate(-16.671875, 30)" class="members-group text"></g><g transform="translate(-16.671875, 60)" class="methods-group text"></g><g style="" class="divider"><path style="" fill="none" stroke-width="1.3" stroke="#999" d="M-28.671875 6 C-7.0059368209630115 6, 14.660001358073977 6, 28.671875 6 M-28.671875 6 C-9.671451636092478 6, 9.328971727815045 6, 28.671875 6"></path></g><g style="" class="divider"><path style="" fill="none" stroke-width="1.3" stroke="#999" d="M-28.671875 24 C-13.376362784879971 24, 1.9191494302400578 24, 28.671875 24 M-28.671875 24 C-10.97975696800589 24, 6.712361063988219 24, 28.671875 24"></path></g></g><g transform="translate(395.2890625, 26)" id="note0" class="node undefined"><g class="basic label-container"><path style="fill:#666 !important;stroke:#999 !important" fill="#666" stroke-width="0" stroke="none" d="M-220.65625 -18 L220.65625 -18 L220.65625 18 L-220.65625 18"></path><path style="fill:#666 !important;stroke:#999 !important" fill="none" stroke-width="1.3" stroke="#999" d="M-220.65625 -18 C-121.21628184476072 -18, -21.77631368952143 -18, 220.65625 -18 M-220.65625 -18 C-90.07676722712762 -18, 40.50271554574476 -18, 220.65625 -18 M220.65625 -18 C220.65625 -6.201288569355567, 220.65625 5.597422861288866, 220.65625 18 M220.65625 -18 C220.65625 -7.292142053698585, 220.65625 3.4157158926028295, 220.65625 18 M220.65625 18 C63.334366738691784 18, -93.98751652261643 18, -220.65625 18 M220.65625 18 C59.92456654993748 18, -100.80711690012504 18, -220.65625 18 M-220.65625 18 C-220.65625 4.225144703651615, -220.65625 -9.54971059269677, -220.65625 -18 M-220.65625 18 C-220.65625 9.152398722495075, -220.65625 0.30479744499015027, -220.65625 -18"></path></g><g transform="translate(-214.65625, -12)" style="text-align:left !important;white-space:nowrap !important" class="label"><rect></rect><foreignObject height="24" width="429.3125"><div xmlns="http://www.w3.org/1999/xhtml" style="text-align: center; white-space: break-spaces; display: table; line-height: 1.5; max-width: 200px; width: 200px;"><span class="nodeLabel" style="text-align:left !important;white-space:nowrap !important"><p>扇入组件负责从多个输入通道读取数据并合并到单一输出通道</p></span></div></foreignObject></g></g><g transform="translate(109.40625, 157)" id="note1" class="node undefined"><g class="basic label-container"><path style="fill:#666 !important;stroke:#999 !important" fill="#666" stroke-width="0" stroke="none" d="M-101.40625 -18 L101.40625 -18 L101.40625 18 L-101.40625 18"></path><path style="fill:#666 !important;stroke:#999 !important" fill="none" stroke-width="1.3" stroke="#999" d="M-101.40625 -18 C-41.148231512259144 -18, 19.10978697548171 -18, 101.40625 -18 M-101.40625 -18 C-34.93614669508578 -18, 31.533956609828437 -18, 101.40625 -18 M101.40625 -18 C101.40625 -7.07626413741648, 101.40625 3.84747172516704, 101.40625 18 M101.40625 -18 C101.40625 -7.70351724900619, 101.40625 2.5929655019876208, 101.40625 18 M101.40625 18 C41.46661452457905 18, -18.4730209508419 18, -101.40625 18 M101.40625 18 C50.75755657437735 18, 0.10886314875469338 18, -101.40625 18 M-101.40625 18 C-101.40625 4.617267159856588, -101.40625 -8.765465680286823, -101.40625 -18 M-101.40625 18 C-101.40625 5.1879642464106865, -101.40625 -7.624071507178627, -101.40625 -18"></path></g><g transform="translate(-95.40625, -12)" style="text-align:left !important;white-space:nowrap !important" class="label"><rect></rect><foreignObject height="24" width="190.8125"><div xmlns="http://www.w3.org/1999/xhtml" style="text-align: center; white-space: nowrap; display: table-cell; line-height: 1.5; max-width: 200px;"><span class="nodeLabel" style="text-align:left !important;white-space:nowrap !important"><p>每个输入通道独立产生数据</p></span></div></foreignObject></g></g><g transform="translate(697.0703125, 157)" id="note2" class="node undefined"><g class="basic label-container"><path style="fill:#666 !important;stroke:#999 !important" fill="#666" stroke-width="0" stroke="none" d="M-117.3046875 -18 L117.3046875 -18 L117.3046875 18 L-117.3046875 18"></path><path style="fill:#666 !important;stroke:#999 !important" fill="none" stroke-width="1.3" stroke="#999" d="M-117.3046875 -18 C-49.30416685493941 -18, 18.69635379012118 -18, 117.3046875 -18 M-117.3046875 -18 C-39.25586291223425 -18, 38.7929616755315 -18, 117.3046875 -18 M117.3046875 -18 C117.3046875 -4.8720906887048585, 117.3046875 8.255818622590283, 117.3046875 18 M117.3046875 -18 C117.3046875 -5.4928374536715445, 117.3046875 7.014325092656911, 117.3046875 18 M117.3046875 18 C39.22279201053378 18, -38.85910347893244 18, -117.3046875 18 M117.3046875 18 C62.185006070232326 18, 7.065324640464652 18, -117.3046875 18 M-117.3046875 18 C-117.3046875 4.185624001694318, -117.3046875 -9.628751996611363, -117.3046875 -18 M-117.3046875 18 C-117.3046875 4.349466928030802, -117.3046875 -9.301066143938396, -117.3046875 -18"></path></g><g transform="translate(-111.3046875, -12)" style="text-align:left !important;white-space:nowrap !important" class="label"><rect></rect><foreignObject height="24" width="222.609375"><div xmlns="http://www.w3.org/1999/xhtml" style="text-align: center; white-space: break-spaces; display: table; line-height: 1.5; max-width: 200px; width: 200px;"><span class="nodeLabel" style="text-align:left !important;white-space:nowrap !important"><p>单一输出通道供下游消费者使用</p></span></div></foreignObject></g></g></g></g></g></svg>