<svg aria-roledescription="class" role="graphics-document document" viewBox="0 0 1040.01953125 512" style="max-width: 1040.01953125px;" class="classDiagram" xmlns:xlink="http://www.w3.org/1999/xlink" xmlns="http://www.w3.org/2000/svg" width="100%" id="mermaid-diagram-mermaid-zuvti96"><style>#mermaid-diagram-mermaid-zuvti96{font-family:"trebuchet ms",verdana,arial,sans-serif;font-size:16px;fill:#000000;}@keyframes edge-animation-frame{from{stroke-dashoffset:0;}}@keyframes dash{to{stroke-dashoffset:0;}}#mermaid-diagram-mermaid-zuvti96 .edge-animation-slow{stroke-dasharray:9,5!important;stroke-dashoffset:900;animation:dash 50s linear infinite;stroke-linecap:round;}#mermaid-diagram-mermaid-zuvti96 .edge-animation-fast{stroke-dasharray:9,5!important;stroke-dashoffset:900;animation:dash 20s linear infinite;stroke-linecap:round;}#mermaid-diagram-mermaid-zuvti96 .error-icon{fill:#552222;}#mermaid-diagram-mermaid-zuvti96 .error-text{fill:#552222;stroke:#552222;}#mermaid-diagram-mermaid-zuvti96 .edge-thickness-normal{stroke-width:1px;}#mermaid-diagram-mermaid-zuvti96 .edge-thickness-thick{stroke-width:3.5px;}#mermaid-diagram-mermaid-zuvti96 .edge-pattern-solid{stroke-dasharray:0;}#mermaid-diagram-mermaid-zuvti96 .edge-thickness-invisible{stroke-width:0;fill:none;}#mermaid-diagram-mermaid-zuvti96 .edge-pattern-dashed{stroke-dasharray:3;}#mermaid-diagram-mermaid-zuvti96 .edge-pattern-dotted{stroke-dasharray:2;}#mermaid-diagram-mermaid-zuvti96 .marker{fill:#666;stroke:#666;}#mermaid-diagram-mermaid-zuvti96 .marker.cross{stroke:#666;}#mermaid-diagram-mermaid-zuvti96 svg{font-family:"trebuchet ms",verdana,arial,sans-serif;font-size:16px;}#mermaid-diagram-mermaid-zuvti96 p{margin:0;}#mermaid-diagram-mermaid-zuvti96 g.classGroup text{fill:#999;stroke:none;font-family:"trebuchet ms",verdana,arial,sans-serif;font-size:10px;}#mermaid-diagram-mermaid-zuvti96 g.classGroup text .title{font-weight:bolder;}#mermaid-diagram-mermaid-zuvti96 .nodeLabel,#mermaid-diagram-mermaid-zuvti96 .edgeLabel{color:#111111;}#mermaid-diagram-mermaid-zuvti96 .edgeLabel .label rect{fill:#eee;}#mermaid-diagram-mermaid-zuvti96 .label text{fill:#111111;}#mermaid-diagram-mermaid-zuvti96 .labelBkg{background:#eee;}#mermaid-diagram-mermaid-zuvti96 .edgeLabel .label span{background:#eee;}#mermaid-diagram-mermaid-zuvti96 .classTitle{font-weight:bolder;}#mermaid-diagram-mermaid-zuvti96 .node rect,#mermaid-diagram-mermaid-zuvti96 .node circle,#mermaid-diagram-mermaid-zuvti96 .node ellipse,#mermaid-diagram-mermaid-zuvti96 .node polygon,#mermaid-diagram-mermaid-zuvti96 .node path{fill:#eee;stroke:#999;stroke-width:1px;}#mermaid-diagram-mermaid-zuvti96 .divider{stroke:#999;stroke-width:1;}#mermaid-diagram-mermaid-zuvti96 g.clickable{cursor:pointer;}#mermaid-diagram-mermaid-zuvti96 g.classGroup rect{fill:#eee;stroke:#999;}#mermaid-diagram-mermaid-zuvti96 g.classGroup line{stroke:#999;stroke-width:1;}#mermaid-diagram-mermaid-zuvti96 .classLabel .box{stroke:none;stroke-width:0;fill:#eee;opacity:0.5;}#mermaid-diagram-mermaid-zuvti96 .classLabel .label{fill:#999;font-size:10px;}#mermaid-diagram-mermaid-zuvti96 .relation{stroke:#666;stroke-width:1;fill:none;}#mermaid-diagram-mermaid-zuvti96 .dashed-line{stroke-dasharray:3;}#mermaid-diagram-mermaid-zuvti96 .dotted-line{stroke-dasharray:1 2;}#mermaid-diagram-mermaid-zuvti96 #compositionStart,#mermaid-diagram-mermaid-zuvti96 .composition{fill:#666!important;stroke:#666!important;stroke-width:1;}#mermaid-diagram-mermaid-zuvti96 #compositionEnd,#mermaid-diagram-mermaid-zuvti96 .composition{fill:#666!important;stroke:#666!important;stroke-width:1;}#mermaid-diagram-mermaid-zuvti96 #dependencyStart,#mermaid-diagram-mermaid-zuvti96 .dependency{fill:#666!important;stroke:#666!important;stroke-width:1;}#mermaid-diagram-mermaid-zuvti96 #dependencyStart,#mermaid-diagram-mermaid-zuvti96 .dependency{fill:#666!important;stroke:#666!important;stroke-width:1;}#mermaid-diagram-mermaid-zuvti96 #extensionStart,#mermaid-diagram-mermaid-zuvti96 .extension{fill:transparent!important;stroke:#666!important;stroke-width:1;}#mermaid-diagram-mermaid-zuvti96 #extensionEnd,#mermaid-diagram-mermaid-zuvti96 .extension{fill:transparent!important;stroke:#666!important;stroke-width:1;}#mermaid-diagram-mermaid-zuvti96 #aggregationStart,#mermaid-diagram-mermaid-zuvti96 .aggregation{fill:transparent!important;stroke:#666!important;stroke-width:1;}#mermaid-diagram-mermaid-zuvti96 #aggregationEnd,#mermaid-diagram-mermaid-zuvti96 .aggregation{fill:transparent!important;stroke:#666!important;stroke-width:1;}#mermaid-diagram-mermaid-zuvti96 #lollipopStart,#mermaid-diagram-mermaid-zuvti96 .lollipop{fill:#eee!important;stroke:#666!important;stroke-width:1;}#mermaid-diagram-mermaid-zuvti96 #lollipopEnd,#mermaid-diagram-mermaid-zuvti96 .lollipop{fill:#eee!important;stroke:#666!important;stroke-width:1;}#mermaid-diagram-mermaid-zuvti96 .edgeTerminals{font-size:11px;line-height:initial;}#mermaid-diagram-mermaid-zuvti96 .classTitleText{text-anchor:middle;font-size:18px;fill:#000000;}#mermaid-diagram-mermaid-zuvti96 :root{--mermaid-font-family:"trebuchet ms",verdana,arial,sans-serif;}</style><g><defs><marker orient="auto" markerHeight="240" markerWidth="190" refY="7" refX="18" class="marker aggregation class" id="mermaid-diagram-mermaid-zuvti96_class-aggregationStart"><path d="M 18,7 L9,13 L1,7 L9,1 Z"></path></marker></defs><defs><marker orient="auto" markerHeight="28" markerWidth="20" refY="7" refX="1" class="marker aggregation class" id="mermaid-diagram-mermaid-zuvti96_class-aggregationEnd"><path d="M 18,7 L9,13 L1,7 L9,1 Z"></path></marker></defs><defs><marker orient="auto" markerHeight="240" markerWidth="190" refY="7" refX="18" class="marker extension class" id="mermaid-diagram-mermaid-zuvti96_class-extensionStart"><path d="M 1,7 L18,13 V 1 Z"></path></marker></defs><defs><marker orient="auto" markerHeight="28" markerWidth="20" refY="7" refX="1" class="marker extension class" id="mermaid-diagram-mermaid-zuvti96_class-extensionEnd"><path d="M 1,1 V 13 L18,7 Z"></path></marker></defs><defs><marker orient="auto" markerHeight="240" markerWidth="190" refY="7" refX="18" class="marker composition class" id="mermaid-diagram-mermaid-zuvti96_class-compositionStart"><path d="M 18,7 L9,13 L1,7 L9,1 Z"></path></marker></defs><defs><marker orient="auto" markerHeight="28" markerWidth="20" refY="7" refX="1" class="marker composition class" id="mermaid-diagram-mermaid-zuvti96_class-compositionEnd"><path d="M 18,7 L9,13 L1,7 L9,1 Z"></path></marker></defs><defs><marker orient="auto" markerHeight="240" markerWidth="190" refY="7" refX="6" class="marker dependency class" id="mermaid-diagram-mermaid-zuvti96_class-dependencyStart"><path d="M 5,7 L9,13 L1,7 L9,1 Z"></path></marker></defs><defs><marker orient="auto" markerHeight="28" markerWidth="20" refY="7" refX="13" class="marker dependency class" id="mermaid-diagram-mermaid-zuvti96_class-dependencyEnd"><path d="M 18,7 L9,13 L14,7 L9,1 Z"></path></marker></defs><defs><marker orient="auto" markerHeight="240" markerWidth="190" refY="7" refX="13" class="marker lollipop class" id="mermaid-diagram-mermaid-zuvti96_class-lollipopStart"><circle r="6" cy="7" cx="7" fill="transparent" stroke="black"></circle></marker></defs><defs><marker orient="auto" markerHeight="240" markerWidth="190" refY="7" refX="1" class="marker lollipop class" id="mermaid-diagram-mermaid-zuvti96_class-lollipopEnd"><circle r="6" cy="7" cx="7" fill="transparent" stroke="black"></circle></marker></defs><g class="root"><g class="clusters"></g><g class="edgePaths"><path style="fill: none;" class="edge-thickness-normal edge-pattern-dotted relation" id="edgeNote1" d="M697.633,44L697.633,48.167C697.633,52.333,697.633,60.667,697.633,69C697.633,77.333,697.633,85.667,697.633,89.833L697.633,94"></path><path style="fill: none;" class="edge-thickness-normal edge-pattern-dotted relation" id="edgeNote2" d="M137.313,196L137.313,213.167C137.313,230.333,137.313,264.667,141.602,289.5C145.892,314.333,154.471,329.667,158.761,337.333L163.051,345"></path><path style="fill: none;" class="edge-thickness-normal edge-pattern-dotted relation" id="edgeNote3" d="M377.539,44L377.539,48.167C377.539,52.333,377.539,60.667,377.539,76C377.539,91.333,377.539,113.667,377.539,124.833L377.539,136"></path><path marker-end="url(#mermaid-diagram-mermaid-zuvti96_class-dependencyEnd)" style=";" class="edge-thickness-normal edge-pattern-solid relation" id="id_Router_Controller_1" d="M508.414,230.011L466.583,241.509C424.751,253.007,341.089,276.004,296.334,294.251C251.579,312.498,245.733,325.996,242.809,332.745L239.886,339.494"></path><path marker-end="url(#mermaid-diagram-mermaid-zuvti96_class-dependencyEnd)" style=";" class="edge-thickness-normal edge-pattern-solid relation" id="id_Router_Request_2" d="M642.7,262L638.668,268.167C634.635,274.333,626.569,286.667,622.537,298C618.504,309.333,618.504,319.667,618.504,324.833L618.504,330"></path><path marker-end="url(#mermaid-diagram-mermaid-zuvti96_class-dependencyEnd)" style=";" class="edge-thickness-normal edge-pattern-solid relation" id="id_Router_Response_3" d="M833.908,262L843.912,268.167C853.916,274.333,873.925,286.667,883.929,298C893.934,309.333,893.934,319.667,893.934,324.833L893.934,330"></path><path marker-end="url(#mermaid-diagram-mermaid-zuvti96_class-extensionEnd)" style=";" class="edge-thickness-normal edge-pattern-dashed relation" id="id_ExampleController_Controller_4" d="M377.539,220L377.539,233.167C377.539,246.333,377.539,272.667,369.064,291.777C360.589,310.888,343.639,322.776,335.164,328.72L326.688,334.664"></path></g><g class="edgeLabels"><g class="edgeLabel"><g transform="translate(0, 0)" class="label"><foreignObject height="0" width="0"><div class="labelBkg" xmlns="http://www.w3.org/1999/xhtml" style="display: table-cell; white-space: nowrap; line-height: 1.5; max-width: 200px; text-align: center;"><span class="edgeLabel" style=";"></span></div></foreignObject></g></g><g class="edgeLabel"><g transform="translate(0, 0)" class="label"><foreignObject height="0" width="0"><div class="labelBkg" xmlns="http://www.w3.org/1999/xhtml" style="display: table-cell; white-space: nowrap; line-height: 1.5; max-width: 200px; text-align: center;"><span class="edgeLabel" style=";"></span></div></foreignObject></g></g><g class="edgeLabel"><g transform="translate(0, 0)" class="label"><foreignObject height="0" width="0"><div class="labelBkg" xmlns="http://www.w3.org/1999/xhtml" style="display: table-cell; white-space: nowrap; line-height: 1.5; max-width: 200px; text-align: center;"><span class="edgeLabel" style=";"></span></div></foreignObject></g></g><g transform="translate(257.42578125, 299)" class="edgeLabel"><g transform="translate(-47.703125, -12)" class="label"><foreignObject height="24" width="95.40625"><div class="labelBkg" xmlns="http://www.w3.org/1999/xhtml" style="display: table-cell; white-space: nowrap; line-height: 1.5; max-width: 200px; text-align: center;"><span class="edgeLabel" style=";display: inline-block"><p>映射（关联）</p></span></div></foreignObject></g></g><g transform="translate(618.50390625, 299)" class="edgeLabel"><g transform="translate(-47.703125, -12)" class="label"><foreignObject height="24" width="95.40625"><div class="labelBkg" xmlns="http://www.w3.org/1999/xhtml" style="display: table-cell; white-space: nowrap; line-height: 1.5; max-width: 200px; text-align: center;"><span class="edgeLabel" style=";display: inline-block"><p>接收（关联）</p></span></div></foreignObject></g></g><g transform="translate(893.93359375, 299)" class="edgeLabel"><g transform="translate(-47.703125, -12)" class="label"><foreignObject height="24" width="95.40625"><div class="labelBkg" xmlns="http://www.w3.org/1999/xhtml" style="display: table-cell; white-space: nowrap; line-height: 1.5; max-width: 200px; text-align: center;"><span class="edgeLabel" style=";display: inline-block"><p>返回（关联）</p></span></div></foreignObject></g></g><g class="edgeLabel"><g transform="translate(0, -12)" class="label"><foreignObject height="24" width="0"><div class="labelBkg" xmlns="http://www.w3.org/1999/xhtml" style="display: table-cell; white-space: nowrap; line-height: 1.5; max-width: 200px; text-align: center;"><span class="edgeLabel" style=";display: inline-block"></span></div></foreignObject></g></g><g transform="translate(487.56430405089395, 220.18533265452442)" class="edgeTerminals"><g transform="translate(0, 0)" class="inner"><foreignObject style="width: 9px; height: 12px;"><div xmlns="http://www.w3.org/1999/xhtml" style="display: inline-block; padding-right: 1px; white-space: nowrap;"><span style=";display: inline-block" class="edgeLabel">1</span></div></foreignObject></g></g><g transform="translate(620.5684369424836, 268.4364980265066)" class="edgeTerminals"><g transform="translate(0, 0)" class="inner"><foreignObject style="width: 9px; height: 12px;"><div xmlns="http://www.w3.org/1999/xhtml" style="display: inline-block; padding-right: 1px; white-space: nowrap;"><span style=";display: inline-block" class="edgeLabel">1</span></div></foreignObject></g></g><g transform="translate(840.9341194542986, 283.9517631709499)" class="edgeTerminals"><g transform="translate(0, 0)" class="inner"><foreignObject style="width: 9px; height: 12px;"><div xmlns="http://www.w3.org/1999/xhtml" style="display: inline-block; padding-right: 1px; white-space: nowrap;"><span style=";display: inline-block" class="edgeLabel">1</span></div></foreignObject></g></g><g transform="translate(253.22109551452303, 329.90354696186233)" class="edgeTerminals"><g transform="translate(0, 0)" class="inner"></g><foreignObject style="width: 36px; height: 12px;"><div xmlns="http://www.w3.org/1999/xhtml" style="display: inline-block; padding-right: 1px; white-space: nowrap;"><span style=";display: inline-block" class="edgeLabel">0..*</span></div></foreignObject></g><g transform="translate(628.5039081249998, 313.50000160714285)" class="edgeTerminals"><g transform="translate(0, 0)" class="inner"></g><foreignObject style="width: 9px; height: 12px;"><div xmlns="http://www.w3.org/1999/xhtml" style="display: inline-block; padding-right: 1px; white-space: nowrap;"><span style=";display: inline-block" class="edgeLabel">1</span></div></foreignObject></g><g transform="translate(903.9335918749999, 313.49999839285715)" class="edgeTerminals"><g transform="translate(0, 0)" class="inner"></g><foreignObject style="width: 9px; height: 12px;"><div xmlns="http://www.w3.org/1999/xhtml" style="display: inline-block; padding-right: 1px; white-space: nowrap;"><span style=";display: inline-block" class="edgeLabel">1</span></div></foreignObject></g></g><g class="nodes"><g transform="translate(205.015625, 420)" id="classId-Controller-207" class="node default"><g class="basic label-container"><path style="" fill="#eee" stroke-width="0" stroke="none" d="M-197.015625 -75 L197.015625 -75 L197.015625 75 L-197.015625 75"></path><path style="" fill="none" stroke-width="1.3" stroke="#999" d="M-197.015625 -75 C-60.49557030556193 -75, 76.02448438887615 -75, 197.015625 -75 M-197.015625 -75 C-82.47457688771769 -75, 32.06647122456462 -75, 197.015625 -75 M197.015625 -75 C197.015625 -40.317578608090386, 197.015625 -5.635157216180772, 197.015625 75 M197.015625 -75 C197.015625 -34.52871748376673, 197.015625 5.942565032466547, 197.015625 75 M197.015625 75 C90.07548591818457 75, -16.864653163630862 75, -197.015625 75 M197.015625 75 C103.14407791666102 75, 9.272530833322037 75, -197.015625 75 M-197.015625 75 C-197.015625 30.463032112512344, -197.015625 -14.073935774975311, -197.015625 -75 M-197.015625 75 C-197.015625 43.0696708125481, -197.015625 11.1393416250962, -197.015625 -75"></path></g><g transform="translate(-40.625, -51)" class="annotation-group text"><g transform="translate(0,-12)" style="" class="label"><foreignObject height="24" width="81.25"><div xmlns="http://www.w3.org/1999/xhtml" style="display: table-cell; white-space: nowrap; line-height: 1.5; max-width: 131px; text-align: center;"><span style="" class="nodeLabel markdown-node-label"><p>«interface»</p></span></div></foreignObject></g></g><g transform="translate(-37.5, -27)" class="label-group text"><g transform="translate(0,-12)" style="font-weight: bolder" class="label"><foreignObject height="24" width="75"><div xmlns="http://www.w3.org/1999/xhtml" style="display: table-cell; white-space: nowrap; line-height: 1.5; max-width: 125px; text-align: center;"><span style="" class="nodeLabel markdown-node-label"><p>Controller</p></span></div></foreignObject></g></g><g transform="translate(-185.015625, 21)" class="members-group text"></g><g transform="translate(-185.015625, 51)" class="methods-group text"><g transform="translate(0,-12)" style="" class="label"><foreignObject height="24" width="329.40625"><div xmlns="http://www.w3.org/1999/xhtml" style="display: table-cell; white-space: nowrap; line-height: 1.5; max-width: 406px; text-align: center;"><span style="" class="nodeLabel markdown-node-label"><p>+HandleRequest(request : Request) : Response</p></span></div></foreignObject></g></g><g style="" class="divider"><path style="" fill="none" stroke-width="1.3" stroke="#999" d="M-197.015625 -3 C-102.29806133121541 -3, -7.580497662430815 -3, 197.015625 -3 M-197.015625 -3 C-107.84185242228547 -3, -18.66807984457094 -3, 197.015625 -3"></path></g><g style="" class="divider"><path style="" fill="none" stroke-width="1.3" stroke="#999" d="M-197.015625 21 C-86.93774911288982 21, 23.140126774220363 21, 197.015625 21 M-197.015625 21 C-112.69427987172239 21, -28.372934743444773 21, 197.015625 21"></path></g></g><g transform="translate(697.6328125, 178)" id="classId-Router-208" class="node default"><g class="basic label-container"><path style="" fill="#eee" stroke-width="0" stroke="none" d="M-189.21875 -84 L189.21875 -84 L189.21875 84 L-189.21875 84"></path><path style="" fill="none" stroke-width="1.3" stroke="#999" d="M-189.21875 -84 C-76.89165412861463 -84, 35.435441742770735 -84, 189.21875 -84 M-189.21875 -84 C-45.65569810695965 -84, 97.9073537860807 -84, 189.21875 -84 M189.21875 -84 C189.21875 -46.15937997302495, 189.21875 -8.318759946049894, 189.21875 84 M189.21875 -84 C189.21875 -40.49991525979725, 189.21875 3.0001694804055035, 189.21875 84 M189.21875 84 C66.5780830005246 84, -56.0625839989508 84, -189.21875 84 M189.21875 84 C45.80002776680857 84, -97.61869446638286 84, -189.21875 84 M-189.21875 84 C-189.21875 23.958123353282375, -189.21875 -36.08375329343525, -189.21875 -84 M-189.21875 84 C-189.21875 38.463154281412116, -189.21875 -7.073691437175768, -189.21875 -84"></path></g><g transform="translate(0, -60)" class="annotation-group text"></g><g transform="translate(-25.03125, -60)" class="label-group text"><g transform="translate(0,-12)" style="font-weight: bolder" class="label"><foreignObject height="24" width="50.0625"><div xmlns="http://www.w3.org/1999/xhtml" style="display: table-cell; white-space: nowrap; line-height: 1.5; max-width: 100px; text-align: center;"><span style="" class="nodeLabel markdown-node-label"><p>Router</p></span></div></foreignObject></g></g><g transform="translate(-177.21875, -12)" class="members-group text"><g transform="translate(0,-12)" style="" class="label"><foreignObject height="24" width="265.734375"><div xmlns="http://www.w3.org/1999/xhtml" style="display: table-cell; white-space: nowrap; line-height: 1.5; max-width: 372px; text-align: center;"><span style="" class="nodeLabel markdown-node-label"><p>-controllers : map&lt;string, Controller&gt;</p></span></div></foreignObject></g></g><g transform="translate(-177.21875, 36)" class="methods-group text"><g transform="translate(0,-12)" style="" class="label"><foreignObject height="24" width="310.203125"><div xmlns="http://www.w3.org/1999/xhtml" style="display: table-cell; white-space: nowrap; line-height: 1.5; max-width: 374px; text-align: center;"><span style="" class="nodeLabel markdown-node-label"><p>+AddController(path : string, c : Controller)</p></span></div></foreignObject></g><g transform="translate(0,12)" style="" class="label"><foreignObject height="24" width="329.40625"><div xmlns="http://www.w3.org/1999/xhtml" style="display: table-cell; white-space: nowrap; line-height: 1.5; max-width: 406px; text-align: center;"><span style="" class="nodeLabel markdown-node-label"><p>+HandleRequest(request : Request) : Response</p></span></div></foreignObject></g></g><g style="" class="divider"><path style="" fill="none" stroke-width="1.3" stroke="#999" d="M-189.21875 -36 C-65.09754312881786 -36, 59.02366374236428 -36, 189.21875 -36 M-189.21875 -36 C-102.36755021088888 -36, -15.516350421777759 -36, 189.21875 -36"></path></g><g style="" class="divider"><path style="" fill="none" stroke-width="1.3" stroke="#999" d="M-189.21875 12 C-64.52250482567703 12, 60.173740348645936 12, 189.21875 12 M-189.21875 12 C-80.6974711906816 12, 27.823807618636806 12, 189.21875 12"></path></g></g><g transform="translate(618.50390625, 420)" id="classId-Request-209" class="node default"><g class="basic label-container"><path style="" fill="#eee" stroke-width="0" stroke="none" d="M-87.34375 -84 L87.34375 -84 L87.34375 84 L-87.34375 84"></path><path style="" fill="none" stroke-width="1.3" stroke="#999" d="M-87.34375 -84 C-47.274103027584644 -84, -7.204456055169288 -84, 87.34375 -84 M-87.34375 -84 C-18.773869956162486 -84, 49.79601008767503 -84, 87.34375 -84 M87.34375 -84 C87.34375 -34.98317115549988, 87.34375 14.033657689000236, 87.34375 84 M87.34375 -84 C87.34375 -34.6629809020139, 87.34375 14.674038195972201, 87.34375 84 M87.34375 84 C42.93508359022376 84, -1.473582819552476 84, -87.34375 84 M87.34375 84 C37.22081192478419 84, -12.902126150431613 84, -87.34375 84 M-87.34375 84 C-87.34375 21.661329896508484, -87.34375 -40.67734020698303, -87.34375 -84 M-87.34375 84 C-87.34375 28.83009984314515, -87.34375 -26.339800313709702, -87.34375 -84"></path></g><g transform="translate(0, -60)" class="annotation-group text"></g><g transform="translate(-29.75, -60)" class="label-group text"><g transform="translate(0,-12)" style="font-weight: bolder" class="label"><foreignObject height="24" width="59.5"><div xmlns="http://www.w3.org/1999/xhtml" style="display: table-cell; white-space: nowrap; line-height: 1.5; max-width: 111px; text-align: center;"><span style="" class="nodeLabel markdown-node-label"><p>Request</p></span></div></foreignObject></g></g><g transform="translate(-75.34375, -12)" class="members-group text"><g transform="translate(0,-12)" style="" class="label"><foreignObject height="24" width="94.546875"><div xmlns="http://www.w3.org/1999/xhtml" style="display: table-cell; white-space: nowrap; line-height: 1.5; max-width: 155px; text-align: center;"><span style="" class="nodeLabel markdown-node-label"><p>+Path : string</p></span></div></foreignObject></g><g transform="translate(0,12)" style="" class="label"><foreignObject height="24" width="115.359375"><div xmlns="http://www.w3.org/1999/xhtml" style="display: table-cell; white-space: nowrap; line-height: 1.5; max-width: 180px; text-align: center;"><span style="" class="nodeLabel markdown-node-label"><p>+Method : string</p></span></div></foreignObject></g><g transform="translate(0,36)" style="" class="label"><foreignObject height="24" width="120.9375"><div xmlns="http://www.w3.org/1999/xhtml" style="display: table-cell; white-space: nowrap; line-height: 1.5; max-width: 180px; text-align: center;"><span style="" class="nodeLabel markdown-node-label"><p>+Payload : []byte</p></span></div></foreignObject></g></g><g transform="translate(-75.34375, 84)" class="methods-group text"></g><g style="" class="divider"><path style="" fill="none" stroke-width="1.3" stroke="#999" d="M-87.34375 -36 C-18.54631947621391 -36, 50.25111104757218 -36, 87.34375 -36 M-87.34375 -36 C-32.72282144987198 -36, 21.89810710025604 -36, 87.34375 -36"></path></g><g style="" class="divider"><path style="" fill="none" stroke-width="1.3" stroke="#999" d="M-87.34375 60 C-27.678183430922118 60, 31.987383138155764 60, 87.34375 60 M-87.34375 60 C-51.49054386916987 60, -15.637337738339738 60, 87.34375 60"></path></g></g><g transform="translate(893.93359375, 420)" id="classId-Response-210" class="node default"><g class="basic label-container"><path style="" fill="#eee" stroke-width="0" stroke="none" d="M-138.0859375 -84 L138.0859375 -84 L138.0859375 84 L-138.0859375 84"></path><path style="" fill="none" stroke-width="1.3" stroke="#999" d="M-138.0859375 -84 C-44.60045109170211 -84, 48.885035316595776 -84, 138.0859375 -84 M-138.0859375 -84 C-42.68303874746289 -84, 52.719860005074224 -84, 138.0859375 -84 M138.0859375 -84 C138.0859375 -21.215468034501527, 138.0859375 41.56906393099695, 138.0859375 84 M138.0859375 -84 C138.0859375 -17.805902389075726, 138.0859375 48.38819522184855, 138.0859375 84 M138.0859375 84 C76.71790355749526 84, 15.349869614990524 84, -138.0859375 84 M138.0859375 84 C49.49503459650538 84, -39.095868306989246 84, -138.0859375 84 M-138.0859375 84 C-138.0859375 22.129388919694392, -138.0859375 -39.741222160611215, -138.0859375 -84 M-138.0859375 84 C-138.0859375 21.123586015291934, -138.0859375 -41.75282796941613, -138.0859375 -84"></path></g><g transform="translate(0, -60)" class="annotation-group text"></g><g transform="translate(-34.484375, -60)" class="label-group text"><g transform="translate(0,-12)" style="font-weight: bolder" class="label"><foreignObject height="24" width="68.96875"><div xmlns="http://www.w3.org/1999/xhtml" style="display: table-cell; white-space: nowrap; line-height: 1.5; max-width: 123px; text-align: center;"><span style="" class="nodeLabel markdown-node-label"><p>Response</p></span></div></foreignObject></g></g><g transform="translate(-126.0859375, -12)" class="members-group text"><g transform="translate(0,-12)" style="" class="label"><foreignObject height="24" width="121.671875"><div xmlns="http://www.w3.org/1999/xhtml" style="display: table-cell; white-space: nowrap; line-height: 1.5; max-width: 186px; text-align: center;"><span style="" class="nodeLabel markdown-node-label"><p>+StatusCode : int</p></span></div></foreignObject></g><g transform="translate(0,12)" style="" class="label"><foreignObject height="24" width="217.6875"><div xmlns="http://www.w3.org/1999/xhtml" style="display: table-cell; white-space: nowrap; line-height: 1.5; max-width: 326px; text-align: center;"><span style="" class="nodeLabel markdown-node-label"><p>+Headers : map&lt;string, string&gt;</p></span></div></foreignObject></g><g transform="translate(0,36)" style="" class="label"><foreignObject height="24" width="100.578125"><div xmlns="http://www.w3.org/1999/xhtml" style="display: table-cell; white-space: nowrap; line-height: 1.5; max-width: 160px; text-align: center;"><span style="" class="nodeLabel markdown-node-label"><p>+Body : []byte</p></span></div></foreignObject></g></g><g transform="translate(-126.0859375, 84)" class="methods-group text"></g><g style="" class="divider"><path style="" fill="none" stroke-width="1.3" stroke="#999" d="M-138.0859375 -36 C-64.24149528520806 -36, 9.60294692958388 -36, 138.0859375 -36 M-138.0859375 -36 C-34.668874748777014 -36, 68.74818800244597 -36, 138.0859375 -36"></path></g><g style="" class="divider"><path style="" fill="none" stroke-width="1.3" stroke="#999" d="M-138.0859375 60 C-71.04228160446904 60, -3.9986257089380786 60, 138.0859375 60 M-138.0859375 60 C-59.88204059199026 60, 18.321856316019478 60, 138.0859375 60"></path></g></g><g transform="translate(377.5390625, 178)" id="classId-ExampleController-211" class="node default"><g class="basic label-container"><path style="" fill="#eee" stroke-width="0" stroke="none" d="M-80.875 -42 L80.875 -42 L80.875 42 L-80.875 42"></path><path style="" fill="none" stroke-width="1.3" stroke="#999" d="M-80.875 -42 C-23.50987553347231 -42, 33.85524893305538 -42, 80.875 -42 M-80.875 -42 C-46.06180069861476 -42, -11.248601397229521 -42, 80.875 -42 M80.875 -42 C80.875 -24.781156683425927, 80.875 -7.562313366851853, 80.875 42 M80.875 -42 C80.875 -21.716844855146043, 80.875 -1.4336897102920858, 80.875 42 M80.875 42 C32.189308389500034 42, -16.49638322099993 42, -80.875 42 M80.875 42 C23.567085796513318 42, -33.740828406973364 42, -80.875 42 M-80.875 42 C-80.875 10.633901579415777, -80.875 -20.732196841168445, -80.875 -42 M-80.875 42 C-80.875 17.64968533710956, -80.875 -6.700629325780881, -80.875 -42"></path></g><g transform="translate(0, -18)" class="annotation-group text"></g><g transform="translate(-68.875, -18)" class="label-group text"><g transform="translate(0,-12)" style="font-weight: bolder" class="label"><foreignObject height="24" width="137.75"><div xmlns="http://www.w3.org/1999/xhtml" style="display: table-cell; white-space: nowrap; line-height: 1.5; max-width: 188px; text-align: center;"><span style="" class="nodeLabel markdown-node-label"><p>ExampleController</p></span></div></foreignObject></g></g><g transform="translate(-68.875, 30)" class="members-group text"></g><g transform="translate(-68.875, 60)" class="methods-group text"></g><g style="" class="divider"><path style="" fill="none" stroke-width="1.3" stroke="#999" d="M-80.875 6 C-21.93614385604269 6, 37.00271228791462 6, 80.875 6 M-80.875 6 C-17.216763760374114 6, 46.44147247925177 6, 80.875 6"></path></g><g style="" class="divider"><path style="" fill="none" stroke-width="1.3" stroke="#999" d="M-80.875 24 C-30.45102206859376 24, 19.972955862812483 24, 80.875 24 M-80.875 24 C-44.96505131504053 24, -9.055102630081066 24, 80.875 24"></path></g></g><g transform="translate(697.6328125, 26)" id="note0" class="node undefined"><g class="basic label-container"><path style="fill:#666 !important;stroke:#999 !important" fill="#666" stroke-width="0" stroke="none" d="M-141.15625 -18 L141.15625 -18 L141.15625 18 L-141.15625 18"></path><path style="fill:#666 !important;stroke:#999 !important" fill="none" stroke-width="1.3" stroke="#999" d="M-141.15625 -18 C-34.11814268106032 -18, 72.91996463787936 -18, 141.15625 -18 M-141.15625 -18 C-52.22921972798747 -18, 36.69781054402506 -18, 141.15625 -18 M141.15625 -18 C141.15625 -7.8127928494047865, 141.15625 2.374414301190427, 141.15625 18 M141.15625 -18 C141.15625 -9.840833327482096, 141.15625 -1.681666654964193, 141.15625 18 M141.15625 18 C46.707791255951065 18, -47.74066748809787 18, -141.15625 18 M141.15625 18 C50.90629654235562 18, -39.34365691528876 18, -141.15625 18 M-141.15625 18 C-141.15625 7.422785794813356, -141.15625 -3.1544284103732885, -141.15625 -18 M-141.15625 18 C-141.15625 6.750845021616916, -141.15625 -4.4983099567661675, -141.15625 -18"></path></g><g transform="translate(-135.15625, -12)" style="text-align:left !important;white-space:nowrap !important" class="label"><rect></rect><foreignObject height="24" width="270.3125"><div xmlns="http://www.w3.org/1999/xhtml" style="text-align: center; white-space: break-spaces; display: table; line-height: 1.5; max-width: 200px; width: 200px;"><span class="nodeLabel" style="text-align:left !important;white-space:nowrap !important"><p>路由器负责根据路径查找并调用控制器</p></span></div></foreignObject></g></g><g transform="translate(137.3125, 178)" id="note1" class="node undefined"><g class="basic label-container"><path style="fill:#666 !important;stroke:#999 !important" fill="#666" stroke-width="0" stroke="none" d="M-109.3515625 -18 L109.3515625 -18 L109.3515625 18 L-109.3515625 18"></path><path style="fill:#666 !important;stroke:#999 !important" fill="none" stroke-width="1.3" stroke="#999" d="M-109.3515625 -18 C-55.018147836470085 -18, -0.6847331729401702 -18, 109.3515625 -18 M-109.3515625 -18 C-59.736049295860816 -18, -10.120536091721632 -18, 109.3515625 -18 M109.3515625 -18 C109.3515625 -4.3914578825894015, 109.3515625 9.217084234821197, 109.3515625 18 M109.3515625 -18 C109.3515625 -9.867158248741813, 109.3515625 -1.7343164974836256, 109.3515625 18 M109.3515625 18 C40.302551123092044 18, -28.74646025381591 18, -109.3515625 18 M109.3515625 18 C58.1727142743597 18, 6.993866048719397 18, -109.3515625 18 M-109.3515625 18 C-109.3515625 9.86459460229615, -109.3515625 1.7291892045922985, -109.3515625 -18 M-109.3515625 18 C-109.3515625 3.6049032142268906, -109.3515625 -10.790193571546219, -109.3515625 -18"></path></g><g transform="translate(-103.3515625, -12)" style="text-align:left !important;white-space:nowrap !important" class="label"><rect></rect><foreignObject height="24" width="206.703125"><div xmlns="http://www.w3.org/1999/xhtml" style="text-align: center; white-space: break-spaces; display: table; line-height: 1.5; max-width: 200px; width: 200px;"><span class="nodeLabel" style="text-align:left !important;white-space:nowrap !important"><p>抽象接口，定义统一处理方法</p></span></div></foreignObject></g></g><g transform="translate(377.5390625, 26)" id="note2" class="node undefined"><g class="basic label-container"><path style="fill:#666 !important;stroke:#999 !important" fill="#666" stroke-width="0" stroke="none" d="M-93.453125 -18 L93.453125 -18 L93.453125 18 L-93.453125 18"></path><path style="fill:#666 !important;stroke:#999 !important" fill="none" stroke-width="1.3" stroke="#999" d="M-93.453125 -18 C-24.203097845939766 -18, 45.04692930812047 -18, 93.453125 -18 M-93.453125 -18 C-39.28119785490371 -18, 14.890729290192581 -18, 93.453125 -18 M93.453125 -18 C93.453125 -4.963964281118226, 93.453125 8.072071437763547, 93.453125 18 M93.453125 -18 C93.453125 -7.483580022261769, 93.453125 3.0328399554764616, 93.453125 18 M93.453125 18 C41.847925322185276 18, -9.757274355629448 18, -93.453125 18 M93.453125 18 C27.615392835712996 18, -38.22233932857401 18, -93.453125 18 M-93.453125 18 C-93.453125 6.630904529265258, -93.453125 -4.738190941469483, -93.453125 -18 M-93.453125 18 C-93.453125 4.310217306530692, -93.453125 -9.379565386938616, -93.453125 -18"></path></g><g transform="translate(-87.453125, -12)" style="text-align:left !important;white-space:nowrap !important" class="label"><rect></rect><foreignObject height="24" width="174.90625"><div xmlns="http://www.w3.org/1999/xhtml" style="text-align: center; white-space: nowrap; display: table-cell; line-height: 1.5; max-width: 200px;"><span class="nodeLabel" style="text-align:left !important;white-space:nowrap !important"><p>具体控制器实现业务逻辑</p></span></div></foreignObject></g></g></g></g></g></svg>