<svg aria-roledescription="class" role="graphics-document document" viewBox="0 0 1035.328125 488" style="max-width: 1035.328125px;" class="classDiagram" xmlns:xlink="http://www.w3.org/1999/xlink" xmlns="http://www.w3.org/2000/svg" width="100%" id="mermaid-diagram-mermaid-e647q50"><style>#mermaid-diagram-mermaid-e647q50{font-family:"trebuchet ms",verdana,arial,sans-serif;font-size:16px;fill:#000000;}@keyframes edge-animation-frame{from{stroke-dashoffset:0;}}@keyframes dash{to{stroke-dashoffset:0;}}#mermaid-diagram-mermaid-e647q50 .edge-animation-slow{stroke-dasharray:9,5!important;stroke-dashoffset:900;animation:dash 50s linear infinite;stroke-linecap:round;}#mermaid-diagram-mermaid-e647q50 .edge-animation-fast{stroke-dasharray:9,5!important;stroke-dashoffset:900;animation:dash 20s linear infinite;stroke-linecap:round;}#mermaid-diagram-mermaid-e647q50 .error-icon{fill:#552222;}#mermaid-diagram-mermaid-e647q50 .error-text{fill:#552222;stroke:#552222;}#mermaid-diagram-mermaid-e647q50 .edge-thickness-normal{stroke-width:1px;}#mermaid-diagram-mermaid-e647q50 .edge-thickness-thick{stroke-width:3.5px;}#mermaid-diagram-mermaid-e647q50 .edge-pattern-solid{stroke-dasharray:0;}#mermaid-diagram-mermaid-e647q50 .edge-thickness-invisible{stroke-width:0;fill:none;}#mermaid-diagram-mermaid-e647q50 .edge-pattern-dashed{stroke-dasharray:3;}#mermaid-diagram-mermaid-e647q50 .edge-pattern-dotted{stroke-dasharray:2;}#mermaid-diagram-mermaid-e647q50 .marker{fill:#666;stroke:#666;}#mermaid-diagram-mermaid-e647q50 .marker.cross{stroke:#666;}#mermaid-diagram-mermaid-e647q50 svg{font-family:"trebuchet ms",verdana,arial,sans-serif;font-size:16px;}#mermaid-diagram-mermaid-e647q50 p{margin:0;}#mermaid-diagram-mermaid-e647q50 g.classGroup text{fill:#999;stroke:none;font-family:"trebuchet ms",verdana,arial,sans-serif;font-size:10px;}#mermaid-diagram-mermaid-e647q50 g.classGroup text .title{font-weight:bolder;}#mermaid-diagram-mermaid-e647q50 .nodeLabel,#mermaid-diagram-mermaid-e647q50 .edgeLabel{color:#111111;}#mermaid-diagram-mermaid-e647q50 .edgeLabel .label rect{fill:#eee;}#mermaid-diagram-mermaid-e647q50 .label text{fill:#111111;}#mermaid-diagram-mermaid-e647q50 .labelBkg{background:#eee;}#mermaid-diagram-mermaid-e647q50 .edgeLabel .label span{background:#eee;}#mermaid-diagram-mermaid-e647q50 .classTitle{font-weight:bolder;}#mermaid-diagram-mermaid-e647q50 .node rect,#mermaid-diagram-mermaid-e647q50 .node circle,#mermaid-diagram-mermaid-e647q50 .node ellipse,#mermaid-diagram-mermaid-e647q50 .node polygon,#mermaid-diagram-mermaid-e647q50 .node path{fill:#eee;stroke:#999;stroke-width:1px;}#mermaid-diagram-mermaid-e647q50 .divider{stroke:#999;stroke-width:1;}#mermaid-diagram-mermaid-e647q50 g.clickable{cursor:pointer;}#mermaid-diagram-mermaid-e647q50 g.classGroup rect{fill:#eee;stroke:#999;}#mermaid-diagram-mermaid-e647q50 g.classGroup line{stroke:#999;stroke-width:1;}#mermaid-diagram-mermaid-e647q50 .classLabel .box{stroke:none;stroke-width:0;fill:#eee;opacity:0.5;}#mermaid-diagram-mermaid-e647q50 .classLabel .label{fill:#999;font-size:10px;}#mermaid-diagram-mermaid-e647q50 .relation{stroke:#666;stroke-width:1;fill:none;}#mermaid-diagram-mermaid-e647q50 .dashed-line{stroke-dasharray:3;}#mermaid-diagram-mermaid-e647q50 .dotted-line{stroke-dasharray:1 2;}#mermaid-diagram-mermaid-e647q50 #compositionStart,#mermaid-diagram-mermaid-e647q50 .composition{fill:#666!important;stroke:#666!important;stroke-width:1;}#mermaid-diagram-mermaid-e647q50 #compositionEnd,#mermaid-diagram-mermaid-e647q50 .composition{fill:#666!important;stroke:#666!important;stroke-width:1;}#mermaid-diagram-mermaid-e647q50 #dependencyStart,#mermaid-diagram-mermaid-e647q50 .dependency{fill:#666!important;stroke:#666!important;stroke-width:1;}#mermaid-diagram-mermaid-e647q50 #dependencyStart,#mermaid-diagram-mermaid-e647q50 .dependency{fill:#666!important;stroke:#666!important;stroke-width:1;}#mermaid-diagram-mermaid-e647q50 #extensionStart,#mermaid-diagram-mermaid-e647q50 .extension{fill:transparent!important;stroke:#666!important;stroke-width:1;}#mermaid-diagram-mermaid-e647q50 #extensionEnd,#mermaid-diagram-mermaid-e647q50 .extension{fill:transparent!important;stroke:#666!important;stroke-width:1;}#mermaid-diagram-mermaid-e647q50 #aggregationStart,#mermaid-diagram-mermaid-e647q50 .aggregation{fill:transparent!important;stroke:#666!important;stroke-width:1;}#mermaid-diagram-mermaid-e647q50 #aggregationEnd,#mermaid-diagram-mermaid-e647q50 .aggregation{fill:transparent!important;stroke:#666!important;stroke-width:1;}#mermaid-diagram-mermaid-e647q50 #lollipopStart,#mermaid-diagram-mermaid-e647q50 .lollipop{fill:#eee!important;stroke:#666!important;stroke-width:1;}#mermaid-diagram-mermaid-e647q50 #lollipopEnd,#mermaid-diagram-mermaid-e647q50 .lollipop{fill:#eee!important;stroke:#666!important;stroke-width:1;}#mermaid-diagram-mermaid-e647q50 .edgeTerminals{font-size:11px;line-height:initial;}#mermaid-diagram-mermaid-e647q50 .classTitleText{text-anchor:middle;font-size:18px;fill:#000000;}#mermaid-diagram-mermaid-e647q50 :root{--mermaid-font-family:"trebuchet ms",verdana,arial,sans-serif;}</style><g><defs><marker orient="auto" markerHeight="240" markerWidth="190" refY="7" refX="18" class="marker aggregation class" id="mermaid-diagram-mermaid-e647q50_class-aggregationStart"><path d="M 18,7 L9,13 L1,7 L9,1 Z"></path></marker></defs><defs><marker orient="auto" markerHeight="28" markerWidth="20" refY="7" refX="1" class="marker aggregation class" id="mermaid-diagram-mermaid-e647q50_class-aggregationEnd"><path d="M 18,7 L9,13 L1,7 L9,1 Z"></path></marker></defs><defs><marker orient="auto" markerHeight="240" markerWidth="190" refY="7" refX="18" class="marker extension class" id="mermaid-diagram-mermaid-e647q50_class-extensionStart"><path d="M 1,7 L18,13 V 1 Z"></path></marker></defs><defs><marker orient="auto" markerHeight="28" markerWidth="20" refY="7" refX="1" class="marker extension class" id="mermaid-diagram-mermaid-e647q50_class-extensionEnd"><path d="M 1,1 V 13 L18,7 Z"></path></marker></defs><defs><marker orient="auto" markerHeight="240" markerWidth="190" refY="7" refX="18" class="marker composition class" id="mermaid-diagram-mermaid-e647q50_class-compositionStart"><path d="M 18,7 L9,13 L1,7 L9,1 Z"></path></marker></defs><defs><marker orient="auto" markerHeight="28" markerWidth="20" refY="7" refX="1" class="marker composition class" id="mermaid-diagram-mermaid-e647q50_class-compositionEnd"><path d="M 18,7 L9,13 L1,7 L9,1 Z"></path></marker></defs><defs><marker orient="auto" markerHeight="240" markerWidth="190" refY="7" refX="6" class="marker dependency class" id="mermaid-diagram-mermaid-e647q50_class-dependencyStart"><path d="M 5,7 L9,13 L1,7 L9,1 Z"></path></marker></defs><defs><marker orient="auto" markerHeight="28" markerWidth="20" refY="7" refX="13" class="marker dependency class" id="mermaid-diagram-mermaid-e647q50_class-dependencyEnd"><path d="M 18,7 L9,13 L14,7 L9,1 Z"></path></marker></defs><defs><marker orient="auto" markerHeight="240" markerWidth="190" refY="7" refX="13" class="marker lollipop class" id="mermaid-diagram-mermaid-e647q50_class-lollipopStart"><circle r="6" cy="7" cx="7" fill="transparent" stroke="black"></circle></marker></defs><defs><marker orient="auto" markerHeight="240" markerWidth="190" refY="7" refX="1" class="marker lollipop class" id="mermaid-diagram-mermaid-e647q50_class-lollipopEnd"><circle r="6" cy="7" cx="7" fill="transparent" stroke="black"></circle></marker></defs><g class="root"><g class="clusters"></g><g class="edgePaths"><path style="fill: none;" class="edge-thickness-normal edge-pattern-dotted relation" id="edgeNote1" d="M835.391,44L835.391,48.167C835.391,52.333,835.391,60.667,835.391,69C835.391,77.333,835.391,85.667,835.391,89.833L835.391,94"></path><path style="fill: none;" class="edge-thickness-normal edge-pattern-dotted relation" id="edgeNote2" d="M125.305,196L125.305,213.167C125.305,230.333,125.305,264.667,141.461,289.5C157.618,314.333,189.931,329.667,206.087,337.333L222.244,345"></path><path style="fill: none;" class="edge-thickness-normal edge-pattern-dotted relation" id="edgeNote3" d="M355.008,44L355.008,48.167C355.008,52.333,355.008,60.667,355.008,76C355.008,91.333,355.008,113.667,355.008,124.833L355.008,136"></path><path marker-end="url(#mermaid-diagram-mermaid-e647q50_class-dependencyEnd)" style=";" class="edge-thickness-normal edge-pattern-solid relation" id="id_Router_Handler_1" d="M643.453,217.017L576.237,230.681C509.021,244.345,374.589,271.672,314.725,292.314C254.862,312.957,269.568,326.913,276.921,333.891L284.274,340.87"></path><path marker-end="url(#mermaid-diagram-mermaid-e647q50_class-dependencyEnd)" style=";" class="edge-thickness-normal edge-pattern-solid relation" id="id_Router_Request_2" d="M776.163,262L771.815,268.167C767.467,274.333,758.77,286.667,754.422,298C750.074,309.333,750.074,319.667,750.074,324.833L750.074,330"></path><path marker-end="url(#mermaid-diagram-mermaid-e647q50_class-dependencyEnd)" style=";" class="edge-thickness-normal edge-pattern-solid relation" id="id_Router_ResponseWriter_3" d="M918.238,262L924.32,268.167C930.402,274.333,942.566,286.667,948.648,303C954.73,319.333,954.73,339.667,954.73,349.833L954.73,360"></path><path marker-end="url(#mermaid-diagram-mermaid-e647q50_class-extensionEnd)" style=";" class="edge-thickness-normal edge-pattern-dashed relation" id="id_HomeHandler_Handler_4" d="M355.008,220L355.008,233.167C355.008,246.333,355.008,272.667,355.008,290.5C355.008,308.333,355.008,317.667,355.008,322.333L355.008,327"></path><path marker-end="url(#mermaid-diagram-mermaid-e647q50_class-extensionEnd)" style=";" class="edge-thickness-normal edge-pattern-dashed relation" id="id_AboutHandler_Handler_5" d="M530.43,220L530.43,233.167C530.43,246.333,530.43,272.667,520.639,291.917C510.849,311.167,491.268,323.333,481.478,329.417L471.687,335.5"></path></g><g class="edgeLabels"><g class="edgeLabel"><g transform="translate(0, 0)" class="label"><foreignObject height="0" width="0"><div class="labelBkg" xmlns="http://www.w3.org/1999/xhtml" style="display: table-cell; white-space: nowrap; line-height: 1.5; max-width: 200px; text-align: center;"><span class="edgeLabel" style=";"></span></div></foreignObject></g></g><g class="edgeLabel"><g transform="translate(0, 0)" class="label"><foreignObject height="0" width="0"><div class="labelBkg" xmlns="http://www.w3.org/1999/xhtml" style="display: table-cell; white-space: nowrap; line-height: 1.5; max-width: 200px; text-align: center;"><span class="edgeLabel" style=";"></span></div></foreignObject></g></g><g class="edgeLabel"><g transform="translate(0, 0)" class="label"><foreignObject height="0" width="0"><div class="labelBkg" xmlns="http://www.w3.org/1999/xhtml" style="display: table-cell; white-space: nowrap; line-height: 1.5; max-width: 200px; text-align: center;"><span class="edgeLabel" style=";"></span></div></foreignObject></g></g><g transform="translate(240.15625, 299)" class="edgeLabel"><g transform="translate(-47.703125, -12)" class="label"><foreignObject height="24" width="95.40625"><div class="labelBkg" xmlns="http://www.w3.org/1999/xhtml" style="display: table-cell; white-space: nowrap; line-height: 1.5; max-width: 200px; text-align: center;"><span class="edgeLabel" style=";display: inline-block"><p>映射（关联）</p></span></div></foreignObject></g></g><g transform="translate(750.07421875, 299)" class="edgeLabel"><g transform="translate(-47.703125, -12)" class="label"><foreignObject height="24" width="95.40625"><div class="labelBkg" xmlns="http://www.w3.org/1999/xhtml" style="display: table-cell; white-space: nowrap; line-height: 1.5; max-width: 200px; text-align: center;"><span class="edgeLabel" style=";display: inline-block"><p>接收（关联）</p></span></div></foreignObject></g></g><g transform="translate(954.73046875, 299)" class="edgeLabel"><g transform="translate(-47.703125, -12)" class="label"><foreignObject height="24" width="95.40625"><div class="labelBkg" xmlns="http://www.w3.org/1999/xhtml" style="display: table-cell; white-space: nowrap; line-height: 1.5; max-width: 200px; text-align: center;"><span class="edgeLabel" style=";display: inline-block"><p>返回（关联）</p></span></div></foreignObject></g></g><g class="edgeLabel"><g transform="translate(0, -12)" class="label"><foreignObject height="24" width="0"><div class="labelBkg" xmlns="http://www.w3.org/1999/xhtml" style="display: table-cell; white-space: nowrap; line-height: 1.5; max-width: 200px; text-align: center;"><span class="edgeLabel" style=";display: inline-block"></span></div></foreignObject></g></g><g class="edgeLabel"><g transform="translate(0, -12)" class="label"><foreignObject height="24" width="0"><div class="labelBkg" xmlns="http://www.w3.org/1999/xhtml" style="display: table-cell; white-space: nowrap; line-height: 1.5; max-width: 200px; text-align: center;"><span class="edgeLabel" style=";display: inline-block"></span></div></foreignObject></g></g><g transform="translate(623.3157644922272, 205.8040575240326)" class="edgeTerminals"><g transform="translate(0, 0)" class="inner"><foreignObject style="width: 9px; height: 12px;"><div xmlns="http://www.w3.org/1999/xhtml" style="display: inline-block; padding-right: 1px; white-space: nowrap;"><span style=";display: inline-block" class="edgeLabel">1</span></div></foreignObject></g></g><g transform="translate(753.8192063058108, 267.65844512435854)" class="edgeTerminals"><g transform="translate(0, 0)" class="inner"><foreignObject style="width: 9px; height: 12px;"><div xmlns="http://www.w3.org/1999/xhtml" style="display: inline-block; padding-right: 1px; white-space: nowrap;"><span style=";display: inline-block" class="edgeLabel">1</span></div></foreignObject></g></g><g transform="translate(919.847106995034, 284.9926344404375)" class="edgeTerminals"><g transform="translate(0, 0)" class="inner"><foreignObject style="width: 9px; height: 12px;"><div xmlns="http://www.w3.org/1999/xhtml" style="display: inline-block; padding-right: 1px; white-space: nowrap;"><span style=";display: inline-block" class="edgeLabel">1</span></div></foreignObject></g></g><g transform="translate(281.25802813030685, 317.0730702597845)" class="edgeTerminals"><g transform="translate(0, 0)" class="inner"></g><foreignObject style="width: 36px; height: 12px;"><div xmlns="http://www.w3.org/1999/xhtml" style="display: inline-block; padding-right: 1px; white-space: nowrap;"><span style=";display: inline-block" class="edgeLabel">0..*</span></div></foreignObject></g><g transform="translate(760.074219375, 313.50000053571426)" class="edgeTerminals"><g transform="translate(0, 0)" class="inner"></g><foreignObject style="width: 9px; height: 12px;"><div xmlns="http://www.w3.org/1999/xhtml" style="display: inline-block; padding-right: 1px; white-space: nowrap;"><span style=";display: inline-block" class="edgeLabel">1</span></div></foreignObject></g><g transform="translate(964.730469375, 343.50000053571426)" class="edgeTerminals"><g transform="translate(0, 0)" class="inner"></g><foreignObject style="width: 9px; height: 12px;"><div xmlns="http://www.w3.org/1999/xhtml" style="display: inline-block; padding-right: 1px; white-space: nowrap;"><span style=";display: inline-block" class="edgeLabel">1</span></div></foreignObject></g></g><g class="nodes"><g transform="translate(835.390625, 178)" id="classId-Router-282" class="node default"><g class="basic label-container"><path style="" fill="#eee" stroke-width="0" stroke="none" d="M-191.9375 -84 L191.9375 -84 L191.9375 84 L-191.9375 84"></path><path style="" fill="none" stroke-width="1.3" stroke="#999" d="M-191.9375 -84 C-83.89828390637139 -84, 24.14093218725722 -84, 191.9375 -84 M-191.9375 -84 C-107.67995964258161 -84, -23.422419285163215 -84, 191.9375 -84 M191.9375 -84 C191.9375 -38.67223586716711, 191.9375 6.6555282656657795, 191.9375 84 M191.9375 -84 C191.9375 -49.44535791986796, 191.9375 -14.890715839735918, 191.9375 84 M191.9375 84 C81.53236384554631 84, -28.872772308907372 84, -191.9375 84 M191.9375 84 C39.61590129058888 84, -112.70569741882224 84, -191.9375 84 M-191.9375 84 C-191.9375 49.10460826262685, -191.9375 14.209216525253694, -191.9375 -84 M-191.9375 84 C-191.9375 28.373439742335428, -191.9375 -27.253120515329144, -191.9375 -84"></path></g><g transform="translate(0, -60)" class="annotation-group text"></g><g transform="translate(-25.03125, -60)" class="label-group text"><g transform="translate(0,-12)" style="font-weight: bolder" class="label"><foreignObject height="24" width="50.0625"><div xmlns="http://www.w3.org/1999/xhtml" style="display: table-cell; white-space: nowrap; line-height: 1.5; max-width: 100px; text-align: center;"><span style="" class="nodeLabel markdown-node-label"><p>Router</p></span></div></foreignObject></g></g><g transform="translate(-179.9375, -12)" class="members-group text"><g transform="translate(0,-12)" style="" class="label"><foreignObject height="24" width="233.796875"><div xmlns="http://www.w3.org/1999/xhtml" style="display: table-cell; white-space: nowrap; line-height: 1.5; max-width: 340px; text-align: center;"><span style="" class="nodeLabel markdown-node-label"><p>-handlers : map&lt;string, Handler&gt;</p></span></div></foreignObject></g></g><g transform="translate(-179.9375, 36)" class="methods-group text"><g transform="translate(0,-12)" style="" class="label"><foreignObject height="24" width="324.609375"><div xmlns="http://www.w3.org/1999/xhtml" style="display: table-cell; white-space: nowrap; line-height: 1.5; max-width: 389px; text-align: center;"><span style="" class="nodeLabel markdown-node-label"><p>+HandleFunc(path : string, handler : Handler)</p></span></div></foreignObject></g><g transform="translate(0,12)" style="" class="label"><foreignObject height="24" width="334.84375"><div xmlns="http://www.w3.org/1999/xhtml" style="display: table-cell; white-space: nowrap; line-height: 1.5; max-width: 410px; text-align: center;"><span style="" class="nodeLabel markdown-node-label"><p>+ServeHTTP(w : ResponseWriter, req : Request)</p></span></div></foreignObject></g></g><g style="" class="divider"><path style="" fill="none" stroke-width="1.3" stroke="#999" d="M-191.9375 -36 C-109.15720658365815 -36, -26.376913167316303 -36, 191.9375 -36 M-191.9375 -36 C-110.03880211711758 -36, -28.140104234235167 -36, 191.9375 -36"></path></g><g style="" class="divider"><path style="" fill="none" stroke-width="1.3" stroke="#999" d="M-191.9375 12 C-51.814426591217796 12, 88.30864681756441 12, 191.9375 12 M-191.9375 12 C-49.93292466577057 12, 92.07165066845886 12, 191.9375 12"></path></g></g><g transform="translate(355.0078125, 408)" id="classId-Handler-283" class="node default"><g class="basic label-container"><path style="" fill="#eee" stroke-width="0" stroke="none" d="M-175.1953125 -63 L175.1953125 -63 L175.1953125 63 L-175.1953125 63"></path><path style="" fill="none" stroke-width="1.3" stroke="#999" d="M-175.1953125 -63 C-41.73337841540595 -63, 91.7285556691881 -63, 175.1953125 -63 M-175.1953125 -63 C-101.38206233790471 -63, -27.568812175809427 -63, 175.1953125 -63 M175.1953125 -63 C175.1953125 -29.530043409405167, 175.1953125 3.9399131811896666, 175.1953125 63 M175.1953125 -63 C175.1953125 -22.340781133764708, 175.1953125 18.318437732470585, 175.1953125 63 M175.1953125 63 C37.56649629375218 63, -100.06231991249564 63, -175.1953125 63 M175.1953125 63 C58.07407285800545 63, -59.0471667839891 63, -175.1953125 63 M-175.1953125 63 C-175.1953125 19.436352395174012, -175.1953125 -24.127295209651976, -175.1953125 -63 M-175.1953125 63 C-175.1953125 14.109682602737998, -175.1953125 -34.780634794524005, -175.1953125 -63"></path></g><g transform="translate(0, -39)" class="annotation-group text"></g><g transform="translate(-29.125, -39)" class="label-group text"><g transform="translate(0,-12)" style="font-weight: bolder" class="label"><foreignObject height="24" width="58.25"><div xmlns="http://www.w3.org/1999/xhtml" style="display: table-cell; white-space: nowrap; line-height: 1.5; max-width: 110px; text-align: center;"><span style="" class="nodeLabel markdown-node-label"><p>Handler</p></span></div></foreignObject></g></g><g transform="translate(-163.1953125, 9)" class="members-group text"></g><g transform="translate(-163.1953125, 39)" class="methods-group text"><g transform="translate(0,-12)" style="" class="label"><foreignObject height="24" width="297.265625"><div xmlns="http://www.w3.org/1999/xhtml" style="display: table-cell; white-space: nowrap; line-height: 1.5; max-width: 368px; text-align: center;"><span style="" class="nodeLabel markdown-node-label"><p>+Serve(w : ResponseWriter, req : Request)</p></span></div></foreignObject></g></g><g style="" class="divider"><path style="" fill="none" stroke-width="1.3" stroke="#999" d="M-175.1953125 -15 C-72.05992282438274 -15, 31.075466851234523 -15, 175.1953125 -15 M-175.1953125 -15 C-88.47701905396833 -15, -1.7587256079366682 -15, 175.1953125 -15"></path></g><g style="" class="divider"><path style="" fill="none" stroke-width="1.3" stroke="#999" d="M-175.1953125 9 C-37.739527087524266 9, 99.71625832495147 9, 175.1953125 9 M-175.1953125 9 C-37.37247817228976 9, 100.45035615542048 9, 175.1953125 9"></path></g></g><g transform="translate(750.07421875, 408)" id="classId-Request-284" class="node default"><g class="basic label-container"><path style="" fill="#eee" stroke-width="0" stroke="none" d="M-84.5546875 -72 L84.5546875 -72 L84.5546875 72 L-84.5546875 72"></path><path style="" fill="none" stroke-width="1.3" stroke="#999" d="M-84.5546875 -72 C-28.335894105274605 -72, 27.88289928945079 -72, 84.5546875 -72 M-84.5546875 -72 C-44.75694008517289 -72, -4.959192670345786 -72, 84.5546875 -72 M84.5546875 -72 C84.5546875 -21.8112076807533, 84.5546875 28.377584638493403, 84.5546875 72 M84.5546875 -72 C84.5546875 -43.020165096275804, 84.5546875 -14.0403301925516, 84.5546875 72 M84.5546875 72 C20.035669269717985 72, -44.48334896056403 72, -84.5546875 72 M84.5546875 72 C45.50114429978946 72, 6.447601099578918 72, -84.5546875 72 M-84.5546875 72 C-84.5546875 32.57990901879785, -84.5546875 -6.840181962404301, -84.5546875 -72 M-84.5546875 72 C-84.5546875 43.17003992814943, -84.5546875 14.340079856298857, -84.5546875 -72"></path></g><g transform="translate(0, -48)" class="annotation-group text"></g><g transform="translate(-29.75, -48)" class="label-group text"><g transform="translate(0,-12)" style="font-weight: bolder" class="label"><foreignObject height="24" width="59.5"><div xmlns="http://www.w3.org/1999/xhtml" style="display: table-cell; white-space: nowrap; line-height: 1.5; max-width: 111px; text-align: center;"><span style="" class="nodeLabel markdown-node-label"><p>Request</p></span></div></foreignObject></g></g><g transform="translate(-72.5546875, 0)" class="members-group text"><g transform="translate(0,-12)" style="" class="label"><foreignObject height="24" width="94.546875"><div xmlns="http://www.w3.org/1999/xhtml" style="display: table-cell; white-space: nowrap; line-height: 1.5; max-width: 155px; text-align: center;"><span style="" class="nodeLabel markdown-node-label"><p>+Path : string</p></span></div></foreignObject></g><g transform="translate(0,12)" style="" class="label"><foreignObject height="24" width="115.359375"><div xmlns="http://www.w3.org/1999/xhtml" style="display: table-cell; white-space: nowrap; line-height: 1.5; max-width: 180px; text-align: center;"><span style="" class="nodeLabel markdown-node-label"><p>+Method : string</p></span></div></foreignObject></g></g><g transform="translate(-72.5546875, 72)" class="methods-group text"></g><g style="" class="divider"><path style="" fill="none" stroke-width="1.3" stroke="#999" d="M-84.5546875 -24 C-18.695610793696815 -24, 47.16346591260637 -24, 84.5546875 -24 M-84.5546875 -24 C-38.191955920303386 -24, 8.170775659393229 -24, 84.5546875 -24"></path></g><g style="" class="divider"><path style="" fill="none" stroke-width="1.3" stroke="#999" d="M-84.5546875 48 C-46.715746448010975 48, -8.87680539602195 48, 84.5546875 48 M-84.5546875 48 C-32.1158571459625 48, 20.322973208075 48, 84.5546875 48"></path></g></g><g transform="translate(954.73046875, 408)" id="classId-ResponseWriter-285" class="node default"><g class="basic label-container"><path style="" fill="#eee" stroke-width="0" stroke="none" d="M-70.1015625 -42 L70.1015625 -42 L70.1015625 42 L-70.1015625 42"></path><path style="" fill="none" stroke-width="1.3" stroke="#999" d="M-70.1015625 -42 C-17.398166106079735 -42, 35.30523028784053 -42, 70.1015625 -42 M-70.1015625 -42 C-16.24920973705845 -42, 37.6031430258831 -42, 70.1015625 -42 M70.1015625 -42 C70.1015625 -17.736900573703277, 70.1015625 6.526198852593446, 70.1015625 42 M70.1015625 -42 C70.1015625 -19.821678259771215, 70.1015625 2.3566434804575707, 70.1015625 42 M70.1015625 42 C26.636988199616887 42, -16.827586100766226 42, -70.1015625 42 M70.1015625 42 C35.33706900088809 42, 0.5725755017761855 42, -70.1015625 42 M-70.1015625 42 C-70.1015625 8.651071246540667, -70.1015625 -24.697857506918666, -70.1015625 -42 M-70.1015625 42 C-70.1015625 13.399838600194137, -70.1015625 -15.200322799611726, -70.1015625 -42"></path></g><g transform="translate(0, -18)" class="annotation-group text"></g><g transform="translate(-58.1015625, -18)" class="label-group text"><g transform="translate(0,-12)" style="font-weight: bolder" class="label"><foreignObject height="24" width="116.203125"><div xmlns="http://www.w3.org/1999/xhtml" style="display: table-cell; white-space: nowrap; line-height: 1.5; max-width: 168px; text-align: center;"><span style="" class="nodeLabel markdown-node-label"><p>ResponseWriter</p></span></div></foreignObject></g></g><g transform="translate(-58.1015625, 30)" class="members-group text"></g><g transform="translate(-58.1015625, 60)" class="methods-group text"></g><g style="" class="divider"><path style="" fill="none" stroke-width="1.3" stroke="#999" d="M-70.1015625 6 C-25.337788469165503 6, 19.425985561668995 6, 70.1015625 6 M-70.1015625 6 C-29.036426810232662 6, 12.028708879534676 6, 70.1015625 6"></path></g><g style="" class="divider"><path style="" fill="none" stroke-width="1.3" stroke="#999" d="M-70.1015625 24 C-32.123051904750824 24, 5.855458690498352 24, 70.1015625 24 M-70.1015625 24 C-20.70075548780217 24, 28.70005152439566 24, 70.1015625 24"></path></g></g><g transform="translate(355.0078125, 178)" id="classId-HomeHandler-286" class="node default"><g class="basic label-container"><path style="" fill="#eee" stroke-width="0" stroke="none" d="M-62.3984375 -42 L62.3984375 -42 L62.3984375 42 L-62.3984375 42"></path><path style="" fill="none" stroke-width="1.3" stroke="#999" d="M-62.3984375 -42 C-26.688731444662757 -42, 9.020974610674486 -42, 62.3984375 -42 M-62.3984375 -42 C-20.10739365685604 -42, 22.18365018628792 -42, 62.3984375 -42 M62.3984375 -42 C62.3984375 -19.030190145426246, 62.3984375 3.9396197091475074, 62.3984375 42 M62.3984375 -42 C62.3984375 -19.219496023054578, 62.3984375 3.5610079538908437, 62.3984375 42 M62.3984375 42 C30.983611821913684 42, -0.43121385617263286 42, -62.3984375 42 M62.3984375 42 C12.561864166798948 42, -37.274709166402104 42, -62.3984375 42 M-62.3984375 42 C-62.3984375 20.01289219242416, -62.3984375 -1.974215615151678, -62.3984375 -42 M-62.3984375 42 C-62.3984375 11.280774581702769, -62.3984375 -19.438450836594463, -62.3984375 -42"></path></g><g transform="translate(0, -18)" class="annotation-group text"></g><g transform="translate(-50.3984375, -18)" class="label-group text"><g transform="translate(0,-12)" style="font-weight: bolder" class="label"><foreignObject height="24" width="100.796875"><div xmlns="http://www.w3.org/1999/xhtml" style="display: table-cell; white-space: nowrap; line-height: 1.5; max-width: 155px; text-align: center;"><span style="" class="nodeLabel markdown-node-label"><p>HomeHandler</p></span></div></foreignObject></g></g><g transform="translate(-50.3984375, 30)" class="members-group text"></g><g transform="translate(-50.3984375, 60)" class="methods-group text"></g><g style="" class="divider"><path style="" fill="none" stroke-width="1.3" stroke="#999" d="M-62.3984375 6 C-29.42797644918614 6, 3.54248460162772 6, 62.3984375 6 M-62.3984375 6 C-16.9742913927346 6, 28.4498547145308 6, 62.3984375 6"></path></g><g style="" class="divider"><path style="" fill="none" stroke-width="1.3" stroke="#999" d="M-62.3984375 24 C-36.20885502795288 24, -10.019272555905765 24, 62.3984375 24 M-62.3984375 24 C-28.104458528162326 24, 6.189520443675349 24, 62.3984375 24"></path></g></g><g transform="translate(530.4296875, 178)" id="classId-AboutHandler-287" class="node default"><g class="basic label-container"><path style="" fill="#eee" stroke-width="0" stroke="none" d="M-63.0234375 -42 L63.0234375 -42 L63.0234375 42 L-63.0234375 42"></path><path style="" fill="none" stroke-width="1.3" stroke="#999" d="M-63.0234375 -42 C-18.973231393228488 -42, 25.076974713543024 -42, 63.0234375 -42 M-63.0234375 -42 C-34.18994290667844 -42, -5.356448313356886 -42, 63.0234375 -42 M63.0234375 -42 C63.0234375 -23.035122847624802, 63.0234375 -4.070245695249604, 63.0234375 42 M63.0234375 -42 C63.0234375 -21.230854074050974, 63.0234375 -0.46170814810194827, 63.0234375 42 M63.0234375 42 C23.80609915212355 42, -15.411239195752898 42, -63.0234375 42 M63.0234375 42 C21.405741424450227 42, -20.211954651099546 42, -63.0234375 42 M-63.0234375 42 C-63.0234375 23.03972454669344, -63.0234375 4.079449093386877, -63.0234375 -42 M-63.0234375 42 C-63.0234375 16.021817428250397, -63.0234375 -9.956365143499205, -63.0234375 -42"></path></g><g transform="translate(0, -18)" class="annotation-group text"></g><g transform="translate(-51.0234375, -18)" class="label-group text"><g transform="translate(0,-12)" style="font-weight: bolder" class="label"><foreignObject height="24" width="102.046875"><div xmlns="http://www.w3.org/1999/xhtml" style="display: table-cell; white-space: nowrap; line-height: 1.5; max-width: 156px; text-align: center;"><span style="" class="nodeLabel markdown-node-label"><p>AboutHandler</p></span></div></foreignObject></g></g><g transform="translate(-51.0234375, 30)" class="members-group text"></g><g transform="translate(-51.0234375, 60)" class="methods-group text"></g><g style="" class="divider"><path style="" fill="none" stroke-width="1.3" stroke="#999" d="M-63.0234375 6 C-34.69252072350204 6, -6.361603947004085 6, 63.0234375 6 M-63.0234375 6 C-21.022150621171264 6, 20.979136257657473 6, 63.0234375 6"></path></g><g style="" class="divider"><path style="" fill="none" stroke-width="1.3" stroke="#999" d="M-63.0234375 24 C-14.822010050018676 24, 33.37941739996265 24, 63.0234375 24 M-63.0234375 24 C-16.70201187299297 24, 29.61941375401406 24, 63.0234375 24"></path></g></g><g transform="translate(835.390625, 26)" id="note0" class="node undefined"><g class="basic label-container"><path style="fill:#666 !important;stroke:#999 !important" fill="#666" stroke-width="0" stroke="none" d="M-117.3046875 -18 L117.3046875 -18 L117.3046875 18 L-117.3046875 18"></path><path style="fill:#666 !important;stroke:#999 !important" fill="none" stroke-width="1.3" stroke="#999" d="M-117.3046875 -18 C-60.876229170747024 -18, -4.447770841494048 -18, 117.3046875 -18 M-117.3046875 -18 C-64.61105666876811 -18, -11.917425837536229 -18, 117.3046875 -18 M117.3046875 -18 C117.3046875 -7.339836209135703, 117.3046875 3.320327581728595, 117.3046875 18 M117.3046875 -18 C117.3046875 -8.96913922457698, 117.3046875 0.06172155084604114, 117.3046875 18 M117.3046875 18 C34.825407519768106 18, -47.65387246046379 18, -117.3046875 18 M117.3046875 18 C63.73809553876812 18, 10.171503577536242 18, -117.3046875 18 M-117.3046875 18 C-117.3046875 7.363398476043152, -117.3046875 -3.2732030479136967, -117.3046875 -18 M-117.3046875 18 C-117.3046875 3.7180845399384648, -117.3046875 -10.56383092012307, -117.3046875 -18"></path></g><g transform="translate(-111.3046875, -12)" style="text-align:left !important;white-space:nowrap !important" class="label"><rect></rect><foreignObject height="24" width="222.609375"><div xmlns="http://www.w3.org/1999/xhtml" style="text-align: center; white-space: break-spaces; display: table; line-height: 1.5; max-width: 200px; width: 200px;"><span class="nodeLabel" style="text-align:left !important;white-space:nowrap !important"><p>路由器负责路径映射和请求分发</p></span></div></foreignObject></g></g><g transform="translate(125.3046875, 178)" id="note1" class="node undefined"><g class="basic label-container"><path style="fill:#666 !important;stroke:#999 !important" fill="#666" stroke-width="0" stroke="none" d="M-117.3046875 -18 L117.3046875 -18 L117.3046875 18 L-117.3046875 18"></path><path style="fill:#666 !important;stroke:#999 !important" fill="none" stroke-width="1.3" stroke="#999" d="M-117.3046875 -18 C-30.639104171156333 -18, 56.026479157687334 -18, 117.3046875 -18 M-117.3046875 -18 C-29.047568692855748 -18, 59.209550114288504 -18, 117.3046875 -18 M117.3046875 -18 C117.3046875 -6.509604989205556, 117.3046875 4.980790021588888, 117.3046875 18 M117.3046875 -18 C117.3046875 -9.462378717673033, 117.3046875 -0.9247574353460664, 117.3046875 18 M117.3046875 18 C50.21154901532965 18, -16.881589469340696 18, -117.3046875 18 M117.3046875 18 C59.102797416669176 18, 0.9009073333383526 18, -117.3046875 18 M-117.3046875 18 C-117.3046875 4.340874708034855, -117.3046875 -9.31825058393029, -117.3046875 -18 M-117.3046875 18 C-117.3046875 9.016762751754145, -117.3046875 0.0335255035082902, -117.3046875 -18"></path></g><g transform="translate(-111.3046875, -12)" style="text-align:left !important;white-space:nowrap !important" class="label"><rect></rect><foreignObject height="24" width="222.609375"><div xmlns="http://www.w3.org/1999/xhtml" style="text-align: center; white-space: break-spaces; display: table; line-height: 1.5; max-width: 200px; width: 200px;"><span class="nodeLabel" style="text-align:left !important;white-space:nowrap !important"><p>统一处理接口（具体业务逻辑）</p></span></div></foreignObject></g></g><g transform="translate(355.0078125, 26)" id="note2" class="node undefined"><g class="basic label-container"><path style="fill:#666 !important;stroke:#999 !important" fill="#666" stroke-width="0" stroke="none" d="M-69.6015625 -18 L69.6015625 -18 L69.6015625 18 L-69.6015625 18"></path><path style="fill:#666 !important;stroke:#999 !important" fill="none" stroke-width="1.3" stroke="#999" d="M-69.6015625 -18 C-17.40212494888918 -18, 34.79731260222164 -18, 69.6015625 -18 M-69.6015625 -18 C-16.51424993126313 -18, 36.57306263747374 -18, 69.6015625 -18 M69.6015625 -18 C69.6015625 -7.409871331181133, 69.6015625 3.180257337637734, 69.6015625 18 M69.6015625 -18 C69.6015625 -9.222134863409066, 69.6015625 -0.44426972681813126, 69.6015625 18 M69.6015625 18 C24.770500153130854 18, -20.060562193738292 18, -69.6015625 18 M69.6015625 18 C24.06070199008436 18, -21.480158519831278 18, -69.6015625 18 M-69.6015625 18 C-69.6015625 5.8344447031166915, -69.6015625 -6.331110593766617, -69.6015625 -18 M-69.6015625 18 C-69.6015625 6.668554256831069, -69.6015625 -4.6628914863378625, -69.6015625 -18"></path></g><g transform="translate(-63.6015625, -12)" style="text-align:left !important;white-space:nowrap !important" class="label"><rect></rect><foreignObject height="24" width="127.203125"><div xmlns="http://www.w3.org/1999/xhtml" style="text-align: center; white-space: nowrap; display: table-cell; line-height: 1.5; max-width: 200px;"><span class="nodeLabel" style="text-align:left !important;white-space:nowrap !important"><p>具体处理程序示例</p></span></div></foreignObject></g></g></g></g></g></svg>